jomhuria.sfdir
StartChar: exclam
Encoding: 33 33 1192
Width: 581
Flags: HW
LayerCount: 2
Back
SplineSet
250 1364 m 128,-1,1
 294 1364 294 1364 316 1328 c 128,-1,2
 338 1292 338 1292 338 1248 c 0,3,4
 338 1034 338 1034 268 344 c 1,5,6
 256 320 256 320 236 318 c 1,7,8
 217 326 217 326 210 340 c 1,9,10
 150 1030 150 1030 150 1248 c 0,11,12
 150 1292 150 1292 178 1328 c 128,-1,0
 206 1364 206 1364 250 1364 c 128,-1,1
EndSplineSet
Fore
SplineSet
490 1053 m 260
 490 1168 435 1250 291 1250 c 260
 162 1250 90 1186 90 1057 c 260
 90 1016 97 985 104 963 c 260
 179 760 211 637 214 456 c 261
 367 456 l 261
 370 637 402 760 477 963 c 260
 483 982 490 1013 490 1053 c 260
270 365 m 261
 106 201 l 261
 106 166 l 261
 270 1 l 261
 308 1 l 261
 479 166 l 261
 479 201 l 261
 308 365 l 261
 270 365 l 261
EndSplineSet
Colour: ffff00
EndChar
StartChar: parenleft
Encoding: 40 40 293
Width: 940
Flags: HW
LayerCount: 2
Back
SplineSet
451 340 m 0,0,1
 451 -26 451 -26 580 -355 c 0,2,3
 680 -609 680 -609 849 -756 c 1
 820 -791 l 1,5,6
 503 -541 503 -541 373 -139 c 0,7,8
 300 87 300 87 300 340 c 0,9,10
 300 879 300 879 602 1252 c 0,11,12
 700 1373 700 1373 820 1469 c 1
 849 1425 l 1,14,15
 634 1253 634 1253 525 873 c 0,16,17
 451 614 451 614 451 340 c 0,0,1
EndSplineSet
Fore
SplineSet
462.795259119 338.297834883 m 0
 465.743235536 516.040481673 490.715764878 695.501325996 544.904123092 864.050786736 c 0
 614.946492482 1122.77297184 716.22092142 1295.25360623 859.133599939 1427.6140415 c 0
 824.775235193 1479.10041561 l 0
 726.793070845 1409.70425186 660.988073682 1347.07409093 586.414739259 1262.71348878 c 0
 392.727229233 1015.40275657 282.07661371 697.000393553 280.067051432 341.89306479 c 0
 280.603243144 175.870912485 308.958318649 6.24151759453 353.960064034 -146.553716504 c 0
 444.276060612 -419.912944716 601.811070095 -638.783743693 815.365357985 -804.79859543 c 0
 858.626458523 -753.767446716 l 0
 747.506153296 -654.290173723 662.062180933 -511.527957078 597.38371662 -354.217884837 c 0
 512.595484307 -132.581945646 466.773557811 90.9620846206 462.795259119 338.297834883 c 0
431.675923287 334.323088606 m 0
 442.477598549 99.1818117031 483.094850951 -145.278241434 567.252734621 -360.032033592 c 0
 632.903973368 -537.980394133 728.524801484 -666.750364275 836.974725475 -758.90001182 c 0
 814.297754893 -774.209242138 l 0
 622.375763835 -611.068610215 475.846220311 -402.733786804 387.255349107 -139.761408693 c 0
 341.251743002 21.3224771554 318.674453772 170.579492972 317.975253272 341.447681735 c 0
 320.761131114 692.078772707 409.373787447 1001.65187799 613.709086625 1236.72883057 c 0
 681.755321593 1319.16453473 748.712461937 1398.1757688 810.922431305 1448.42123463 c 0
 827.781685798 1428.1473972 l 0
 691.792146391 1322.39162695 581.018160602 1130.93750599 515.721380807 879.388672353 c 0
 466.65084334 696.964068812 437.012119696 524.599943909 431.675923287 334.323088606 c 0
EndSplineSet
Colour: ff0000
EndChar
StartChar: parenright
Encoding: 41 41 294
Width: 940
Flags: HW
LayerCount: 2
Back
SplineSet
488 340 m 0,0,1
 488 -26 488 -26 359 -355 c 0,2,3
 259 -609 259 -609 90 -756 c 1
 119 -791 l 1,5,6
 436 -541 436 -541 566 -139 c 0,7,8
 639 87 639 87 639 340 c 0,9,10
 639 879 639 879 337 1252 c 0,11,12
 239 1373 239 1373 119 1469 c 1
 90 1425 l 1,14,15
 305 1253 305 1253 414 873 c 0,16,17
 488 614 488 614 488 340 c 0,0,1
EndSplineSet
Fore
SplineSet
509.352052468 334.625633684 m 0
 505.121665402 517.100347559 484.659263303 704.443790277 429.065426274 880.79814489 c 0
 360.738427932 1132.24819183 238.806311528 1321.47862016 100.129743886 1423.14054866 c 0
 119.29929383 1447.73199795 l 0
 184.531115248 1396.92074636 265.884479758 1319.98034774 324.881460026 1249.23984884 c 0
 522.70407989 993.788102747 620.002060086 698.428509353 619.12806607 335.344219614 c 0
 625.972661815 175.328910517 596.167428989 11.9969352965 545.412589112 -133.284627688 c 0
 466.629218687 -404.278986347 315.153249151 -607.972452634 127.186847774 -773.156225023 c 0
 108.204670423 -759.098464047 l 0
 208.195464848 -663.578340085 309.009021476 -525.910398545 373.613401588 -367.279832052 c 0
 461.738784402 -135.999911529 500.308558373 90.8483524567 509.352052468 334.625633684 c 0
472.678730763 343.709879595 m 0
 467.719889445 101.758807616 427.650391691 -135.503254244 349.171075997 -350.123371628 c 0
 282.238505679 -516.958016599 198.3616516 -652.005248804 81.6859635639 -752.655061961 c 0
 120.167219055 -802.130094029 l 0
 344.950099195 -634.735627438 495.253630764 -415.987659754 582.221171067 -150.160235215 c 0
 629.398116448 11.37561732 648.734078107 168.531144589 647.253791859 334.040191368 c 0
 658.343655042 695.058190941 558.433722004 1015.81701092 346.168831026 1262.32785711 c 0
 281.604525747 1341.44337222 204.892609119 1418.10969622 121.219755202 1488.94423084 c 0
 73.8788012942 1416.13481734 l 0
 224.9847329 1306.35966146 328.307634383 1117.18990753 400.2003582 866.485847817 c 0
 445.744855895 698.228535252 472.174617739 525.411970059 472.678730763 343.709879595 c 0
EndSplineSet
Colour: ff0000
EndChar
StartChar: slash
Encoding: 47 47 5618
Width: 706
Flags: HW
LayerCount: 2
Back
SplineSet
618 1438 m 0,0,1
 638 1438 638 1438 644 1420 c 1
 145 -335 l 2,3,4
 141.196014404 -348.378753662 141.196014404 -348.378753662 118 -365.5 c 0,5,6
 97 -381 97 -381 67 -381 c 0,7,8
 54 -381 54 -381 45 -377.5 c 128,-1,9
 36 -374 36 -374 33.5 -370.5 c 2
 31 -367 l 1
 538 1408 l 2,12,13
 539.177185059 1412.12121582 539.177185059 1412.12121582 548.588623047 1418.56054688 c 128,-1,14
 558 1425 558 1425 577 1431.5 c 128,-1,15
 596 1438 596 1438 618 1438 c 0,0,1
EndSplineSet
Fore
SplineSet
622.007721652 1446.04531824 m 0
 599.058947278 1446.06899734 590.416402074 1451.87032417 566.640095557 1443.25665053 c 0
 552.923659691 1447.53337149 547.927155974 1440.26099617 536.965617759 1427.52031156 c 0
 525.759941353 1424.23592827 532.230414334 1417.43151668 523.168624814 1412.23575909 c 0
 20.2986966258 -365.317825136 l 0
 24.0138640219 -383.419969567 l 0
 24.943804823 -378.539120434 34.5812020134 -383.81992992 37.6444254128 -389.242600088 c 0
 51.7894416979 -400.986215769 60.0269427263 -402.798542532 73.7846432213 -400.334047385 c 0
 92.4349374986 -401.018468177 109.949299869 -387.549385584 125.456666695 -373.766032583 c 0
 140.430790168 -367.248238668 161.028336856 -353.658933618 161.002894969 -340.482505994 c 0
 654.146337353 1414.93339262 l 0
 650.960467416 1443.10311768 631.953324376 1458.49324431 622.007721652 1446.04531824 c 0
620.596054246 1422.47509846 m 0
 620.893086455 1418.1803963 621.636535395 1416.94771923 625.495932694 1426.57997926 c 0
 136.104912058 -325.561110072 l 0
 122.609029848 -330.267156132 117.151777214 -345.127561447 109.706519067 -354.740055379 c 0
 97.7602323668 -356.983134868 81.4910154065 -365.309344858 72.563794179 -369.020315571 c 0
 66.3202312381 -369.667354061 59.6836767416 -358.587583559 56.5952018776 -357.962885927 c 0
 45.939689902 -362.875704586 51.0125037655 -357.579926676 42.1915476675 -368.173576971 c 0
 49.7912231752 -363.181199408 l 0
 550.183391882 1400.76190908 l 0
 547.188738438 1404.94742351 558.448773467 1409.31822984 561.718509232 1404.97159937 c 0
 568.818292897 1412.48689794 571.617793115 1420.18099837 577.775863432 1413.25471814 c 0
 593.037261369 1420.77121315 608.660447122 1419.23460862 620.596054246 1422.47509846 c 0
EndSplineSet
Colour: ff0000
EndChar
StartChar: bracketleft
Encoding: 578 91 321
Width: 577
Flags: HW
LayerCount: 2
Back
SplineSet
-240.88671875 1454 m 2,0,-1
 65.11328125 1466 l 1,1,-1
 70.11328125 1455 l 2,2,3
 71.11328125 1451 71.11328125 1451 71.11328125 1448 c 0,4,5
 71.11328125 1426 71.11328125 1426 54.11328125 1417 c 0,6,7
 52.11328125 1416 52.11328125 1416 51.11328125 1416 c 0,8,9
 -24.88671875 1390 -24.88671875 1390 -182.88671875 1370 c 1,10,-1
 -182.88671875 -694 l 1,11,-1
 -48.88671875 -715 l 1,12,13
 16.11328125 -728 16.11328125 -728 51.11328125 -740 c 1,14,15
 71.11328125 -751 71.11328125 -751 71.11328125 -772 c 0,16,17
 71.11328125 -778 71.11328125 -778 69.11328125 -782 c 2,18,-1
 67.11328125 -788 l 1,19,-1
 65.11328125 -790 l 1,20,-1
 -114.88671875 -780 l 1,21,22
 -180.88671875 -778 -180.88671875 -778 -240.88671875 -778 c 1,23,24
 -273.88671875 -774 -273.88671875 -774 -278.88671875 -732 c 1,25,-1
 -278.88671875 1408 l 2,26,27
 -278.88671875 1438 -278.88671875 1438 -259.88671875 1449 c 0,28,29
 -251.88671875 1454 -251.88671875 1454 -240.88671875 1454 c 2,0,-1
EndSplineSet
Fore
SplineSet
687.11328125 1576.75683594 m 5
 110 1577.03515625 l 5
 110 -363 l 5
 687.11328125 -363 l 5
 687.11328125 -219.416992188 l 5
 363.49609375 -219.416992188 l 5
 363.49609375 1433.45214844 l 5
 687.11328125 1433.45214844 l 5
 687.11328125 1576.75683594 l 5
EndSplineSet
Colour: ff0000
EndChar
StartChar: backslash
Encoding: 92 92 5776
Width: 706
Flags: HW
LayerCount: 2
Back
SplineSet
88 1438 m 0,0,1
 68 1438 68 1438 62 1420 c 1
 561 -335 l 2,3,4
 564.803710938 -348.37890625 564.803710938 -348.37890625 588 -365.5 c 0,5,6
 609 -381 609 -381 639 -381 c 0,7,8
 652 -381 652 -381 661 -377.5 c 128,-1,9
 670 -374 670 -374 672.5 -370.5 c 2
 675 -367 l 1
 168 1408 l 2,12,13
 166.823242188 1412.12109375 166.823242188 1412.12109375 157.411621094 1418.56054688 c 128,-1,14
 148 1425 148 1425 129 1431.5 c 128,-1,15
 110 1438 110 1438 88 1438 c 0,0,1
EndSplineSet
Fore
SplineSet
90.5385773844 1424.47255018 m 0
 105.415448513 1427.30488041 114.78131512 1424.19047313 128.843753111 1419.22185801 c 0
 131.169384656 1417.63617645 138.613149024 1410.64463174 152.577474343 1409.90541676 c 0
 155.118127467 1396.08322944 155.020659699 1406.04866966 151.766743913 1405.08046401 c 0
 660.02497905 -364.575601929 l 0
 657.498794871 -364.920922552 l 0
 657.04333339 -357.785251821 655.355884044 -361.254800922 657.783490562 -364.049840019 c 0
 655.106185099 -372.28423651 648.503270845 -366.476164951 643.462090538 -360.988465314 c 0
 621.033044653 -364.10328479 603.514445107 -363.5609275 597.853598622 -351.553438308 c 0
 588.645022102 -340.037737235 573.741243106 -335.876469184 579.944172494 -330.912317524 c 0
 70.9158504969 1422.257256 l 0
 76.3156522493 1419.85250057 74.8823336375 1418.4358972 90.5385773844 1424.47255018 c 0
88.9804897679 1450.67859662 m 0
 74.847044107 1454.03879252 55.3197747805 1439.37535738 44.5820124456 1419.58188275 c 0
 551.233080831 -341.22584919 l 0
 550.837807082 -353.542547598 563.835304672 -371.588034919 575.616065511 -379.701466093 c 0
 600.677673712 -383.201406094 615.734417293 -401.053282673 640.599107314 -397.841554238 c 0
 646.376118402 -399.234601161 659.398956642 -399.602962702 663.534261629 -386.870554793 c 0
 671.964561728 -394.537928027 678.354409736 -376.852458597 691.084434336 -380.479624799 c 0
 690.602335692 -368.356903973 l 0
 179.332846902 1412.9856442 l 0
 178.919892265 1418.77146004 170.600589917 1426.86553617 172.547241693 1428.64782153 c 0
 160.772807431 1439.40063797 153.963471353 1445.96114938 130.460883197 1443.11993805 c 0
 114.127933765 1449.31912168 110.130499183 1452.67185436 88.9804897679 1450.67859662 c 0
EndSplineSet
Colour: ff0000
EndChar
StartChar: bracketright
Encoding: 93 93 339
Width: 740
Flags: HW
LayerCount: 2
Back
SplineSet
402 1454 m 2
 96 1466 l 1
 91 1455 l 2,2,3
 90 1451 90 1451 90 1448 c 0,4,5
 90 1426 90 1426 107 1417 c 0,6,7
 109 1416 109 1416 110 1416 c 0,8,9
 186 1390 186 1390 344 1370 c 1
 344 -694 l 1
 210 -715 l 1,12,13
 145 -728 145 -728 110 -740 c 1,14,15
 90 -751 90 -751 90 -772 c 0,16,17
 90 -778 90 -778 92 -782 c 2
 94 -788 l 1
 96 -790 l 1
 276 -780 l 1,21,22
 342 -778 342 -778 402 -778 c 1,23,24
 435 -774 435 -774 440 -732 c 1
 440 1408 l 2,26,27
 440 1438 440 1438 421 1449 c 0,28,29
 413 1454 413 1454 402 1454 c 2
EndSplineSet
Fore
SplineSet
405.647433043 1433.2824082 m 0
 409.275979713 1439.6388418 410.204873671 1442.70501355 415.09382538 1430.96987003 c 0
 416.423472202 1430.17168323 426.567973086 1425.01386021 426.509510274 1414.82300802 c 0
 423.440566484 -736.144385665 l 0
 427.77831753 -760.521496823 417.366896044 -755.221578 397.34655138 -768.992723005 c 0
 357.651143261 -763.398918549 318.566366599 -760.550495789 276.772163469 -758.295005655 c 0
 104.464857151 -770.958040774 l 0
 100.004140565 -782.816075519 l 0
 106.068328894 -775.036952129 l 0
 108.72481203 -768.974699355 109.898337796 -770.362121948 99.3380737602 -766.402291447 c 0
 99.7805400191 -756.20321103 104.425863964 -757.675288419 122.453641801 -759.517422385 c 0
 130.782791783 -752.39263544 171.380816096 -732.580580098 212.553010131 -733.783381621 c 0
 358.313498837 -708.159565808 l 0
 357.039194092 1377.8884908 l 0
 246.164475675 1400.38642232 163.591240537 1407.20769177 113.285262104 1428.97568911 c 0
 116.516113393 1433.64469104 115.357609773 1434.40656271 118.404556361 1436.51527406 c 0
 106.029313654 1429.11960255 99.2070582236 1434.09962914 108.142024441 1446.9764198 c 0
 109.869855417 1441.94106751 108.097751274 1453.95389654 98.7576325021 1445.84746161 c 0
 105.666845223 1452.14128741 l 0
 405.647433043 1433.2824082 l 0
403.5786031 1462.50108881 m 0
 94.4649206457 1483.14320866 l 0
 79.788496128 1464.26267287 l 0
 79.2697513596 1453.42425586 76.6747589413 1444.68566214 74.1877152754 1441.94938525 c 0
 81.5142791648 1429.79117779 80.442370359 1407.17847732 101.152057475 1397.96228177 c 0
 103.894188057 1397.96277638 108.20076925 1403.51506004 106.153608276 1398.96544478 c 0
 152.121990579 1385.31307339 241.98446284 1373.33860535 327.827169708 1353.10123869 c 0
 336.988674397 -688.954483045 l 0
 205.139259043 -705.946816221 l 0
 167.434149335 -704.389220063 124.939423342 -713.373086473 102.287739434 -731.92320051 c 0
 85.1534375889 -733.330619035 78.1916983913 -754.167611219 72.2702936578 -766.48243724 c 0
 78.5830642691 -781.958746799 80.7039403144 -787.362716646 81.0794089497 -784.390471402 c 0
 82.9910401937 -802.456863613 l 0
 86.7124092771 -798.850913002 l 0
 279.328133325 -794.604684982 l 0
 327.078400819 -795.638618384 362.396672518 -798.962180614 407.301925804 -791.77160695 c 0
 429.034259066 -789.848564041 454.390689066 -762.880889352 460.837698164 -736.716917736 c 0
 456.277483466 1409.94857561 l 0
 457.728436404 1430.69738417 448.145642693 1451.04777073 423.487557063 1460.39446974 c 0
 420.816521611 1469.66485475 414.669979284 1472.63939698 403.5786031 1462.50108881 c 0
EndSplineSet
Colour: ff0000
EndChar
StartChar: braceleft
Encoding: 579 123 2155
Width: 637
Flags: HW
LayerCount: 2
Back
SplineSet
329 -460 m 0,0,1
 321 -606 321 -606 460 -760 c 1,2,3
 478 -784 478 -784 457 -807 c 1,4,5
 434 -828 434 -828 409 -808 c 0,6,7
 249 -672 249 -672 245 -412 c 0,8,9
 243 -294 243 -294 303 -136 c 1,10,11
 359 15 359 15 368 77 c 0,12,13
 386 214 386 214 230 308 c 1,14,-1
 230 372 l 1,15,16
 387 466 387 466 368 603 c 0,17,18
 359 667 359 667 303 816 c 0,19,20
 244 975 244 975 245 1091 c 1,21,22
 250 1352 250 1352 409 1487 c 0,23,24
 434 1508 434 1508 457 1486 c 1,25,26
 478 1462 478 1462 459 1438 c 1,27,28
 320 1284 320 1284 329 1139 c 0,29,30
 334 1060 334 1060 393 963 c 1,31,32
 493 794 493 794 464 606 c 1,33,34
 435 426 435 426 312 340 c 1,35,36
 435 252 435 252 464 74 c 1,37,38
 493 -115 493 -115 393 -283 c 0,39,40
 334 -381 334 -381 329 -460 c 0,0,1
EndSplineSet
Fore
SplineSet
84.7822265625 615.921875 m 2
 50 615.921875 l 1
 50 540.791992188 l 1
 84.7822265625 540.791992188 l 2
 164.921875 540.791992188 180.225585938 445.0703125 182.173828125 399.991210938 c 2
 182.173828125 -1.5390625 l 2
 182.173828125 -201.330078125 344.12109375 -363 543.634765625 -363 c 2
 637.408203125 -363 l 1
 637.408203125 -218.860351562 l 1
 515.530273438 -218.860351562 434 -134.547851562 434 -29.0869140625 c 2
 434 -29.0869140625 434 306.49609375 434 307.609375 c 0
 434 511.295898438 365.26953125 568.895507812 305.443359375 578.356445312 c 1
 305.443359375 578.356445312 434 598.391601562 434 849.661132812 c 0
 434 1239.2265625 l 2
 434 1344.6875 515.530273438 1429 637.408203125 1429 c 1
 637.408203125 1573.13964844 l 1
 543.634765625 1573.13964844 l 2
 344.12109375 1573.13964844 182.173828125 1411.19140625 182.173828125 1211.67871094 c 2
 182.173828125 756.721679688 l 2
 180.225585938 711.643554688 164.921875 615.921875 84.7822265625 615.921875 c 2
150.5078125 301.930664062 m 1024
EndSplineSet
Colour: ffff00
EndChar
StartChar: bar
Encoding: 5922 124 5665
Width: 473
Flags: HW
LayerCount: 2
Back
SplineSet
525 -755 m 2,0,1
 525.017578125 -773.99609375 525.017578125 -773.99609375 441 -788 c 0,2,3
 435 -789 435 -789 433 -789 c 0,4,5
 423 -789 423 -789 422 -782 c 0,6,7
 422 -781 422 -781 422.5 -777.5 c 128,-1,8
 423 -774 423 -774 423 -773 c 2,9,-1
 423 1434 l 1,10,-1
 425 1445 l 1,11,12
 429 1448 429 1448 433 1450 c 0,13,14
 479 1464 479 1464 507 1464 c 1,15,16
 524 1463 524 1463 523 1452 c 1,17,-1
 525 -755 l 2,0,1
EndSplineSet
Fore
SplineSet
110 1577.03417969 m 5
 363.217773438 1577.03417969 l 5
 363.495117188 -363 l 5
 110 -363 l 5
 110 1577.03417969 l 5
EndSplineSet
Colour: ff0000
EndChar
StartChar: braceright
Encoding: 580 125 175
Width: 647
Flags: HW
LayerCount: 2
Back
SplineSet
485 -460 m 0,0,1
 493 -606 493 -606 354 -760 c 1,2,3
 336 -784 336 -784 357 -807 c 1,4,5
 380 -828 380 -828 405 -808 c 0,6,7
 565 -672 565 -672 569 -412 c 0,8,9
 571 -294 571 -294 511 -136 c 1,10,11
 455 15 455 15 446 77 c 0,12,13
 428 214 428 214 584 308 c 1,14,-1
 584 372 l 1,15,16
 427 466 427 466 446 603 c 0,17,18
 455 667 455 667 511 816 c 0,19,20
 570 975 570 975 569 1091 c 1,21,22
 564 1352 564 1352 405 1487 c 0,23,24
 380 1508 380 1508 357 1486 c 1,25,26
 336 1462 336 1462 355 1438 c 1,27,28
 494 1284 494 1284 485 1139 c 0,29,30
 480 1060 480 1060 421 963 c 1,31,32
 321 794 321 794 350 606 c 1,33,34
 379 426 379 426 502 340 c 1,35,36
 379 252 379 252 350 74 c 1,37,38
 321 -115 321 -115 421 -283 c 0,39,40
 480 -381 480 -381 485 -460 c 0,0,1
EndSplineSet
Fore
SplineSet
502.625976562 615.921875 m 6
 537.408203125 615.921875 l 5
 537.408203125 540.791992188 l 5
 502.625976562 540.791992188 l 6
 422.486328125 540.791992188 407.182617188 445.0703125 405.234375 399.991210938 c 6
 405.234375 -1.5390625 l 6
 405.234375 -201.330078125 243.287109375 -363 43.7734375 -363 c 6
 -50 -363 l 5
 -50 -218.860351562 l 5
 71.8779296875 -218.860351562 153.408203125 -134.547851562 153.408203125 -29.0869140625 c 6
 153.408203125 -29.0869140625 153.408203125 306.49609375 153.408203125 307.609375 c 4
 153.408203125 511.295898438 222.138671875 568.895507812 281.96484375 578.356445312 c 5
 281.96484375 578.356445312 153.408203125 598.391601562 153.408203125 849.661132812 c 4
 153.408203125 1239.2265625 l 6
 153.408203125 1344.6875 71.8779296875 1429 -50 1429 c 5
 -50 1573.13964844 l 5
 43.7734375 1573.13964844 l 6
 243.287109375 1573.13964844 405.234375 1411.19140625 405.234375 1211.67871094 c 6
 405.234375 756.721679688 l 6
 407.182617188 711.643554688 422.486328125 615.921875 502.625976562 615.921875 c 6
EndSplineSet
Colour: ffff00
EndChar
StartChar: brokenbar
Encoding: 166 166 5777
Width: 410
Flags: HW
LayerCount: 2
Back
SplineSet
253 510 m 1,0,1
 252 500 252 500 211.5 490 c 128,-1,2
 171 480 171 480 160 480 c 0,3,4
 155 480 155 480 152.5 481.5 c 128,-1,5
 150 483 150 483 149.5 484.5 c 128,-1,6
 149 486 149 486 149.5 490.5 c 128,-1,7
 150 495 150 495 150 496 c 2
 150 1444 l 1,9,10
 148 1456 148 1456 160 1460 c 0,11,12
 194 1470 194 1470 237 1470 c 0,13,14
 245 1470 245 1470 249 1467 c 128,-1,15
 253 1464 253 1464 253 1461 c 2
 253 1458 l 1
 253 510 l 1,0,1
150 -770 m 2
 150 208 l 1,19,20
 148 220 148 220 160 224 c 0,21,22
 194 234 194 234 237 234 c 0,23,24
 245 234 245 234 249 231 c 128,-1,25
 253 228 253 228 253 225 c 2
 253 222 l 1
 253 -756 l 1,28,29
 252 -766 252 -766 211.5 -776 c 128,-1,30
 171 -786 171 -786 160 -786 c 0,31,32
 155 -786 155 -786 152.5 -784.5 c 128,-1,33
 150 -783 150 -783 149.5 -781.5 c 128,-1,34
 149 -780 149 -780 149.5 -775.5 c 128,-1,35
 150 -771 150 -771 150 -770 c 2
EndSplineSet
Fore
SplineSet
137.046289318 -773.94949634 m 0
 135.945620535 -773.521332411 135.564687428 -764.506538523 137.188621062 -769.604820784 c 0
 138.259137283 -772.663685446 127.491043934 -786.803779806 139.510532168 -787.957413518 c 0
 141.266381986 -785.348320343 147.034826372 -800.030450003 143.710572214 -795.795100304 c 0
 145.053201334 -795.436979 156.903207203 -794.927259626 159.705500962 -796.615835607 c 0
 172.523691822 -796.157224171 182.089337364 -804.005137251 221.485994492 -796.786462854 c 0
 236.723715408 -781.472061332 270.423375255 -766.098023434 266.301314905 -753.881838138 c 0
 272.634322529 228.323459353 l 0
 261.206166855 224.396474381 l 0
 262.759574445 236.465068947 266.044802444 235.780388591 253.306482374 243.950584471 c 0
 253.439780699 241.159448265 246.321887839 249.895841653 240.623847118 252.348852356 c 0
 207.096534272 250.956450342 179.811499722 243.864840373 150.335620134 244.738007251 c 0
 141.757955766 229.888530702 136.182548065 214.298123346 128.086646817 213.527583234 c 0
 137.046289318 -773.94949634 l 0
266.860132065 510.356245928 m 0
 263.465208349 1459.11863266 l 0
 274.267393848 1457.70929351 l 0
 260.875815539 1468.52373836 264.463480794 1480.51245666 262.382418378 1474.72197422 c 0
 250.333043458 1476.58644697 241.59036683 1479.23363272 236.424265091 1489.58315328 c 0
 203.653436939 1487.93158055 180.162888522 1483.19887746 150.497942169 1481.24064001 c 0
 144.626120661 1467.26755384 130.394321896 1451.63321511 132.922720785 1440.43707005 c 0
 135.248461831 500.147799853 l 0
 139.657256609 495.441992321 132.694101021 493.747640215 141.068875201 498.30485261 c 0
 139.452439746 492.104159437 132.437247337 478.548480794 133.279306568 474.168180719 c 0
 143.405975567 482.549488738 145.507710843 469.917654677 139.56840903 474.828289268 c 0
 147.660825326 463.318651392 156.105466457 464.277778963 155.52501993 458.857304475 c 0
 172.38875312 470.447521537 190.987624453 462.210660829 213.911213988 480.416832571 c 0
 249.525438764 483.32675502 264.672457298 488.119103944 266.860132065 510.356245928 c 0
168.060068326 -775.467912705 m 0
 163.541633897 206.888454602 l 0
 166.253332221 216.45967468 155.8860548 207.093037197 170.233548098 214.130465981 c 0
 180.440923201 218.57279066 209.641811932 222.268681106 236.329794585 221.959957312 c 0
 245.444408869 225.359432215 238.933528333 226.213746003 235.043645847 221.191872117 c 0
 234.185940567 214.372302139 240.696171774 219.761816518 234.203413559 220.608714947 c 0
 240.977465454 225.241436437 l 0
 244.629475305 -758.55127909 l 0
 243.83802402 -748.81664269 231.72171703 -748.756058999 212.763283946 -761.460484517 c 0
 184.647234618 -768.727398577 171.351405787 -776.626138634 159.491188235 -769.985178761 c 0
 151.711905727 -771.318294806 154.428087285 -773.962555944 161.627265694 -773.743927048 c 0
 165.553473069 -773.911900111 157.243900675 -772.39763733 158.372393727 -773.90920355 c 0
 166.928684965 -772.218795607 168.573458756 -779.060572761 168.430502694 -781.667548586 c 0
 162.69021382 -776.662031216 170.503887902 -775.065858919 168.060068326 -775.467912705 c 0
242.385510417 505.983440838 m 0
 241.880823105 506.860160954 229.637670562 505.049248546 205.751350101 506.794767414 c 0
 182.729803642 504.743384515 169.242658354 493.550676478 155.92532054 491.927004797 c 0
 151.905416495 498.050865503 154.979330875 487.563450847 154.375890138 490.211349078 c 0
 160.496497774 499.615178619 169.429521511 485.191065246 166.929328255 485.408211268 c 0
 166.672002657 482.292367329 166.917091634 484.468434304 164.658766929 492.52175487 c 0
 162.044351052 485.444333055 171.549440241 497.52849311 162.071728443 501.714492454 c 0
 168.000828905 1450.80550398 l 0
 169.498402206 1445.93213435 156.219007281 1445.44584138 170.265013261 1442.51816452 c 0
 185.950627238 1448.21139371 211.756838301 1460.88030119 236.362367013 1459.01054774 c 0
 247.397685808 1458.98808649 237.414263705 1462.29831863 234.196735788 1461.43216374 c 0
 239.475423932 1456.87867109 244.760090339 1456.69987129 239.117827959 1459.04738604 c 0
 236.480110948 1453.60967917 l 0
 242.385510417 505.983440838 l 0
EndSplineSet
Colour: ff0000
EndChar
StartChar: guillemotleft
Encoding: 171 171 336
Width: 850
Flags: HW
LayerCount: 2
Back
SplineSet
199 340 m 0,0,1
 199 130 199 130 381 -26 c 0,2,3
 398 -40 398 -40 388 -58 c 0,4,5
 377 -77 377 -77 353 -65 c 0,6,7
 234 -5 234 -5 167 104.5 c 128,-1,8
 100 214 100 214 100 340 c 0,9,10
 100 467 100 467 167 576 c 0,11,12
 236 688 236 688 353 745 c 0,13,14
 378 757 378 757 388 738 c 0,15,16
 398 720 398 720 381 706 c 0,17,18
 199 561 199 561 199 340 c 0,0,1
557 340 m 0,19,20
 557 130 557 130 739 -26 c 0,21,22
 756 -40 756 -40 746 -58 c 0,23,24
 735 -77 735 -77 711 -65 c 0,25,26
 592 -5 592 -5 525 104.5 c 128,-1,27
 458 214 458 214 458 340 c 0,28,29
 458 467 458 467 525 576 c 0,30,31
 594 688 594 688 711 745 c 0,32,33
 736 757 736 757 746 738 c 0,34,35
 756 720 756 720 739 706 c 0,36,37
 557 561 557 561 557 340 c 0,19,20
EndSplineSet
Fore
SplineSet
572.712917222 334.35586448 m 0
 575.947084352 484.679764575 627.801561461 603.186398919 750.057537011 692.921048761 c 0
 760.731550127 706.527327751 769.510362989 722.139292164 763.58280243 740.74382049 c 0
 750.35415457 756.67362628 721.793270882 771.006812904 704.30931895 762.834378347 c 0
 621.077105044 713.620089741 556.735159545 663.360550061 507.503491616 586.259798601 c 0
 464.678442166 511.877530812 442.926912412 422.067773998 436.22501409 342.794878378 c 0
 438.321182471 249.520856656 465.952081717 176.460762449 509.40753841 95.3396541068 c 0
 552.488892105 20.1164488076 619.867760528 -40.2060187757 702.907538337 -79.0611614637 c 0
 731.897603192 -90.7252921454 748.12556811 -81.8865744347 752.681678682 -66.9037303279 c 0
 774.342244626 -53.2827914054 763.989242073 -22.1535631313 743.624650221 -9.67636003638 c 0
 627.908567972 85.5378285816 575.873283408 204.050735257 572.712917222 334.35586448 c 0
209.693624496 346.486510637 m 0
 219.48404144 477.140555627 276.918804374 602.590169136 391.324834134 688.310804847 c 0
 399.714176794 712.170239822 403.559594924 728.087009977 401.393688204 741.934127024 c 0
 388.843207452 757.006105912 366.046879931 761.224070422 344.066405765 755.018207998 c 0
 265.416624064 725.196428289 207.637784099 660.574418388 153.149335606 584.04405255 c 0
 103.990981317 502.651491104 90.0545039694 431.321210489 87.9008433416 341.319957882 c 0
 86.5036975086 251.24238242 105.17707471 177.590502466 159.844802374 98.3816267581 c 0
 205.024003693 19.6673297109 269.233731224 -31.5363309511 352.607692714 -74.2195228606 c 0
 373.992488278 -86.4415445863 383.800535286 -86.146708054 398.833963976 -68.2374655089 c 0
 412.669342859 -53.0425936167 403.124159716 -29.2494031797 397.080988806 -19.9370046647 c 0
 269.482195965 93.238669556 211.268428271 200.809861678 209.693624496 346.486510637 c 0
543.578730942 337.224982474 m 0
 535.62714523 189.883439557 603.702755501 65.441085805 724.282043047 -37.4140477683 c 0
 739.507822374 -40.2053775908 730.96953456 -50.3433117723 727.8137884 -54.0636554581 c 0
 725.397817232 -52.4242958578 724.689214514 -54.008714939 717.373317869 -45.79567348 c 0
 643.307956169 -16.2842988171 586.744198706 42.9458404724 532.217296771 109.223865819 c 0
 487.625294668 185.084630599 476.48214954 259.186707067 479.555329074 344.251451796 c 0
 475.685086463 416.399441032 498.055193551 496.211436624 534.547185677 569.224294435 c 0
 581.678004933 637.563096619 642.42027255 697.064431398 714.218884061 731.527132209 c 0
 731.94214758 742.281390387 727.382428446 745.014835482 726.959835837 734.168703909 c 0
 731.792692635 723.548780411 738.479235481 725.339354212 726.856982182 713.017040633 c 0
 605.968353592 620.618351735 542.59217708 486.369327256 543.578730942 337.224982474 c 0
184.300067007 339.333250193 m 0
 187.531861074 202.351357189 249.945452254 72.1233501488 367.311993976 -37.8965759822 c 0
 376.278922939 -46.3286008742 375.142301211 -37.9303087386 369.056115823 -47.960859748 c 0
 374.157371198 -51.7260076908 369.681268125 -53.5885025188 353.436415961 -51.4657860086 c 0
 282.098030941 -19.2431225539 229.608864126 44.4356141031 181.290037199 107.181594253 c 0
 134.384359174 183.997365192 111.157684026 253.884927888 111.521196345 337.077698684 c 0
 114.731506707 416.243675341 141.655800256 497.362738781 179.89303734 574.200318121 c 0
 223.748991072 638.255098669 283.469834798 697.751944654 364.049049792 738.270764633 c 0
 373.021319461 741.571273604 377.303506667 743.886492114 371.094551689 729.849376181 c 0
 375.285551411 720.099001701 386.352207753 719.183511827 373.439018762 719.060816727 c 0
 246.996013227 619.549078375 181.869488677 493.750195523 184.300067007 339.333250193 c 0
EndSplineSet
Colour: ff0000
EndChar
StartChar: guillemotright
Encoding: 187 187 335
Width: 850
Flags: HW
LayerCount: 2
Back
SplineSet
651 340 m 0,0,1
 651 561 651 561 469 706 c 0,2,3
 452 720 452 720 462 738 c 0,4,5
 472 757 472 757 497 745 c 0,6,7
 614 688 614 688 683 576 c 0,8,9
 750 467 750 467 750 340 c 0,10,11
 750 214 750 214 683 104.5 c 128,-1,12
 616 -5 616 -5 497 -65 c 0,13,14
 473 -77 473 -77 462 -58 c 0,15,16
 452 -40 452 -40 469 -26 c 0,17,18
 651 130 651 130 651 340 c 0,0,1
293 340 m 0,19,20
 293 561 293 561 111 706 c 0,21,22
 94 720 94 720 104 738 c 0,23,24
 114 757 114 757 139 745 c 0,25,26
 256 688 256 688 325 576 c 0,27,28
 392 467 392 467 392 340 c 0,29,30
 392 214 392 214 325 104.5 c 128,-1,31
 258 -5 258 -5 139 -65 c 0,32,33
 115 -77 115 -77 104 -58 c 0,34,35
 94 -40 94 -40 111 -26 c 0,36,37
 293 130 293 130 293 340 c 0,19,20
EndSplineSet
Fore
SplineSet
281.630326077 335.779203018 m 0
 283.565393505 204.219319896 214.37417636 88.303201876 107.41629277 -9.3961436997 c 0
 86.3723993082 -29.2317877912 81.726466805 -46.8021324805 92.1580602283 -65.5015011295 c 0
 96.3022502547 -78.1430207205 119.695194316 -86.4299544981 142.902326635 -84.0629960223 c 0
 229.394929995 -33.0908830922 289.935294799 17.1332077325 333.621834145 101.43757187 c 0
 388.604465348 168.841001606 401.162894201 256.305733317 405.15817222 341.943053456 c 0
 412.107481341 421.952066743 389.776065865 504.492928347 342.879287088 579.168067333 c 0
 290.485293401 660.466337195 225.614998595 726.25599185 140.724921245 760.159912481 c 0
 118.810233579 772.187937436 96.6091779615 769.335117448 94.9133157655 741.998224641 c 0
 87.6201568007 726.109982292 89.7214102879 700.852996623 104.323821717 701.057285133 c 0
 222.027279505 605.505610677 281.859544523 481.376540449 281.630326077 335.779203018 c 0
637.524829511 342.616379966 m 0
 639.444023452 201.19308259 573.51427058 90.9593316917 466.263583298 -17.1655690809 c 0
 438.396186825 -28.6220382786 447.14645632 -44.4458757582 453.730759281 -64.9202702385 c 0
 460.197510633 -89.3660235888 486.712579032 -82.1997752683 504.978580642 -77.2608254999 c 0
 587.171814528 -37.0363841638 652.033275221 20.6535535789 691.261895864 93.1879589202 c 0
 740.277927566 171.08243526 766.101474887 258.106213266 759.033278407 338.884649541 c 0
 763.725860193 424.451080585 741.830086105 515.735259202 689.286731691 581.831253618 c 0
 643.570288888 663.278987608 579.951232949 715.43489213 497.059381521 752.42909771 c 0
 488.449286036 763.402117176 452.822249256 762.098251197 443.295004978 742.387971859 c 0
 439.185320912 732.989061139 442.893480982 712.266558271 460.115134457 688.372189963 c 0
 580.026746082 599.321260107 632.918546204 482.428878618 637.524829511 342.616379966 c 0
302.524546567 339.954784398 m 0
 307.722880879 497.200047723 240.587323193 613.642022622 123.890700382 720.485428231 c 0
 105.989047596 725.77705616 119.035162038 728.828022255 119.314562083 733.794158082 c 0
 116.406100626 732.660999102 115.473842682 742.699451571 131.978799072 732.729451112 c 0
 205.376160799 694.17991302 260.67955168 638.892000716 319.043604304 563.345925052 c 0
 349.238751975 496.830328342 381.620568075 425.409772075 380.902850646 336.844564944 c 0
 383.106063953 254.481276382 355.404133101 176.815239154 315.799284705 112.953999474 c 0
 263.251596365 43.2588895446 205.252598825 -10.0810014516 135.40969163 -53.7883590354 c 0
 123.13701387 -62.8066649246 125.581698648 -57.9277663057 121.647931681 -51.6555370444 c 0
 115.483369227 -50.1656702155 109.110465983 -36.72167904 123.901356264 -31.2564825602 c 0
 239.803698982 62.4729763016 311.640274322 191.246549191 302.524546567 339.954784398 c 0
665.626821111 337.216479403 m 0
 670.838944539 491.449478766 607.676056999 621.493692108 473.292076812 719.646917787 c 0
 464.371844839 721.64032923 467.243783388 720.290392742 469.343756867 731.603558431 c 0
 477.751001432 736.960140612 478.302488537 742.859638274 496.689877892 731.22650373 c 0
 562.775921815 688.253683654 626.56035519 638.402459393 666.462170658 568.274771845 c 0
 713.086722085 491.700189172 732.528143698 426.411866751 730.09525393 337.673285368 c 0
 731.247473237 262.32701367 720.637956327 188.249902783 668.303304761 118.568160073 c 0
 628.419751834 34.3653524804 572.25230141 -7.24311681762 483.584163118 -50.1304643822 c 0
 482.022266862 -55.280608772 484.863129906 -51.7479427599 471.844899891 -55.4353713436 c 0
 463.682207802 -45.8817663918 467.234949166 -42.8787362317 484.764188109 -41.9961863367 c 0
 596.823145646 64.7957826245 667.387730094 195.16392611 665.626821111 337.216479403 c 0
EndSplineSet
Colour: ff0000
EndChar
StartChar: uni030A
Encoding: 778 778 5774
Width: 0
Flags: HW
LayerCount: 2
Back
SplineSet
88 1898 m 1,0,1
 89 1836 89 1836 128 1789 c 1,2,3
 179 1732 179 1732 254 1732 c 1,4,5
 316 1733 316 1733 363 1772 c 1,6,7
 420 1823 420 1823 420 1898 c 1,8,9
 419 1960 419 1960 380 2007 c 1,10,11
 329 2064 329 2064 254 2064 c 1,12,13
 192 2063 192 2063 145 2024 c 1,14,15
 88 1973 88 1973 88 1898 c 1,0,1
12 1898 m 1,16,17
 13 2009 13 2009 97 2081 c 0,18,19
 166 2140 166 2140 254 2140 c 0,20,21
 365 2139 365 2139 437 2055 c 1,22,23
 494 1986 494 1986 496 1898 c 1,24,25
 495 1787 495 1787 411 1715 c 1,26,27
 342 1658 342 1658 254 1656 c 1,28,29
 143 1657 143 1657 71 1741 c 0,30,31
 13 1810 13 1810 12 1898 c 1,16,17
EndSplineSet
Fore
SplineSet
-6.83225616844 1901.22022251 m 0
 2.81345650129 1839.19837895 19.0981769887 1781.53324895 52.9708946243 1728.34555936 c 0
 116.459349336 1675.67277733 173.11237576 1637.37045601 255.694487197 1643.31615771 c 0
 320.957210436 1637.77532267 367.723878298 1659.17253878 414.196756244 1700.37311209 c 0
 473.472841663 1751.68459285 505.060690977 1821.57432318 513.715888195 1896.11865115 c 0
 513.546189605 1963.1353673 481.548193106 2015.40793664 442.67390093 2063.17950418 c 0
 392.331666751 2118.57975587 325.632580717 2154.34868804 250.069447843 2155.17696468 c 0
 198.101395077 2155.26072772 133.116150483 2130.73269704 85.915127246 2097.01882979 c 0
 28.1327614787 2046.48208324 -4.98068299621 1971.78494249 -6.83225616844 1901.22022251 c 0
100.966455832 1901.41207313 m 0
 109.052727326 1943.36288647 121.364319067 1987.46083663 154.430837593 2012.61048676 c 0
 183.365861861 2039.56329409 209.686788799 2050.19149348 248.772802468 2052.75352623 c 0
 302.681380032 2051.46329564 332.872865466 2029.82831335 362.945552978 2002.9540229 c 0
 398.490332468 1961.93879903 411.135796883 1940.4053184 404.889536487 1898.1365392 c 0
 410.189473048 1855.56841361 391.837656494 1821.39727096 358.790287035 1785.68780807 c 0
 329.451397098 1760.21597594 291.514699049 1743.51522465 258.765381259 1752.07707454 c 0
 209.111444152 1752.79409138 164.47229394 1768.70955706 142.18129452 1805.04499662 c 0
 121.106251097 1829.2775805 99.1685891962 1860.11887167 100.966455832 1901.41207313 c 0
32.2892466178 1898.92126204 m 0
 30.6964558652 1973.1708724 54.8480769635 2021.14420401 105.042121679 2065.80488951 c 0
 152.009294686 2108.8712349 194.918759724 2121.17598655 247.756229292 2124.88090753 c 0
 328.282378816 2126.00280944 377.98282538 2093.72471906 421.461644548 2048.80989234 c 0
 465.53688088 1995.85092624 478.539562763 1957.24367504 478.661517137 1894.97306782 c 0
 486.423021722 1832.43540452 448.719222447 1770.17222846 398.032754958 1720.20670173 c 0
 358.619100898 1693.78071957 309.671921288 1672.15832417 251.569669685 1677.06716608 c 0
 189.339824629 1668.22401335 131.025575403 1700.35355096 87.377784998 1757.34245249 c 0
 48.0509286449 1797.6411818 24.3781824262 1840.48499252 32.2892466178 1898.92126204 c 0
72.3138570671 1896.47693169 m 0
 73.4104591704 1856.16671836 95.4904080019 1810.70570134 109.728314927 1781.70463207 c 0
 149.464667195 1743.64671122 206.971665517 1719.00337276 257.935518589 1712.92540681 c 0
 291.464731107 1712.94519261 336.424521221 1733.7070947 366.649194523 1766.17773343 c 0
 409.704030801 1800.69741982 434.029572731 1840.70437503 428.373666301 1899.4572347 c 0
 427.628633439 1944.03873242 423.832436343 1983.75088394 397.967514621 2017.15105989 c 0
 358.428927809 2056.56348206 307.473462802 2073.54870877 250.353783413 2077.80890262 c 0
 207.548385619 2071.5667572 165.085751468 2058.46232694 138.377375466 2028.89414112 c 0
 88.7448490422 2003.7882451 74.0536031927 1950.01542317 72.3138570671 1896.47693169 c 0
EndSplineSet
Colour: ff0000
EndChar
StartChar: uni0600
Encoding: 1536 1536 4827
Width: 2268
VWidth: 0
Flags: HW
LayerCount: 2
Back
SplineSet
2064 -128 m 1
 2005 -114 l 2,1,2
 1905 -90 1905 -90 1905 -29 c 0,3,4
 1905 96 1905 96 2014 217 c 0,5,6
 2085 296 2085 296 2145 296 c 0,7,8
 2160 296 2160 296 2151 273 c 2
 2107 165 l 2,10,11
 2096 139 2096 139 2085 136 c 0,12,13
 2025 120 2025 120 2004 93 c 0,14,15
 1992 78 1992 78 2034 61 c 128,-1,16
 2076 44 2076 44 2142 34.5 c 128,-1,17
 2208 25 2208 25 2208 -30 c 128,-1,18
 2208 -85 2208 -85 2149 -164 c 0,19,20
 2021 -335 2021 -335 1157 -335 c 0,21,22
 297 -335 297 -335 211 -300 c 0,23,24
 168 -283 168 -283 138 -249 c 2
 71 -175 l 2,26,27
 60 -163 60 -163 60 -154.5 c 128,-1,28
 60 -146 60 -146 94 -152 c 0,29,30
 321 -192 321 -192 1147 -192 c 128,-1,31
 1973 -192 1973 -192 2064 -128 c 1
EndSplineSet
Fore
SplineSet
2054.38017056 -125.654476022 m 0
 1995.1232046 -161.005845185 1699.39836286 -183.932146092 1143.89373801 -172.675319864 c 0
 597.198840281 -182.964103379 251.248669475 -164.588865342 103.33619606 -141.723652647 c 0
 77.7750541804 -131.15655315 49.8177675503 -138.456623904 49.6878902259 -155.921439488 c 0
 39.4007177696 -168.513435108 52.2780592616 -174.850250851 63.7409907575 -186.174660028 c 0
 119.824812893 -254.225446776 l 0
 153.978241455 -277.448766971 179.897420459 -297.974209552 209.932947561 -318.998212678 c 0
 268.100610883 -338.363570087 584.772384262 -348.127293 1158.15781904 -354.228117028 c 0
 1731.03685789 -354.376810198 2077.22334698 -289.843619527 2162.04165988 -176.152721614 c 0
 2203.21404302 -114.495938051 2219.76152951 -74.8056457257 2218.47432381 -34.1811011613 c 0
 2219.08987505 5.70024538344 2197.88834472 35.9357886241 2148.87285366 43.6333066793 c 0
 2095.16741887 49.9603855598 2065.30958045 64.9897161093 2039.61157785 80.7725517884 c 0
 2014.67863724 87.543714593 2013.01650111 81.2937998148 2014.99210924 82.1529302296 c 0
 2026.7530047 98.2317653986 2048.95534506 106.2453857 2090.72501171 121.436339745 c 0
 2101.15562184 131.495814929 2114.27519424 135.720166757 2121.75233996 164.814400869 c 0
 2171.1044219 264.653886261 l 0
 2175.7203361 293.23871545 2161.70483295 303.351435053 2140.07062214 305.775454568 c 0
 2100.67538996 305.253336238 2045.38020668 282.51776862 1999.66833623 227.318240341 c 0
 1932.97806588 151.007150987 1892.73472488 51.6489203504 1885.63749209 -24.1399901112 c 0
 1895.57023081 -79.9718972684 1937.20887826 -108.96283614 2005.1159488 -134.880648963 c 0
 2054.38017056 -125.654476022 l 0
2076.10945087 -122.802786428 m 0
 2006.41078054 -94.8686291504 l 0
 1950.83876005 -85.977436828 1922.06362311 -62.4519667861 1913.97582337 -30.9746067262 c 0
 1921.24111105 57.7967940411 1952.51288296 133.874358569 2031.11994134 203.499123453 c 0
 2069.15769184 255.632480897 2108.862401 283.946552947 2139.83763098 286.383839948 c 0
 2146.54222771 285.077752959 2144.52013584 284.121833054 2136.80048454 272.070397306 c 0
 2094.42909969 177.406223618 l 0
 2080.62408898 150.210247455 2081.17377665 144.788022693 2084.08117069 147.05642145 c 0
 2034.71320541 132.657985878 2012.51583936 129.25946012 1997.05524168 102.766569267 c 0
 1977.4519502 76.2194354166 1990.93345407 59.104987914 2032.24226283 50.0362712565 c 0
 2064.06571473 34.348357068 2096.38717323 26.9302109331 2133.29010231 25.8243558622 c 0
 2178.0354736 14.0014662053 2196.75894662 -0.0311893670129 2192.69908831 -23.3263769642 c 0
 2191.4229174 -64.3524833186 2171.52177951 -109.306179484 2141.85875618 -158.702605956 c 0
 2050.4298051 -268.7450301 1737.01989389 -326.389734186 1157.52913234 -313.197503391 c 0
 578.031346056 -325.905995497 275.608644683 -314.981100008 221.480761083 -281.910973263 c 0
 187.699540248 -268.766310438 174.301566929 -265.491544407 154.631910276 -244.944448075 c 0
 78.6710900631 -163.043310945 l 0
 80.818649436 -160.339518515 70.7560519253 -160.718416155 72.4757836922 -153.447357297 c 0
 70.9094928903 -153.753922335 74.489096483 -160.575448255 89.5797985922 -164.562586585 c 0
 246.42867321 -186.852156866 602.988895141 -209.445958486 1149.91022189 -203.840058481 c 0
 1696.73727407 -208.991099274 2012.99674901 -183.219412382 2076.10945087 -122.802786428 c 0
EndSplineSet
Colour: ff0000
EndChar
StartChar: uni0601
Encoding: 1537 1537 4828
Width: 3130
VWidth: 0
Flags: HW
LayerCount: 2
Back
SplineSet
3524 -71 m 0,0,1
 3591 -71 3591 -71 3591 -117 c 0,2,3
 3591 -143 3591 -143 3575 -192.5 c 128,-1,4
 3559 -242 3559 -242 3526 -278.5 c 128,-1,5
 3493 -315 3493 -315 3402 -412 c 128,-1,6
 3311 -509 3311 -509 3250 -596 c 0,7,8
 3229 -625 3229 -625 3220.5 -615 c 128,-1,9
 3212 -605 3212 -605 3225 -581 c 1,10,11
 3301 -454 3301 -454 3371 -378.5 c 128,-1,12
 3441 -303 3441 -303 3511 -237 c 1,13,14
 3498 -207 3498 -207 3458.5 -207 c 128,-1,15
 3419 -207 3419 -207 3359 -232 c 0,16,17
 2994 -381 2994 -381 2770 -452 c 0,18,19
 2302 -601 2302 -601 1842 -601 c 0,20,21
 1530 -601 1530 -601 1341 -542 c 128,-1,22
 1152 -483 1152 -483 1010 -365 c 1,23,24
 994 -354 994 -354 983 -371 c 0,25,26
 927 -465 927 -465 855 -506 c 0,27,28
 810 -532 810 -532 767 -532 c 0,29,30
 690 -532 690 -532 616 -451 c 0,31,32
 605 -438 605 -438 570 -394.5 c 128,-1,33
 535 -351 535 -351 497 -351 c 128,-1,34
 459 -351 459 -351 414.5 -410 c 128,-1,35
 370 -469 370 -469 358.5 -497 c 128,-1,36
 347 -525 347 -525 322.5 -592.5 c 128,-1,37
 298 -660 298 -660 271.5 -694 c 128,-1,38
 245 -728 245 -728 208 -729 c 1,39,40
 133 -728 133 -728 96.5 -636.5 c 128,-1,41
 60 -545 60 -545 60 -299 c 0,42,43
 60 -279 60 -279 73.5 -274.5 c 128,-1,44
 87 -270 87 -270 91 -284.5 c 128,-1,45
 95 -299 95 -299 96 -392 c 0,46,47
 98 -600 98 -600 198 -615 c 1,48,-1
 203 -615 l 2,49,50
 243 -615 243 -615 285 -527 c 0,51,52
 296 -504 296 -504 315 -460 c 0,53,54
 418 -209 418 -209 532 -209 c 0,55,56
 570 -209 570 -209 624 -274 c 128,-1,57
 678 -339 678 -339 714 -362.5 c 128,-1,58
 750 -386 750 -386 797 -386 c 0,59,60
 910 -386 910 -386 1004 -233 c 0,61,62
 1033 -186 1033 -186 1054 -186 c 0,63,64
 1069 -186 1069 -186 1091 -221 c 0,65,66
 1161 -334 1161 -334 1377 -394.5 c 128,-1,67
 1593 -455 1593 -455 1945 -455 c 0,68,69
 2368 -455 2368 -455 2903 -277 c 0,70,71
 2974 -253 2974 -253 3201.5 -162 c 128,-1,72
 3429 -71 3429 -71 3524 -71 c 0,0,1
EndSplineSet
Fore
SplineSet
3019.74414062 579.6171875 m 2
 3020.85742188 280.486328125 l 2
 3020.85742188 170.8515625 2963.81347656 12.521484375 2787.95214844 12.521484375 c 0
 2585.93554688 12.521484375 2577.58691406 194.782226562 2577.58691406 194.782226562 c 1
 2577.58691406 194.782226562 2548.09179688 0 2407.29199219 0 c 0
 2226.14355469 0 2206.38769531 194.782226562 2206.38769531 194.782226562 c 1
 2206.38769531 194.782226562 2199.43066406 0 1964.57910156 0 c 2
 1335.98730469 0 l 2
 1213.83105469 0 1112.265625 82.921875 1080.54394531 194.782226562 c 1
 1048.82226562 82.921875 946.978515625 0 825.100585938 0 c 2
 742.178710938 0 l 2
 594.978515625 0 475.604492188 120.208007812 475.604492188 267.408203125 c 2
 475.604492188 489.182617188 l 1
 313.100585938 489.182617188 233.517578125 270.19140625 248.543945312 86.5390625 c 1
 139.744140625 86.5390625 l 1
 139.744140625 86.5390625 -72.5693359375 794.15625 637.274414062 794.15625 c 1
 636.717773438 565.30078125 l 2
 636.577148438 507.422851562 645.388671875 435.592773438 747.465820312 436.1875 c 2
 890.76953125 436.1875 l 2
 937.50390625 436.1875 953.37890625 455.666015625 953.37890625 478.483398438 c 2
 953.37890625 595.477539062 l 1
 1099.74414062 595.477539062 l 1
 1099.74414062 479.040039062 l 2
 1099.74414062 467.909179688 1099.74511719 436.1875 1136.75292969 436.1875 c 2
 2115.39648438 436.1875 l 2
 2162.14355469 436.161132812 2178.00488281 455.666015625 2178.00488281 478.483398438 c 2
 2178.00488281 595.477539062 l 1
 2324.37011719 595.477539062 l 1
 2324.37011719 595.477539062 2308.23046875 436.1875 2410.90917969 436.1875 c 0
 2521.10058594 436.1875 2503.01367188 595.477539062 2503.01367188 595.477539062 c 1
 2650.21386719 595.477539062 l 1
 2650.21386719 595.477539062 2631.84863281 436.1875 2730.63085938 436.1875 c 0
 2860.02246094 436.1875 2851.67480469 556.243164062 2732.57910156 668.66015625 c 1
 2931.53515625 825.321289062 l 1
 2931.53515625 825.321289062 3019.74414062 708.73046875 3019.74414062 579.6171875 c 2
EndSplineSet
Colour: ffff00
EndChar
StartChar: uni0602
Encoding: 5065 1538 4808
Width: 2616
VWidth: 1000
Flags: HW
LayerCount: 2
Back
SplineSet
226 -2 m 0,0,1
 153 -2 153 -2 153 -80 c 0,2,3
 153 -133 153 -133 222 -159 c 1,4,5
 256 -170 256 -170 339 -185 c 1,6,7
 339 -2 339 -2 226 -2 c 0,0,1
182 -278 m 0,8,9
 142 -259 142 -259 112.5 -224 c 128,-1,10
 83 -189 83 -189 83 -142 c 0,11,12
 83 -36 83 -36 158 50 c 0,13,14
 208 106 208 106 252.5 106 c 128,-1,15
 297 106 297 106 332 85 c 0,16,17
 387 53 387 53 387 -82 c 0,18,19
 387 -131 387 -131 380 -193 c 1,20,21
 507 -210 507 -210 791 -210 c 1,22,23
 1198 -208 1198 -208 1535 -150 c 0,24,25
 1581 -142 1581 -142 1581 -150 c 0,26,27
 1581 -157 1581 -157 1558 -173 c 2,28,-1
 1473 -231 l 2,29,30
 1435 -257 1435 -257 1388 -269 c 0,31,32
 1144 -331 1144 -331 719 -331 c 128,-1,33
 294 -331 294 -331 182 -278 c 0,8,9
EndSplineSet
Fore
SplineSet
2506 436.1875 m 1
 2272 0 l 1
 412.19140625 0 l 2
 245.235888064 0 110 135.234375 110 302.19140625 c 2
 110 390.400390625 l 2
 110 616.904296875 248.295898438 784.973632812 445.583007812 784.973632812 c 0
 640.643554688 784.973632812 788.400390625 676.604492188 864.086914062 436.1875 c 1
 2506 436.1875 l 1
425.547851562 436.313476562 m 1
 425.547851562 436.590820312 l 1
 650.104492188 436.590820312 l 1
 581.65234375 559.583007812 460.052734375 599.095703125 408.852539062 599.095703125 c 0
 363.774414062 599.095703125 319.53125 581.287109375 319.53125 525.078125 c 0
 319.53125 472.208984375 344.017578125 436.313476562 425.547851562 436.313476562 c 1
EndSplineSet
Colour: ff0000
EndChar
StartChar: uni0603
Encoding: 1539 1539 1111
Width: 3278
Flags: HW
LayerCount: 2
Back
SplineSet
2301.50195312 -418 m 0,0,1
 2277.50195312 -418 2277.50195312 -418 2277.50195312 -386.5 c 128,-1,2
 2277.50195312 -355 2277.50195312 -355 2305.50195312 -287 c 1,3,4
 2239.50195312 -276 2239.50195312 -276 2183.50195312 -230 c 1,5,6
 2002.50195312 -334 2002.50195312 -334 1480.50195312 -334 c 0,7,8
 1143.50195312 -334 1143.50195312 -334 883.501953125 -263 c 0,9,10
 821.501953125 -246 821.501953125 -246 795.501953125 -217 c 2,11,-1
 728.501953125 -143 l 2,12,13
 717.501953125 -131 717.501953125 -131 717.501953125 -122 c 128,-1,14
 717.501953125 -113 717.501953125 -113 751.501953125 -120 c 0,15,16
 1200.50195312 -210 1200.50195312 -210 1535.50195312 -210 c 0,17,18
 2019.50195312 -210 2019.50195312 -210 2218.50195312 -111 c 0,19,20
 2226.50195312 -107 2226.50195312 -107 2247.50195312 -131 c 0,21,22
 2290.50195312 -180 2290.50195312 -180 2377.50195312 -188 c 1,23,24
 2563.50195312 86 2563.50195312 86 2728.50195312 87 c 0,25,26
 2758.50195312 87 2758.50195312 87 2814.00195312 51 c 128,-1,27
 2869.50195312 15 2869.50195312 15 2869.50195312 -41 c 128,-1,28
 2869.50195312 -97 2869.50195312 -97 2832.00195312 -163.5 c 128,-1,29
 2794.50195312 -230 2794.50195312 -230 2781.50195312 -240 c 0,30,31
 2673.50195312 -322 2673.50195312 -322 2485.50195312 -322 c 0,32,33
 2412.50195312 -322 2412.50195312 -322 2349.50195312 -304 c 1,34,35
 2334.50195312 -324 2334.50195312 -324 2316.50195312 -404 c 0,36,37
 2313.50195312 -418 2313.50195312 -418 2301.50195312 -418 c 0,0,1
2781.50195312 -140 m 0,38,39
 2724.50195312 -43 2724.50195312 -43 2634.00195312 -43 c 128,-1,40
 2543.50195312 -43 2543.50195312 -43 2428.50195312 -201 c 1,41,42
 2459.50195312 -206 2459.50195312 -206 2507.00195312 -206 c 128,-1,43
 2554.50195312 -206 2554.50195312 -206 2655.00195312 -194.5 c 128,-1,44
 2755.50195312 -183 2755.50195312 -183 2781.50195312 -152 c 0,45,46
 2783.50195312 -150 2783.50195312 -150 2783.50195312 -147 c 128,-1,47
 2783.50195312 -144 2783.50195312 -144 2781.50195312 -140 c 0,38,39
EndSplineSet
Fore
SplineSet
2954.2890625 510.728515625 m 0
 3215.57617188 510.728515625 3209.89257812 268.323242188 3162.98535156 79.423828125 c 0
 3101.48925781 -168.228515625 3057.48339844 -312.088867188 2761.73242188 -312.088867188 c 2
 2443.95898438 -312.088867188 l 2
 2321.82128906 -312.302734375 2220.23730469 -229.723632812 2188.515625 -117.86328125 c 1
 2156.79394531 -229.723632812 2054.95019531 -312.088867188 1933.07226562 -312.088867188 c 2
 298.498046875 -312.088867188 l 1
 60.498046875 124.098632812 l 1
 2051.88964844 124.098632812 l 2
 2098.58496094 124.098632812 2114.49804688 143.702148438 2114.49804688 166.51953125 c 2
 2114.49804688 282.833007812 l 1
 2261.41992188 282.833007812 l 1
 2261.41992188 166.51953125 l 2
 2261.41992188 145.372070312 2279.22851562 124.501953125 2307.88964844 124.501953125 c 0
 2412.515625 124.501953125 2676.86328125 510.728515625 2954.2890625 510.728515625 c 0
2972.93261719 124.098632812 m 1
 2972.93261719 124.098632812 2937.59375 316.932617188 2811.81933594 316.932617188 c 0
 2697.73242188 316.932617188 2519.92382812 124.098632812 2519.92382812 124.098632812 c 1
 2972.93261719 124.098632812 l 1
EndSplineSet
Colour: ffff00
EndChar
StartChar: uni0608
Encoding: 1544 1544 4619
Width: 1763
Flags: HW
LayerCount: 2
Back
SplineSet
1226 198 m 1,0,1
 1198 301 1198 301 1131 300 c 0,2,3
 1087 299 1087 299 1101 261 c 1,4,5
 1121 212 1121 212 1226 198 c 1,0,1
1289 -87 m 0,6,7
 1299 -65 1299 -65 1282 0 c 1,8,9
 1096 5 1096 5 1033 62 c 0,10,11
 964 124 964 124 1067 317 c 1,12,13
 1138 456 1138 456 1195 456 c 0,14,15
 1321 456 1321 456 1366 188 c 1,16,17
 1478 186 1478 186 1620 234 c 0,18,19
 1697 261 1697 261 1673 198 c 2
 1601 11 l 2,21,22
 1591 -16 1591 -16 1568 -9 c 0,23,24
 1548 -3 1548 -3 1557 22 c 2
 1566 46 l 1,26,27
 1463 9 1463 9 1361 2 c 1,28,29
 1352 -46 1352 -46 1332 -113 c 1,30,31
 1304 -213 1304 -213 1263 -266 c 0,32,33
 1100 -483 1100 -483 784 -522 c 0,34,35
 606 -544 606 -544 480 -472 c 0,36,37
 376 -412 376 -412 342 -299 c 0,38,39
 292 -134 292 -134 383 64 c 1,40,41
 261 -46 261 -46 117 -67 c 0,42,43
 88 -71 88 -71 90 -38 c 2
 94 32 l 2,45,46
 96 68 96 68 117 69 c 0,47,48
 304 78 304 78 470 233 c 0,49,50
 498 260 498 260 512 249 c 0,51,52
 530 235 530 235 516 215 c 0,53,54
 337 -41 337 -41 454 -219 c 0,55,56
 517 -316 517 -316 695 -338 c 0,57,58
 869 -360 869 -360 1045 -290 c 0,59,60
 1225 -219 1225 -219 1289 -87 c 0,6,7
EndSplineSet
Fore
SplineSet
1271.3152607 -75.5217426029 m 0
 1230.56055807 -159.374454685 1162.21505452 -224.647008306 1034.26138364 -272.685354384 c 0
 923.807818328 -322.214032957 806.485234504 -336.101381017 693.248815246 -324.404699373 c 0
 584.202998327 -315.425746938 509.270866407 -272.666526971 469.585283314 -209.097061988 c 0
 391.225490324 -94.3547000006 404.325699916 35.7917957867 526.202304517 210.277798249 c 0
 544.992309684 224.061053308 542.212669524 247.677550833 522.248737613 267.199570586 c 0
 506.767914082 268.878321492 475.875495152 259.80332791 465.304208027 241.05867652 c 0
 344.278114578 142.748684646 233.972198993 84.4675224204 113.639607179 79.2947975331 c 0
 93.4855470555 83.4652090151 84.8343232925 61.9233696475 77.1490891556 33.1429528006 c 0
 80.5515880067 -37.1628064049 l 0
 77.4336185081 -64.4495448595 92.4448864882 -88.0617139715 113.004864544 -77.3724644373 c 0
 222.524840601 -70.6661241066 306.453130021 -25.4740964266 380.835871474 48.739152983 c 0
 307.581116089 -62.0906047527 286.745115398 -189.160483366 327.821382366 -298.023052198 c 0
 345.289329899 -382.216466152 400.6470069 -448.274206317 473.992478963 -487.824961656 c 0
 565.228554 -536.559168419 666.157525656 -553.888694764 785.040332952 -531.06521698 c 0
 1006.18264675 -510.889238184 1164.64938712 -415.462232714 1274.15999138 -274.415875941 c 0
 1306.97127379 -234.888794515 1321.0762735 -181.979464683 1345.74918713 -118.982558032 c 0
 1353.99913876 -73.4050450274 1375.25599248 -26.4863120365 1367.84176795 -3.2089624276 c 0
 1424.58794266 -7.6442258881 1503.21023428 2.96850928241 1550.22582525 37.1049301602 c 0
 1549.45823738 22.6519069834 l 0
 1541.8687338 3.11924417208 1543.56057441 -15.3572627814 1570.11864968 -26.4699821676 c 0
 1587.76033692 -21.6990518255 1606.78211577 -21.4191846406 1619.9998271 1.01956749076 c 0
 1688.50070924 186.377141257 l 0
 1706.710872 238.715035434 1673.14575772 265.994113744 1618.00408816 254.570027894 c 0
 1515.64621595 213.702080481 1437.41445039 197.045045259 1373.45701868 198.630674877 c 0
 1348.93589463 372.386424879 1292.92858382 465.28620747 1197.6675515 467.250782386 c 0
 1148.3792043 467.917696583 1105.64692265 416.4159588 1051.74049988 319.433954992 c 0
 979.033844575 199.334506688 970.993741397 96.936126316 1017.08841056 49.2524764788 c 0
 1067.70462538 5.72281840846 1162.09341583 -12.5737627284 1278.28678345 -7.90243594682 c 0
 1280.26791385 -42.3153776133 1287.43861924 -67.5202563467 1271.3152607 -75.5217426029 c 0
1217.98706395 212.264229937 m 0
 1155.93155204 228.211731064 1124.91304244 244.419127287 1113.69217956 260.017039984 c 0
 1100.37035693 279.622958046 1104.07300483 288.320188592 1133.96227289 280.875860171 c 0
 1173.35983219 281.127412282 1194.37278847 263.145468124 1217.98706395 212.264229937 c 0
1305.80029736 -92.3991283062 m 0
 1305.94127374 -72.6028942896 1301.1586768 -34.5063497445 1290.14719405 16.2800706878 c 0
 1160.17973289 16.0734797292 1075.8415101 32.5125831136 1045.3781319 75.6488410172 c 0
 1007.94177916 106.784413386 1014.28258628 189.446151986 1078.57814746 304.417752159 c 0
 1123.03597354 402.469730654 1167.60061272 446.915273196 1201.23985293 442.094854855 c 0
 1270.74228521 439.388658794 1322.43222427 358.077608942 1358.89623057 174.116954697 c 0
 1442.1022877 175.547220066 1530.4412136 185.291615902 1620.71357982 223.358949341 c 0
 1671.95263655 233.960693417 1671.03123558 240.979119898 1665.98413668 204.167907418 c 0
 1583.9417329 16.6104859732 l 0
 1587.70695634 9.20583209173 1585.7351249 7.02260344875 1573.6049601 3.79940906626 c 0
 1559.5985284 1.90420296918 1568.71797882 2.22272399387 1577.10939989 17.0326392238 c 0
 1571.61381766 53.9115226253 l 0
 1495.84202155 37.3614762198 1433.46948135 23.4982949386 1353.47665872 11.3510572211 c 0
 1333.50514349 -22.6740045651 1328.83379564 -68.5760912858 1314.84665006 -106.330415689 c 0
 1305.8742715 -173.525585738 1281.72755759 -216.182659965 1248.93178592 -258.273897396 c 0
 1141.35260017 -394.579092072 987.051459685 -479.889562231 782.149496698 -501.065247174 c 0
 668.675623432 -516.05597812 570.919886373 -506.507781104 488.336885988 -465.971591994 c 0
 414.319639497 -426.581327575 380.739125364 -373.769447769 352.841587954 -293.052456375 c 0
 318.686302412 -187.169783268 342.984525756 -76.059454534 392.241970221 71.7813550297 c 0
 296.284343066 8.33837399397 204.871132276 -43.6105174442 120.188613258 -57.3027196776 c 0
 96.7136025563 -62.3815022677 104.532815777 -52.2503973964 109.589314108 -42.4779700821 c 0
 109.525507371 32.8037475637 l 0
 111.430216205 46.4494697209 117.108523424 60.019932972 114.841218515 52.1854885933 c 0
 244.365753986 59.0990203822 362.816105366 122.449938897 477.332683674 218.167073076 c 0
 493.577759203 238.778126869 493.981411408 243.289195601 509.529087833 234.919670042 c 0
 510.707565169 234.398095808 505.427723506 226.672648953 507.531416905 220.650762833 c 0
 377.249073626 43.4148359313 366.712312418 -110.58225809 440.287821369 -231.364842646 c 0
 492.210479381 -296.236867563 566.60339364 -330.82994487 687.543768255 -348.128137774 c 0
 815.743454977 -363.635292574 936.780606805 -345.804664331 1047.47813912 -310.394156887 c 0
 1172.21292708 -255.176826741 1258.73199433 -188.172977271 1305.80029736 -92.3991283062 c 0
1242.75858449 184.141867214 m 0
 1218.47997779 275.696836624 1183.15799325 309.213305067 1127.96933442 311.906758997 c 0
 1094.79586456 311.715309163 1083.09308028 286.949966387 1090.96333449 259.393155231 c 0
 1101.70868959 218.871535046 1149.97065893 196.032919094 1242.75858449 184.141867214 c 0
EndSplineSet
Colour: ff0000
EndChar
StartChar: uni060A
Encoding: 572 1546 315
Width: 1612
Flags: HW
LayerCount: 2
Back
Fore
SplineSet
1441.88183594 227.05859375 m 1
 1668.94042969 454.118164062 l 1
 1896 227.05859375 l 1
 1668.94042969 0 l 1
 1441.88183594 227.05859375 l 1
1047.88183594 227.05859375 m 1
 1274.94042969 454.118164062 l 1
 1502 227.05859375 l 1
 1274.94042969 0 l 1
 1047.88183594 227.05859375 l 1
110 1054.91113281 m 1
 337.05859375 1281.97070312 l 1
 564.118164062 1054.91113281 l 1
 337.05859375 827.852539062 l 1
 110 1054.91113281 l 1
818.166992188 1289.49121094 m 1
 1108.16699219 1289.49121094 l 1
 399.166992188 0 l 1
 110.053710938 0 l 1
 818.166992188 1289.49121094 l 1
110 1054.91113281 m 1
 337.05859375 1281.97070312 l 1
 564.118164062 1054.91113281 l 1
 337.05859375 827.852539062 l 1
 110 1054.91113281 l 1
1108.05078125 224.818359375 m 1
 880.9921875 -2.240234375 l 1
 653.932617188 224.818359375 l 1
 880.9921875 451.877929688 l 1
 1108.05078125 224.818359375 l 1
EndSplineSet
Colour: ffffff
EndChar
StartChar: uni060B
Encoding: 1547 1547 4620
Width: 1026
Flags: HW
LayerCount: 2
Back
SplineSet
697 838 m 0,0,1
 724 838 724 838 763 804 c 0,2,3
 946 643 946 643 936 399 c 0,4,5
 931 285 931 285 873 194 c 0,6,7
 723 -41 723 -41 161 10 c 0,8,9
 120 14 120 14 113 46 c 2
 92 143 l 2,11,12
 79 204 79 204 151 195 c 0,13,14
 652 139 652 139 846 331 c 1,15,16
 841 392 841 392 827 412 c 128,-1,17
 813 432 813 432 804 430 c 128,-1,18
 795 428 795 428 792 421 c 0,19,20
 757 332 757 332 686 316 c 0,21,22
 461 268 461 268 480 490 c 0,23,24
 489 599 489 599 561 719 c 128,-1,25
 633 839 633 839 697 838 c 0,0,1
573 524 m 1,26,27
 683 504 683 504 714 544 c 1,28,29
 667 618 667 618 629 616 c 0,30,31
 577 614 577 614 573 524 c 1,26,27
EndSplineSet
Fore
SplineSet
588.24581842 538.193547211 m 0
 594.091974525 583.478003915 602.365124017 608.400409619 635.577721802 598.992581382 c 0
 651.614183219 596.820289399 667.71423898 583.282332593 703.176809834 551.18974144 c 0
 683.673651319 535.482450885 652.219855525 530.700829623 588.24581842 538.193547211 c 0
691.93119394 859.042354735 m 0
 650.75535375 849.054855737 598.985108354 810.736084425 547.092040517 721.296329665 c 0
 496.701818711 639.1039801 476.793865199 570.959383201 459.586639321 495.317568947 c 0
 452.014617966 341.706870141 538.333435035 263.706236692 695.763238548 303.011501731 c 0
 733.967633736 311.575806677 784.968306202 352.12021575 809.22201592 410.077229222 c 0
 804.620335438 417.20283927 803.748250191 414.211694164 807.962571811 418.691710921 c 0
 807.345395578 412.254235053 810.030739095 415.538005347 815.671456245 405.959513033 c 0
 821.858650016 397.535946001 830.875999724 368.497202339 825.507933443 333.915443684 c 0
 715.009630237 218.095781135 480.779025387 179.456657754 146.208468869 216.875780274 c 0
 91.777414374 217.378349004 69.644121208 182.932213444 78.3837194143 137.91338948 c 0
 102.438031352 42.1718594924 l 0
 100.937868359 16.2992642873 132.572152022 -7.46132984872 153.221012163 -7.88050380618 c 0
 530.300967393 -35.245679074 776.706305751 29.1539579615 884.87942926 185.391293318 c 0
 926.225648765 242.464339832 946.055705381 326.910646076 947.708417922 400.744123525 c 0
 962.724522732 563.313342444 896.825463366 707.202001043 770.563142191 820.756093159 c 0
 751.262175621 835.716409983 720.209736201 858.360567567 691.93119394 859.042354735 c 0
566.012795345 514.964921207 m 0
 646.130271788 492.608015083 697.714055415 500.105832151 724.171867292 549.61794609 c 0
 688.006876083 599.958824112 652.550224894 630.673871358 634.36364232 636.485220933 c 0
 590.96134799 627.310163806 564.157581969 590.190895275 566.012795345 514.964921207 c 0
696.924542137 829.643140954 m 0
 709.14486558 821.602869444 728.080978769 810.025790298 749.465372607 797.258873228 c 0
 871.299523928 690.390958632 924.968433046 553.974132994 926.454330674 399.291099863 c 0
 919.03367127 332.126147307 899.426071845 260.088282672 856.221438622 205.594968832 c 0
 761.605297301 50.9836138405 529.603277321 -8.18726296654 159.58300075 28.7519209574 c 0
 134.73821431 27.5853297382 136.034890944 27.7444764299 125.784533277 55.1412117414 c 0
 111.118338242 152.47926604 l 0
 96.4336553077 176.030083343 102.026406365 182.948608365 144.286707794 174.517259698 c 0
 487.739426435 139.13741954 726.800323167 185.721694908 864.492640192 326.842899377 c 0
 854.84569551 374.615303704 848.159065911 411.566603866 837.80812846 420.35554074 c 0
 823.12246988 437.883251557 812.599005576 450.149907222 805.871501939 441.554855717 c 0
 794.369669334 436.25678601 776.961142385 436.821894053 774.35138958 421.000467322 c 0
 754.815118377 369.333499824 730.980187387 333.934335035 680.772850118 335.51239201 c 0
 542.570745155 302.737337382 484.409218778 352.314011164 490.528815141 495.189602095 c 0
 504.217580074 554.983517984 528.827681992 628.23964339 573.828261511 709.245366693 c 0
 622.499849932 785.258143458 653.77827988 818.486471884 696.924542137 829.643140954 c 0
EndSplineSet
Colour: ff0000
EndChar
StartChar: uni060C
Encoding: 1548 1548 70
Width: 415
Flags: HW
LayerCount: 2
Back
SplineSet
351 813 m 0,0,1
 384 836 384 836 405.5 812 c 128,-1,2
 427 788 427 788 399 759 c 0,3,4
 146 499 146 499 226 277 c 0,5,6
 235 253 235 253 249 268 c 1,7,8
 296 325 296 325 370 325 c 0,9,10
 434 325 434 325 479.5 279.5 c 128,-1,11
 525 234 525 234 525 170 c 128,-1,12
 525 106 525 106 475.5 59 c 128,-1,13
 426 12 426 12 362 14 c 0,14,15
 284 16 284 16 239 51 c 0,16,17
 110 151 110 151 133 420 c 0,18,19
 144 542 144 542 217.5 656.5 c 128,-1,20
 291 771 291 771 351 813 c 0,0,1
EndSplineSet
Fore
SplineSet
225 1 m 261
 389 165 l 261
 389 200 l 261
 248 342 l 261
 267 441 332 516 363 543 c 261
 225 594 l 261
 79 468 16 300 16 200 c 262
 16 165 l 261
 187 1 l 261
 225 1 l 261
EndSplineSet
Colour: ffff00
EndChar
StartChar: uni060D
Encoding: 1549 1549 4823
Width: 648
Flags: HW
LayerCount: 2
Back
SplineSet
549 942 m 1
 519 876 l 1,1,2
 481 795 481 795 436 835 c 0,3,4
 386 878 386 878 309 802 c 1,5,6
 230 726 230 726 136 574 c 0,7,8
 112 535 112 535 92 544 c 1,9,10
 69 556 69 556 90 606 c 0,11,12
 144 731 144 731 260 900 c 1,13,14
 393 1087 393 1087 523 1063 c 0,15,16
 599 1049 599 1049 549 942 c 1
EndSplineSet
Fore
SplineSet
561.146304673 939.979984098 m 0
 597.296180445 1004.69953535 591.085843977 1058.5533046 520.381453118 1080.40263314 c 0
 430.316946624 1097.78049326 342.681310952 1036.06450949 244.517335767 908.6637859 c 0
 176.036817885 788.614206707 109.731425693 692.442326364 71.3486852723 607.074796845 c 0
 56.4873241006 571.448971667 63.197117814 546.882784901 79.7860991214 524.303302643 c 0
 107.612122984 528.077310155 136.474881906 538.427507012 141.875342747 566.009689289 c 0
 213.850534545 660.971189645 269.993073948 740.245350537 317.001492722 788.640221806 c 0
 361.589199113 839.22224411 405.195758869 850.177629924 431.740165859 821.097841065 c 0
 459.887282173 790.331112969 506.942439972 812.963130943 528.298488589 864.586717216 c 0
 561.146304673 939.979984098 l 0
537.158121389 952.488902374 m 0
 500.23753415 885.811087723 l 0
 476.363478227 830.242620984 471.59210577 828.177382763 439.459340782 839.370337389 c 0
 410.186710743 874.366650129 355.512462526 860.631982788 297.07243205 812.484388686 c 0
 247.616884498 766.488196183 193.007214058 688.772749192 122.712837993 577.294735045 c 0
 111.611627198 557.769746269 103.766020946 546.483073286 94.80874905 563.382591637 c 0
 88.2431883316 561.120303712 89.3901179373 567.532167806 100.987263209 596.98060227 c 0
 144.710108008 682.147817108 191.479464797 775.02356027 275.886429432 888.893321323 c 0
 360.749356973 1009.14054606 434.338511195 1065.52372512 519.882474841 1044.80648053 c 0
 556.998764751 1045.46594041 572.313744297 1019.63051223 537.158121389 952.488902374 c 0
EndSplineSet
Colour: ff0000
EndChar
StartChar: uni060E
Encoding: 1550 1550 4824
Width: 1375
VWidth: 1000
Flags: HW
LayerCount: 2
Back
SplineSet
223 452 m 0,0,1
 150 452 150 452 150 374 c 0,2,3
 150 321 150 321 219 295 c 1,4,5
 253 284 253 284 336 269 c 1,6,7
 336 452 336 452 223 452 c 0,0,1
179 176 m 0,8,9
 139 195 139 195 109.5 230 c 128,-1,10
 80 265 80 265 80 312 c 0,11,12
 80 418 80 418 155 504 c 0,13,14
 205 560 205 560 249.5 560 c 128,-1,15
 294 560 294 560 329 539 c 0,16,17
 384 507 384 507 384 372 c 0,18,19
 384 323 384 323 377 261 c 1,20,21
 506 242 506 242 678 244 c 0,22,23
 912 246 912 246 1250 304 c 0,24,25
 1296 312 1296 312 1296 304 c 0,26,27
 1296 297 1296 297 1273 281 c 2
 1188 223 l 2,29,30
 1150 197 1150 197 1103 185 c 0,31,32
 859 123 859 123 602 123 c 0,33,34
 291 123 291 123 179 176 c 0,8,9
EndSplineSet
Fore
SplineSet
173.884202879 160.474768122 m 0
 250.534483231 129.758935531 397.587764036 107.351096299 605.099250996 105.377241296 c 0
 770.359791532 110.774654885 939.556144236 135.223430563 1102.16787251 177.383567251 c 0
 1140.30191927 184.170259334 1164.12265725 186.730071756 1191.3762533 214.632365226 c 0
 1283.7409169 275.51736726 l 0
 1302.49643026 275.232296703 1313.9936391 296.215198122 1305.89648605 299.711335033 c 0
 1302.9628522 315.287104132 1273.50405289 321.08691362 1241.02488341 314.795629267 c 0
 1018.13685289 274.623601352 835.90433535 262.77588324 682.533917686 259.496985239 c 0
 563.846182232 252.181109964 468.234535793 264.989673952 383.109729574 270.256325924 c 0
 403.391980456 299.560733942 392.90972831 339.236765292 403.387426519 371.164592473 c 0
 398.123336449 470.434876685 382.37888921 531.194225061 343.53889117 549.410210598 c 0
 314.548013143 563.935914765 285.109537291 570.115922161 251.443334344 577.917718129 c 0
 214.763067194 572.505172523 180.536706842 547.034094002 148.806793745 512.900781618 c 0
 96.0957354296 448.788253117 65.8567962893 388.759262276 69.4882367063 316.062210549 c 0
 68.0110333475 284.320869246 77.8343773967 244.083353227 100.113993696 217.933021539 c 0
 117.478158006 191.669227572 139.931728771 182.442024878 173.884202879 160.474768122 c 0
217.86582626 432.114963343 m 0
 289.182181215 442.315740112 327.161697081 389.827533951 329.579698295 283.788933442 c 0
 281.592053606 287.987808114 247.342585144 298.360548709 228.773369207 310.130239681 c 0
 183.181937004 318.136511455 166.584585914 345.658338938 161.168579605 374.546904757 c 0
 170.101099647 419.872186 186.566407458 440.263504613 217.86582626 432.114963343 c 0
188.510329077 194.330822998 m 0
 162.413852406 206.65077932 143.341441808 218.485906621 114.17584963 238.396672062 c 0
 109.25752069 259.918611399 93.7701705992 287.478539444 93.2944737379 309.733020364 c 0
 90.9954824196 384.858705399 124.720318465 443.371210996 165.923987621 497.580792647 c 0
 196.081786357 533.179053564 219.216631271 545.657744068 251.339457641 539.670027951 c 0
 276.008828045 541.387074796 298.387484565 533.780223169 318.753644194 531.505898733 c 0
 359.962241067 502.634502265 365.597800171 455.749653481 373.660211395 368.057059564 c 0
 375.143079773 334.815959897 366.767094529 301.567855457 364.996356937 256.464378582 c 0
 466.326154488 237.043395648 558.940889652 221.782053757 675.879074878 230.177280931 c 0
 832.889009562 224.481619296 1020.73516574 254.364259985 1250.41145018 287.083909336 c 0
 1284.39889243 288.433148881 1284.08068337 298.480940334 1279.6165429 309.2978004 c 0
 1276.60322622 304.615573608 1282.44204281 299.454135368 1270.13675726 298.316864645 c 0
 1179.80280694 237.583737686 l 0
 1152.04308182 220.927329954 1134.60180517 212.505322216 1096.95398763 205.870774325 c 0
 931.660093244 156.653247908 768.86648457 144.74368963 599.981015166 144.010866986 c 0
 402.424930446 135.592599032 257.604485226 152.16287803 188.510329077 194.330822998 c 0
229.785142983 469.523209186 m 0
 165.082476992 472.521862469 139.817287713 431.327406937 137.706700185 368.624905841 c 0
 130.463547425 334.714270354 167.779703323 305.704775183 217.752026879 285.448575914 c 0
 238.595276535 275.68805553 278.925587008 261.107915788 350.855158665 252.284150237 c 0
 352.797396145 388.983121025 302.060160772 470.327657899 229.785142983 469.523209186 c 0
EndSplineSet
Colour: ff0000
EndChar
StartChar: uni060F
Encoding: 4858 1551 4601
Width: 1510
Flags: HW
LayerCount: 2
Back
SplineSet
478.904296875 -363 m 1,0,1
 471.904296875 33 471.904296875 33 752.904296875 327 c 1,2,3
 591.904296875 391 591.904296875 391 540.904296875 462 c 0,4,5
 519.904296875 491 519.904296875 491 522.904296875 527 c 0,6,7
 530.904296875 623 530.904296875 623 573.904296875 702 c 0,8,9
 670.904296875 881 670.904296875 881 792.904296875 940 c 0,10,11
 852.904296875 969 852.904296875 969 937.404296875 919.5 c 128,-1,12
 1021.90429688 870 1021.90429688 870 1056.90429688 820 c 0,13,14
 1078.90429688 789 1078.90429688 789 1029.90429688 799 c 0,15,16
 765.904296875 852 765.904296875 852 593.904296875 622 c 0,17,18
 584.904296875 610 584.904296875 610 598.904296875 596 c 0,19,20
 733.904296875 461 733.904296875 461 935.904296875 485 c 0,21,22
 968.904296875 489 968.904296875 489 1031.90429688 527 c 0,23,24
 1272.90429688 672 1272.90429688 672 1301.90429688 690 c 0,25,26
 1340.90429688 713 1340.90429688 713 1320.90429688 655 c 0,27,28
 1275.90429688 526 1275.90429688 526 1248.90429688 513 c 0,29,30
 1055.90429688 420 1055.90429688 420 842.904296875 263 c 0,31,32
 561.904296875 56 561.904296875 56 536.904296875 -307 c 1,33,34
 773.904296875 -86 773.904296875 -86 942.904296875 -4 c 0,35,36
 1281.90429688 160 1281.90429688 160 1498.90429688 68 c 0,37,38
 1645.90429688 5 1645.90429688 5 1691.90429688 -134 c 1,39,40
 1757.90429688 -342 1757.90429688 -342 1586.90429688 -608 c 0,41,42
 1350.90429688 -975 1350.90429688 -975 1014.90429688 -976 c 0,43,44
 540.904296875 -977 540.904296875 -977 484.904296875 -470 c 1,45,46
 376.904296875 -577 376.904296875 -577 262.904296875 -712 c 0,47,48
 221.904296875 -760 221.904296875 -760 234.904296875 -713 c 2,49,-1
 269.904296875 -588 l 2,50,51
 278.904296875 -558 278.904296875 -558 478.904296875 -363 c 1,0,1
547.904296875 -411 m 1,52,53
 649.904296875 -794 649.904296875 -794 1081.90429688 -794 c 1,54,55
 1483.90429688 -793 1483.90429688 -793 1598.90429688 -450 c 0,56,57
 1659.90429688 -267 1659.90429688 -267 1505.90429688 -125 c 128,-1,58
 1351.90429688 17 1351.90429688 17 997.904296875 -112 c 0,59,60
 809.904296875 -180 809.904296875 -180 547.904296875 -411 c 1,52,53
EndSplineSet
Fore
SplineSet
699.634765625 179.599609375 m 1
 1066.10449219 340.712890625 1400.29589844 251.391601562 1400.57421875 -28.2607421875 c 0
 1400.57421875 -244.748046875 1178.52148438 -536.643554688 769.478515625 -536.643554688 c 0
 539.634765625 -536.643554688 401.6171875 -450.3828125 322.590820312 -341.3046875 c 1
 110 -534.138671875 l 1
 110 -209.686523438 l 1
 232.434570312 -100.88671875 l 1
 206.556640625 193.234375 372.677734375 369.65234375 564.122070312 481.791015625 c 1
 471.739257812 538.278320312 421.930664062 617.026367188 543.530273438 797.338867188 c 2
 670.416992188 991.565429688 l 2
 701.583007812 1031.91308594 764.19140625 1139.32128906 954.521484375 1139.32128906 c 0
 1175.4609375 1139.32128906 1313.47851562 876.086914062 1313.47851562 876.086914062 c 1
 1090.59082031 778.138671875 l 1
 1090.59082031 778.138671875 1017.96484375 880.260742188 965.374023438 911.147460938 c 0
 894.416992188 952.88671875 801.478515625 933.409179688 742.487304688 873.861328125 c 1
 742.487304688 873.861328125 741.095703125 659.599609375 960.365234375 659.599609375 c 0
 1126.765625 659.599609375 1328.50390625 689.374023438 1328.50390625 689.374023438 c 1
 1220.5390625 418.904296875 l 1
 934.487304688 437.826171875 765.583007812 329.583007812 699.634765625 179.599609375 c 1
963.42578125 -283.147460938 m 0
 1132.05175781 -283.147460938 1209.40820312 -192.991210938 1209.68652344 -101.165039062 c 0
 1209.68652344 -30.4873046875 1134 51.599609375 985.686523438 51.599609375 c 0
 768.086914062 51.599609375 675.982421875 -44.9560546875 675.982421875 -44.9560546875 c 1
 697.408203125 -144.57421875 768.643554688 -283.147460938 963.42578125 -283.147460938 c 0
EndSplineSet
Colour: ff0000
EndChar
StartChar: uni0610
Encoding: 1552 1552 4818
Width: 0
GlyphClass: 4
Flags: HW
LayerCount: 2
Back
SplineSet
574 2045 m 1,0,1
 511 2103 511 2103 439.5 2084.5 c 128,-1,2
 368 2066 368 2066 252 1976 c 1,3,4
 466 1964 466 1964 574 2045 c 1,0,1
83 2005 m 1,5,6
 126 1979 126 1979 203 1977 c 1,7,8
 292 2068 292 2068 382 2132 c 128,-1,9
 472 2196 472 2196 524 2196 c 1,10,11
 602 2198 602 2198 635 2106 c 1,12,13
 642 2080 642 2080 620 2035 c 128,-1,14
 598 1990 598 1990 584 1975 c 0,15,16
 510 1895 510 1895 308 1877 c 0,17,18
 205 1868 205 1868 111 1887 c 1,19,20
 117 1790 117 1790 75 1679 c 0,21,22
 66 1656 66 1656 50 1660 c 128,-1,23
 34 1664 34 1664 39 1686 c 0,24,25
 74 1842 74 1842 6 1962 c 0,26,27
 -2 1976 -2 1976 0 1980 c 2
 32 2064 l 2,29,30
 39 2082 39 2082 54.5 2059.5 c 128,-1,31
 70 2037 70 2037 83 2005 c 1,5,6
EndSplineSet
Fore
SplineSet
91.3228526839 2012.19243592 m 0
 87.332854268 2035.09751696 72.0709050189 2058.13208638 60.0664951857 2066.78911417 c 0
 53.9112826366 2091.59628782 24.8584933514 2091.88014875 17.3080218571 2063.01446385 c 0
 -11.0831683482 1986.45412382 l 0
 -18.0639706728 1972.75983107 -14.4836317793 1970.18050887 -7.14499962049 1951.24035652 c 0
 32.2999374055 1882.84946194 53.0125731702 1795.35826362 18.5860702933 1685.72222194 c 0
 17.7676866703 1676.5320703 27.5819730453 1655.97697644 46.823303546 1639.33942827 c 0
 61.5466506061 1637.28771311 83.7419931472 1652.39502545 83.7057478203 1672.61008496 c 0
 120.490626837 1749.53204728 130.468600382 1823.64348395 119.689066445 1870.08050518 c 0
 178.686533805 1856.28226702 245.09261498 1857.07532526 313.902590992 1862.60867866 c 0
 443.554309688 1881.31497332 545.308591022 1905.86845256 596.214611835 1957.89224791 c 0
 599.356155471 1973.58832825 620.442809214 2003.29711574 629.811181003 2034.53278584 c 0
 648.790716268 2059.08802415 649.00142385 2095.78544121 645.939430069 2110.31392073 c 0
 632.105151985 2175.40892675 585.64110755 2204.62995376 525.607573769 2217.86195948 c 0
 482.883201083 2213.92946021 436.789305539 2192.08145813 376.310238735 2149.83628731 c 0
 309.776293826 2099.71809609 251.33895453 2055.27430032 196.120240771 1989.47430492 c 0
 158.916655616 1986.39933817 110.415323731 1997.90469456 91.3228526839 2012.19243592 c 0
565.352575138 2051.36743819 m 0
 490.246279501 2003.51658386 390.518633338 1979.30435411 265.527160196 1977.77647551 c 0
 338.845515156 2026.196742 392.145066206 2061.52358235 443.26153997 2071.03122725 c 0
 493.647266662 2076.95138449 528.807999194 2076.08495699 565.352575138 2051.36743819 c 0
66.3994458325 2002.09480682 m 0
 104.270201247 1970.34219286 148.604561397 1962.5375287 205.327025976 1962.46691974 c 0
 274.148730382 2024.83704797 333.538394206 2075.86072537 394.206906945 2115.38289597 c 0
 449.144107171 2161.05575151 495.869530777 2183.76856442 530.6076353 2176.78608274 c 0
 569.951370264 2177.40265335 597.601765134 2159.11387658 615.159506845 2097.01254524 c 0
 620.349189595 2086.50483609 619.2948254 2074.70970108 604.644751784 2040.47494708 c 0
 590.950710989 2012.07937156 578.678977241 1993.33721306 574.904744342 1990.46000278 c 0
 521.235167266 1936.01447105 434.794205527 1910.32063946 312.641367887 1891.98693175 c 0
 233.468780854 1880.62899527 172.500155314 1889.63675758 103.364261967 1892.10231261 c 0
 94.9642212961 1826.13373751 88.50457467 1753.05819673 59.072753767 1685.66885945 c 0
 51.0027597626 1669.97678787 63.858457114 1665.20866962 54.2708142065 1671.89163936 c 0
 42.1552377372 1679.28809041 50.4480025631 1673.46660154 59.8064998232 1680.68541458 c 0
 79.9151891821 1791.7284956 72.0454657525 1882.32715792 17.5384005287 1970.48193048 c 0
 20.1522036096 1981.67904147 10.3854919349 1973.00620778 9.63423265308 1975.10549861 c 0
 40.1630481287 2063.02512861 l 0
 40.1347469055 2061.91179218 32.842157419 2056.00559145 36.5340118716 2056.45242445 c 0
 54.5195795048 2038.01688699 63.3950650113 2024.01264333 66.3994458325 2002.09480682 c 0
588.493316733 2046.31760519 m 0
 537.440744011 2103.51094975 491.441317345 2111.57823146 441.512601396 2104.80088153 c 0
 389.145837705 2084.69427271 320.849394978 2055.09368152 238.56075717 1967.5673373 c 0
 394.061786044 1946.94235208 501.816517757 1976.0368404 588.493316733 2046.31760519 c 0
EndSplineSet
Colour: ff0000
EndChar
StartChar: uni0611
Encoding: 1553 1553 4819
Width: 0
GlyphClass: 4
Flags: HW
LayerCount: 2
Back
SplineSet
111 1887 m 1,0,1
 118 1790 118 1790 75 1679 c 0,2,3
 66 1656 66 1656 50 1660 c 128,-1,4
 34 1664 34 1664 39 1686 c 0,5,6
 74 1842 74 1842 6 1962 c 0,7,8
 -2 1976 -2 1976 0 1980 c 2
 32 2064 l 2,10,11
 45 2096 45 2096 83 2005 c 1,12,13
 149 1975 149 1975 254 1977 c 1,14,15
 223 2016 223 2016 219 2068 c 0,16,17
 210 2166 210 2166 271 2225.5 c 128,-1,18
 332 2285 332 2285 392.5 2297 c 128,-1,19
 453 2309 453 2309 551 2224 c 0,20,21
 564 2213 564 2213 556 2199 c 1,22,23
 547 2186 547 2186 533 2192 c 0,24,25
 430 2232 430 2232 326 2194 c 0,26,27
 281 2178 281 2178 272 2154 c 1,28,29
 264 2129 264 2129 302.5 2068 c 128,-1,30
 341 2007 341 2007 371 2003 c 1,31,32
 438 1991 438 1991 542 2055 c 0,33,34
 580 2078 580 2078 587.5 2070.5 c 128,-1,35
 595 2063 595 2063 592 2056 c 2
 552 1973 l 2,37,38
 545 1959 545 1959 539 1954 c 1,39,40
 350 1839 350 1839 111 1887 c 1,0,1
EndSplineSet
Fore
SplineSet
126.790616125 1876.43932962 m 0
 263.557119479 1843.01444968 422.98477439 1857.40954435 546.873218318 1935.74394343 c 0
 553.211385179 1952.59691684 556.701705297 1952.39775966 566.837942917 1961.09430526 c 0
 612.01989798 2054.63202847 l 0
 609.167622132 2055.47231059 606.102585191 2069.61118943 604.458631728 2079.75947384 c 0
 580.736490382 2086.84401141 565.532486588 2089.37762479 540.292755454 2065.44591431 c 0
 463.616939782 2030.664082 418.29093009 2010.78871062 371.222980363 2016.25256299 c 0
 351.312662372 2016.61224025 345.541494953 2038.57003915 310.30120885 2071.1923207 c 0
 286.521192261 2119.92963907 279.267007268 2139.1060615 287.730763276 2150.11712414 c 0
 295.018033972 2165.31083177 296.900029384 2176.52991383 326.240200803 2186.81315136 c 0
 396.811831059 2205.36686205 465.118810762 2205.810235 527.834356513 2179.88102583 c 0
 540.438940982 2171.98938407 555.349246228 2176.6036136 573.136738756 2190.47592148 c 0
 581.618392241 2202.49418167 578.851957869 2222.92726745 555.020180942 2234.93226634 c 0
 495.484327925 2294.31001889 439.725482128 2324.18299986 382.887259128 2307.20168107 c 0
 348.191748664 2308.91365898 305.035696118 2270.68224331 255.623988476 2240.1793829 c 0
 223.171752267 2196.61211058 195.720980965 2135.29754397 204.575871683 2071.45325857 c 0
 203.959978498 2023.20311832 225.013904582 1992.82341886 244.168526874 1976.88898173 c 0
 181.556695761 1986.4347267 125.20603862 2001.91728508 91.0310166681 2011.80719519 c 0
 64.3116172754 2079.09182305 39.3555822168 2093.81940025 12.311355785 2069.89657545 c 0
 -20.6208965896 1990.39249911 l 0
 -11.6195514027 1982.17584735 -6.67184009554 1960.57585723 -8.52544752627 1960.50424324 c 0
 41.1007222621 1877.59646904 54.1807291557 1785.26752169 30.4867559453 1688.86542405 c 0
 19.5786310419 1671.60799063 27.2518293055 1656.29303637 50.6059623542 1644.73220436 c 0
 61.6208063688 1641.41214636 84.072403723 1648.94062768 92.8473913458 1671.10563712 c 0
 116.045158465 1752.41029232 124.372563207 1827.65887139 126.790616125 1876.43932962 c 0
102.88896891 1898.29666004 m 0
 97.3284312434 1817.17476912 88.2830023651 1750.02136019 59.6299916869 1690.62347944 c 0
 50.0649760091 1674.94535712 55.7247945927 1668.23698524 51.2217815009 1673.57927561 c 0
 49.9857851782 1667.19516698 54.8763342993 1676.11927713 48.4679122797 1684.00143866 c 0
 82.5592896084 1790.01591948 70.1450999564 1891.03297716 23.9720181563 1968.61792807 c 0
 18.8249189214 1973.04331248 11.900483764 1978.76942585 19.6133885417 1969.66138873 c 0
 51.6782737221 2051.77514317 l 0
 37.4109311821 2069.40683652 51.5833087011 2057.40566303 71.5622062219 1992.82835994 c 0
 116.685785525 1964.03296914 182.649012582 1967.48695714 268.702052494 1975.17281421 c 0
 248.980101388 2008.35435274 239.998648481 2036.58573433 238.532391506 2073.3248303 c 0
 229.404207554 2133.86886704 244.426218892 2176.18515777 282.656020184 2211.28582398 c 0
 322.542614422 2258.39835122 353.498441625 2280.05606242 400.484324828 2284.82768212 c 0
 433.851617451 2291.6951857 472.062517332 2269.47232459 538.739364508 2210.61247782 c 0
 553.073620677 2215.46311701 543.714352365 2215.93506579 550.118745547 2200.69019448 c 0
 544.751131463 2203.06463929 540.467978571 2205.35970269 537.374137223 2200.04698899 c 0
 471.341452212 2227.52820718 386.677529883 2230.58400598 320.981748893 2213.30222048 c 0
 282.099436054 2193.89785586 272.427231279 2173.28762232 257.231113518 2164.95466415 c 0
 254.952401802 2140.42704135 264.362618134 2102.23133535 292.768494254 2054.68214594 c 0
 314.386064731 2011.46180432 344.3227958 1986.79414127 373.782563166 1983.14341249 c 0
 410.412507579 1983.67354068 484.644686297 2005.51882973 555.499729695 2047.8416792 c 0
 567.988251779 2056.84692737 581.683522718 2060.37456201 583.471376746 2058.95234745 c 0
 576.452923239 2063.86864167 584.349201431 2065.33644956 575.160238805 2058.23250772 c 0
 542.675421412 1978.53093858 l 0
 532.517572392 1972.5730234 526.553087793 1972.71949454 527.010696485 1968.12524749 c 0
 404.958498077 1886.86898834 276.967961802 1871.24985469 102.88896891 1898.29666004 c 0
EndSplineSet
Colour: ff0000
EndChar
StartChar: uni0612
Encoding: 1554 1554 4820
Width: 0
GlyphClass: 4
Flags: HW
LayerCount: 2
Back
SplineSet
0 1679 m 1,0,1
 0 1971 0 1971 260 2088 c 1,2,3
 144 2117 144 2117 52 2081 c 0,4,5
 34 2074 34 2074 35 2086 c 0,6,7
 39 2189 39 2189 144 2194 c 0,8,9
 184 2196 184 2196 270 2179 c 128,-1,10
 356 2162 356 2162 416 2163 c 128,-1,11
 476 2164 476 2164 564 2179 c 0,12,13
 594 2184 594 2184 583 2160 c 2
 558 2106 l 2,15,16
 554 2098 554 2098 547 2096 c 0,17,18
 295 2060 295 2060 204 2000 c 0,19,20
 35 1890 35 1890 35 1679 c 1,21,22
 32 1662 32 1662 16 1662 c 0,23,24
 4 1662 4 1662 0 1679 c 1,0,1
EndSplineSet
Fore
SplineSet
-18.296900596 1683.30537503 m 0
 -14.3887727299 1658.40849886 6.78189645694 1642.66097951 19.7845948562 1653.8162152 c 0
 30.7878990528 1654.92153981 46.3052535102 1655.18053193 47.0009804301 1677.62489946 c 0
 55.9265804985 1819.16324503 99.6685365799 1918.48286887 216.835298094 1988.44306202 c 0
 271.945324521 2032.5396705 375.980767973 2051.19157291 548.010219301 2074.65971423 c 0
 555.963415941 2084.17795042 572.035419843 2085.53209968 570.037672992 2094.08078009 c 0
 596.065098084 2149.36663197 l 0
 602.128864756 2183.90109474 584.658303964 2196.38433996 565.718151203 2188.26675787 c 0
 500.166711009 2178.54761378 451.410994545 2172.76323055 409.707279482 2175.2016017 c 0
 370.846769095 2173.98945082 332.280532261 2182.10328482 278.33090844 2190.5507342 c 0
 219.80772859 2203.89492511 168.063865298 2216.82937151 149.546621079 2208.959719 c 0
 64.2765037378 2207.83834249 28.259338815 2167.45607925 21.3378423831 2085.03542878 c 0
 24.2677238418 2065.95803916 37.0808806567 2067.70563887 60.5720361414 2065.25758372 c 0
 113.153098771 2094.40547329 176.596881277 2094.98841172 238.522723379 2080.2737745 c 0
 82.0238738504 2024.64787308 -15.5436469908 1884.32543833 -18.296900596 1683.30537503 c 0
10.692469855 1678.6583517 m 0
 20.8474452285 1872.83720043 90.6459670517 1997.33395716 268.477351663 2096.10753051 c 0
 184.799078715 2116.3823667 113.807662067 2113.30209191 51.8088138437 2092.99629797 c 0
 40.7613282102 2089.78784994 44.3928662405 2084.94183998 44.2585153057 2080.17155325 c 0
 53.2786462789 2145.21290878 76.6732423455 2170.34757901 141.052329107 2182.50396177 c 0
 169.41484341 2184.19434264 206.382326878 2172.23755371 267.712590174 2160.943191 c 0
 318.826651407 2147.07435918 369.948697595 2151.74901986 416.202209033 2143.56654543 c 0
 462.855736862 2144.74774296 500.562119862 2157.81473987 571.179476856 2159.16522148 c 0
 583.721485882 2173.59419632 578.049678428 2180.01908393 562.732848923 2169.6494158 c 0
 543.322682225 2109.48743193 l 0
 543.290893304 2109.08922777 544.083255824 2107.37336217 538.987723907 2110.13050761 c 0
 376.210484532 2079.76470301 252.800011515 2055.95575443 199.367377132 2016.20010447 c 0
 82.8844831716 1936.85150574 19.5339883396 1818.6070432 13.6948613064 1679.68903913 c 0
 23.3965202488 1672.93030905 20.9837840211 1680.15484668 9.2342819619 1683.30503493 c 0
 13.4522048765 1675.47278341 12.9425896718 1679.81012073 10.692469855 1678.6583517 c 0
EndSplineSet
Colour: ff0000
EndChar
StartChar: uni0614
Encoding: 1556 1556 4822
Width: 0
VWidth: 0
GlyphClass: 4
Flags: HW
LayerCount: 2
Back
SplineSet
581 1810 m 1,0,1
 299 1696 299 1696 -19 1753 c 0,2,3
 -53 1760 -53 1760 -50 1786 c 0,4,5
 -47 1807 -47 1807 -13 1805 c 0,6,7
 459 1788 459 1788 616 1934 c 1,8,9
 634 1949 634 1949 643 1944 c 0,10,11
 657 1936 657 1936 649 1915 c 2
 641 1894 l 1,13,14
 728 1828 728 1828 815 1834 c 1,15,16
 816 1848 816 1848 798 1878 c 0,17,18
 788 1895 788 1895 799 1919 c 2
 831 1986 l 2,20,21
 843 2012 843 2012 858 1974 c 0,22,23
 878 1922 878 1922 865 1843 c 0,24,25
 848 1742 848 1742 803 1737 c 0,26,27
 694 1725 694 1725 581 1810 c 1,0,1
EndSplineSet
Fore
SplineSet
581.033434044 1793.20772332 m 0
 643.034274263 1733.99611087 732.96671084 1707.91570991 799.814071929 1716.12924899 c 0
 838.633336188 1731.07632248 863.528148692 1767.12227132 878.847588981 1835.62852776 c 0
 891.264432194 1900.52718736 884.938715957 1942.55124061 866.489188696 1974.26699589 c 0
 859.820354263 2006.70890738 828.534591999 2015.93701335 817.672797974 1996.31610083 c 0
 780.768960133 1924.66254243 l 0
 782.415614692 1906.95135865 776.102660461 1885.45449433 787.559808894 1872.43191614 c 0
 801.547490601 1851.05783249 803.509586569 1838.38989153 798.182825536 1841.91698804 c 0
 761.420677919 1839.43930001 699.404062676 1869.68260464 659.893664432 1903.8850511 c 0
 662.582675972 1907.0414558 l 0
 670.170113067 1922.94713539 669.803502847 1950.9863576 648.716351594 1957.73622805 c 0
 639.718218765 1959.38497122 620.280177685 1951.61892762 610.054060493 1938.29434806 c 0
 508.104695096 1848.59302243 307.207409922 1809.92244482 -10.3048565528 1821.36510526 c 0
 -38.4193121788 1822.55978592 -54.6855291081 1810.80597119 -71.7459508094 1786.5142392 c 0
 -66.7062137274 1757.93136101 -53.6765757152 1743.26312049 -26.2528449736 1735.05499816 c 0
 192.538512002 1697.59667533 402.782152446 1724.12252564 581.033434044 1793.20772332 c 0
585.340441721 1825.88852149 m 0
 385.256505983 1753.3313762 196.594454185 1724.23342445 -22.1571842895 1773.52582147 c 0
 -34.4027648185 1763.7809715 -42.9376089224 1769.87459267 -32.3061583946 1780.18964523 c 0
 -37.7443561712 1793.76397866 -32.6279528622 1789.78719052 -16.8579949946 1790.9632455 c 0
 309.695485673 1773.81081916 513.178398234 1820.52033212 622.96151718 1929.56443394 c 0
 631.086742381 1932.7856644 629.025771515 1925.54896571 640.977053386 1927.47128703 c 0
 643.852971404 1928.20392403 643.394766824 1930.16001461 639.945023803 1913.5861218 c 0
 629.039801652 1884.45183594 l 0
 689.687578946 1843.73904333 749.366998629 1819.14670303 830.897903043 1830.19549683 c 0
 827.567079331 1849.63758633 830.217440537 1868.24179033 807.729216304 1886.24532311 c 0
 799.109288493 1886.41674863 805.653904664 1897.37780567 810.58949193 1910.84409535 c 0
 839.65160184 1979.08544236 l 0
 849.260763759 1989.88370821 842.254218059 1990.94471609 848.072732103 1963.76002091 c 0
 863.368448592 1940.95640656 860.298865046 1900.10323649 856.106412962 1842.06758739 c 0
 843.382739597 1781.53173347 825.256922103 1757.43226372 798.367341417 1755.65374748 c 0
 732.963504909 1747.33852003 664.757900685 1763.91971761 585.340441721 1825.88852149 c 0
EndSplineSet
Colour: ff0000
EndChar
StartChar: uni0615
Encoding: 1557 1557 288
Width: 0
GlyphClass: 4
Flags: HW
LayerCount: 2
Back
SplineSet
358 3572 m 1,0,1
 413 3138 413 3138 392 2946 c 1,2,3
 622 3192 622 3192 746 3114 c 0,4,5
 810 3074 810 3074 816 3026 c 128,-1,6
 822 2978 822 2978 785.5 2907.5 c 128,-1,7
 749 2837 749 2837 730 2824 c 0,8,9
 566 2714 566 2714 182 2685 c 1,10,11
 114 2696 114 2696 68 2728 c 128,-1,12
 22 2760 22 2760 6 2790 c 128,-1,13
 -10 2820 -10 2820 11 2818 c 1,14,15
 100 2805 100 2805 245 2815 c 1
 326 2894 l 1,17,18
 325 3203 325 3203 280 3501 c 0,19,20
 273 3541 273 3541 286 3558 c 1
 318 3606 l 2,22,23
 347 3650 347 3650 358 3572 c 1,0,1
540 2990 m 0,24,25
 482 2972 482 2972 317 2824 c 1,26,27
 570 2852 570 2852 721 2932 c 1,28,29
 667 3029 667 3029 540 2990 c 0,24,25
EndSplineSet
Fore
SplineSet
546.315320589 2975.00579456 m 0
 619.022494193 3001.88610799 670.058398779 2986.78409541 709.505111502 2939.63411553 c 0
 612.676012019 2893.31871836 487.851715077 2857.03299711 328.793454391 2834.20138041 c 0
 434.064309608 2916.26882285 501.918396005 2962.01126752 546.315320589 2975.00579456 c 0
379.399874891 3571.27787666 m 0
 368.533579703 3628.86525536 330.727771787 3653.85471996 299.429667325 3610.44855238 c 0
 280.392322921 3560.54583383 l 0
 265.480327837 3551.68730353 255.42636187 3527.40171581 264.056540901 3493.26841784 c 0
 298.058556487 3304.23573315 311.215650113 3097.84744129 308.017930227 2904.0140663 c 0
 241.93335799 2828.90393021 l 0
 146.820173048 2821.34142377 67.9435889618 2826.42905267 8.37920702798 2833.30993174 c 0
 -11.3088941927 2826.34935516 -19.2296337597 2804.90184438 -10.7452977564 2777.61933984 c 0
 -2.09004943372 2763.64721414 33.2563179282 2735.35532972 60.147407751 2720.28993873 c 0
 84.9593225715 2693.06066841 134.539767377 2674.26586939 180.941067279 2674.90210126 c 0
 441.90260154 2689.53955344 632.934112072 2734.49223253 735.159352087 2817.3899088 c 0
 757.772764801 2821.17314224 777.200685022 2852.37382708 804.051463851 2904.02171556 c 0
 830.033617695 2948.23434745 832.24995804 2987.82857424 837.668434992 3028.2787007 c 0
 821.11888805 3068.85739273 794.09936791 3100.22221525 754.078034527 3122.55712395 c 0
 668.936334474 3178.3704978 539.135060882 3127.65192949 393.175200839 2961.85983115 c 0
 425.433360861 3076.72451608 404.318069686 3281.65755421 379.399874891 3571.27787666 c 0
540.301123584 3009.3215472 m 0
 489.642404376 2989.23771999 413.263914109 2938.1186837 306.298725576 2821.02106951 c 0
 494.129525285 2825.69964625 625.759714347 2867.95160158 734.45930847 2934.23272856 c 0
 691.228922925 3011.70151026 631.520383536 3029.34933769 540.301123584 3009.3215472 c 0
336.818968937 3564.7275481 m 0
 379.246900941 3283.66844558 390.454751546 3073.51049612 382.435223018 2937.49142273 c 0
 551.877445407 3098.64403277 661.646035028 3156.81443919 738.303244938 3097.97818319 c 0
 781.094546832 3072.80493936 795.738997118 3047.90505986 796.18576905 3018.94157795 c 0
 802.543610816 2991.03622681 796.779122597 2965.24480661 775.26654609 2910.42918748 c 0
 742.064498221 2866.44780095 727.650486986 2843.52375307 719.931263741 2830.93563149 c 0
 615.769686986 2767.27307645 439.444342375 2721.88379066 186.820444653 2698.6364309 c 0
 146.394064283 2709.77485552 102.527296044 2726.37271293 79.233831339 2740.99545732 c 0
 44.8182678869 2757.7211512 31.2533240519 2784.47666244 24.371053269 2791.62675212 c 0
 8.85047041335 2812.05508683 12.3415026045 2809.82173144 14.3475264047 2805.086277 c 0
 67.0715282368 2796.68978379 143.003538406 2800.30303095 258.026832373 2804.41232274 c 0
 334.221669288 2891.07073227 l 0
 336.918838382 3095.15013655 322.47812671 3301.03720318 299.185413675 3506.27581173 c 0
 288.62445717 3522.2051835 296.859683849 3544.87537355 296.913964747 3549.91770192 c 0
 329.661963976 3598.39947654 l 0
 344.779469401 3615.04453897 336.551984503 3622.78919894 336.818968937 3564.7275481 c 0
EndSplineSet
Colour: ff0000
EndChar
StartChar: uni0616
Encoding: 1558 1558 4615
Width: 0
VWidth: 0
GlyphClass: 4
Flags: HW
LayerCount: 2
Back
SplineSet
543 2379 m 0,0,1
 573 2127 573 2127 568 2030 c 128,-1,2
 563 1933 563 1933 546.5 1889.5 c 128,-1,3
 530 1846 530 1846 522 1846 c 0,4,5
 508 1845 508 1845 511 1871 c 1,6,7
 517 1972 517 1972 487 2288 c 0,8,9
 484 2317 484 2317 490 2327 c 2
 514 2376 l 2,11,12
 537 2423 537 2423 543 2379 c 0,0,1
301 2371 m 0,13,14
 336 2147 336 2147 313 2027.5 c 128,-1,15
 290 1908 290 1908 157 1828 c 1,16,17
 362 1796 362 1796 876 1841 c 0,18,19
 902 1844 902 1844 888 1821 c 1
 851 1767 l 2,21,22
 842 1754 842 1754 832 1751 c 1,23,24
 740 1737 740 1737 504.5 1729 c 128,-1,25
 269 1721 269 1721 153 1738 c 0,26,27
 117 1743 117 1743 111 1772 c 1,28,29
 105 1816 105 1816 131 1859 c 128,-1,30
 157 1902 157 1902 187 1924 c 0,31,32
 278 1988 278 1988 275 2064 c 1,33,34
 261 2212 261 2212 247 2311 c 0,35,36
 243 2337 243 2337 251 2350 c 2
 270 2379 l 1,38,39
 295 2415 295 2415 301 2371 c 0,13,14
EndSplineSet
Fore
SplineSet
315.19300917 2372.41812034 m 0
 303.502120475 2410.91299715 285.820979878 2412.4110277 256.708301719 2392.19074469 c 0
 233.615875048 2360.55520876 l 0
 233.275955753 2346.48843114 236.327845818 2333.65858121 229.980723012 2306.57685848 c 0
 243.711231069 2243.40931723 244.212351475 2163.79007642 265.126706221 2058.4228501 c 0
 266.045417672 2012.13475367 241.074819921 1982.0476594 171.842206267 1942.82325748 c 0
 155.885215984 1927.03734932 134.23497991 1896.66015628 116.857099528 1867.99511693 c 0
 102.991704823 1830.63751057 98.4767884939 1798.7375492 91.2879180793 1763.33018453 c 0
 98.8952195117 1738.9775511 129.057539424 1729.01686302 150.006444536 1719.62919776 c 0
 235.137280756 1708.99380687 348.221860218 1713.95807892 511.503150388 1712.72441049 c 0
 656.087588153 1720.65942001 771.519907055 1731.41068508 836.300397067 1741.01376068 c 0
 843.079846266 1745.49589335 853.541403771 1745.695154 865.431685877 1761.0180317 c 0
 898.51915405 1810.21821776 l 0
 910.140850926 1840.54618366 893.812237253 1850.48278891 877.886022156 1857.16323458 c 0
 538.930261958 1826.89146915 287.827965771 1827.98194122 172.616552913 1829.81611083 c 0
 256.955100675 1874.68043771 315.941215222 1947.79626507 329.082144659 2027.99997509 c 0
 343.449750097 2105.35954477 340.403703324 2217.13337869 315.19300917 2372.41812034 c 0
553.838408343 2380.56036425 m 0
 544.873954892 2419.39266623 514.707078649 2414.77100605 495.570124057 2376.03320907 c 0
 480.095669585 2329.30749428 l 0
 471.052536008 2325.38507695 464.660075284 2303.1362922 470.03150163 2287.97771719 c 0
 494.387138376 2077.81821476 494.985746799 1933.87183634 495.266545406 1871.85510191 c 0
 493.874281729 1856.33478482 508.229746985 1836.63961347 519.469373052 1829.52925362 c 0
 535.724460222 1828.06157609 542.829790775 1858.5912204 562.342973747 1887.75390624 c 0
 570.545392496 1913.22361329 575.882587295 1967.21187469 580.979145741 2031.17303325 c 0
 580.757912189 2095.55009184 581.734899852 2206.63500744 553.838408343 2380.56036425 c 0
293.09458322 2375.75318508 m 0
 314.458009665 2213.42191823 311.044369889 2101.38959688 303.666156317 2033.47598611 c 0
 285.002076405 1947.2697108 238.797991058 1891.04515713 141.132419558 1831.1221077 c 0
 293.617046514 1785.02332296 540.336509685 1789.71172692 877.525471978 1829.67655734 c 0
 881.577057949 1823.59770968 886.968509127 1843.12659545 871.329724899 1823.00142407 c 0
 833.20364628 1779.37163057 l 0
 827.304982787 1765.62170117 831.942355837 1762.5376951 828.272628396 1769.07340287 c 0
 763.39696429 1750.49634289 667.529971461 1745.73160232 497.470689598 1744.67984755 c 0
 345.674187423 1743.34008738 237.537574887 1745.03409052 151.613290569 1759.35771951 c 0
 130.906514082 1760.76637106 123.281367695 1762.88931389 119.430373854 1769.74787959 c 0
 126.431523046 1801.76015309 122.880455234 1824.59534427 146.237500399 1850.11226084 c 0
 161.725041798 1881.45569353 175.392017304 1901.82514221 193.308274199 1907.71172665 c 0
 261.819521292 1956.50758877 286.141729459 2008.53382852 285.642280022 2059.23694546 c 0
 285.46162841 2168.60366087 269.25704627 2242.99438355 256.227133188 2314.9500283 c 0
 252.860056313 2325.96501768 253.988650309 2332.10332464 265.525448456 2341.08839795 c 0
 277.576161836 2371.10184482 l 0
 290.302220434 2391.2623413 292.153540763 2384.83163687 293.09458322 2375.75318508 c 0
532.765955151 2374.08803835 m 0
 552.655130638 2210.76491643 554.765310568 2089.7615916 554.750951496 2032.71812322 c 0
 551.133511453 1964.64137525 539.902347966 1918.84702646 534.755738106 1889.24390687 c 0
 527.973784263 1869.95799008 515.754045914 1856.76096159 517.690896338 1862.41954867 c 0
 519.676156711 1864.3103195 519.763395318 1850.67745458 532.818777955 1874.60446523 c 0
 531.731129472 1933.38515066 523.117421409 2080.84303075 498.811981119 2288.83856419 c 0
 499.994931295 2314.25955187 504.742864709 2312.88952874 497.032204437 2318.08524587 c 0
 528.59754098 2363.53567412 l 0
 543.427463496 2394.6112681 536.69047066 2394.98171746 532.765955151 2374.08803835 c 0
EndSplineSet
Colour: ff0000
EndChar
StartChar: uni0617
Encoding: 1559 1559 4599
Width: 501
Flags: HW
AnchorPoint: "MarkAbove" 360.243 2600 mark 0
LayerCount: 2
Back
SplineSet
323.243164062 3624 m 2,0,1
 326.243164062 3629 326.243164062 3629 354.743164062 3619 c 128,-1,2
 383.243164062 3609 383.243164062 3609 421.243164062 3575 c 0,3,4
 427.243164062 3570 427.243164062 3570 423.243164062 3564 c 2,5,-1
 364.243164062 3471 l 2,6,7
 360.243164062 3466 360.243164062 3466 351.743164062 3473 c 128,-1,8
 343.243164062 3480 343.243164062 3480 265.243164062 3527 c 0,9,10
 259.243164062 3530 259.243164062 3530 263.243164062 3534 c 1,11,-1
 323.243164062 3624 l 2,0,1
449.243164062 3292 m 2,12,13
 453.243164062 3307 453.243164062 3307 471.243164062 3289 c 0,14,15
 519.243164062 3240 519.243164062 3240 543.243164062 3157 c 128,-1,16
 567.243164062 3074 567.243164062 3074 556.243164062 2979.5 c 128,-1,17
 545.243164062 2885 545.243164062 2885 473.743164062 2793.5 c 128,-1,18
 402.243164062 2702 402.243164062 2702 287.243164062 2672 c 0,19,20
 256.243164062 2664 256.243164062 2664 228.243164062 2673 c 0,21,22
 43.2431640625 2736 43.2431640625 2736 44.7431640625 2750.5 c 128,-1,23
 46.2431640625 2765 46.2431640625 2765 59.2431640625 2761 c 0,24,25
 143.243164062 2735 143.243164062 2735 204.243164062 2743 c 0,26,27
 407.243164062 2770 407.243164062 2770 515.243164062 2979 c 0,28,29
 520.243164062 2988 520.243164062 2988 517.243164062 2998 c 0,30,31
 499.243164062 3063 499.243164062 3063 421.243164062 3160 c 0,32,33
 417.243164062 3165 417.243164062 3165 419.243164062 3169 c 2,34,-1
 449.243164062 3292 l 2,12,13
EndSplineSet
Fore
SplineSet
304 3100.640625 m 5
 265.341796875 3139.31933594 l 5
 304 3178 l 5
 342.702148438 3139.31933594 l 5
 304 3100.640625 l 5
304.25 3064.734375 m 1
 304.25 3064.734375 361.356445312 3026.62597656 361.37890625 2931.61425781 c 0
 361.356445312 2899.16210938 354.766601562 2860.02636719 336.771484375 2813.56933594 c 0
 321.012695312 2772.83789062 304.591796875 2734 269.243164062 2734 c 0
 237.6328125 2734 140.068359375 2783.14648438 140.068359375 2783.14648438 c 1
 140 2810.35449219 l 1
 203.674804688 2822.92089844 307.3515625 2883.63085938 307.3515625 2912.93652344 c 0
 307.3515625 2937.36230469 254.852539062 2983.68261719 254.852539062 2983.68261719 c 1
 304.25 3064.734375 l 1
EndSplineSet
Colour: ff00ff
EndChar
StartChar: uni0618
Encoding: 546 1560 255
Width: 0
GlyphClass: 4
Flags: W
HStem: 1726.44 364.101
VStem: 331.581 412.3
AnchorPoint: "TashkilAbove" 492 1693 mark 0
AnchorPoint: "TashkilAboveDot" 506 1640 mark 0
AnchorPoint: "MarkAbove" 509 1640 mark 0
LayerCount: 2
Back
SplineSet
292 1785 m 2,0,-1
 643 1941 l 2,1,2
 672 1953 672 1953 668 1928 c 2,3,-1
 661 1871 l 2,4,5
 659 1855 659 1855 647 1849 c 1,6,-1
 303 1729 l 2,7,8
 268 1717 268 1717 271 1743 c 2,9,-1
 274 1765 l 1,10,11
 277 1779 277 1779 292 1785 c 2,0,-1
EndSplineSet
Fore
SplineSet
498.426757812 2090.54394531 m 5
 743.880859375 2090.68652344 l 5
 479.7265625 1726.44335938 l 5
 331.581054688 1726.44335938 l 5
 498.426757812 2090.54394531 l 5
695.047851562 1945.14648438 m 1028
EndSplineSet
Colour: ffff00
EndChar
StartChar: uni0619
Encoding: 1561 1561 291
Width: 0
GlyphClass: 4
Flags: HW
LayerCount: 2
Back
SplineSet
551 2159 m 0,0,1
 577 2166 577 2166 593 2144 c 1,2,3
 607 2123 607 2123 609 2086 c 128,-1,4
 611 2049 611 2049 577 1971 c 1,5,6
 606 1953 606 1953 619 1946 c 128,-1,7
 632 1939 632 1939 622 1919 c 2
 602 1879 l 2,9,10
 594 1861 594 1861 536 1895 c 1,11,12
 444 1776 444 1776 369 1735 c 0,13,14
 335 1717 335 1717 325 1731 c 128,-1,15
 315 1745 315 1745 357 1775 c 0,16,17
 437 1832 437 1832 501 1917 c 1,18,19
 400 1966 400 1966 437 2044 c 0,20,21
 482 2140 482 2140 551 2159 c 0,0,1
540 2049 m 128,-1,23
 528 2071 528 2071 498 2057.5 c 128,-1,24
 468 2044 468 2044 476 2035 c 0,25,26
 492 2016 492 2016 540 1990 c 1,27,22
 552 2027 552 2027 540 2049 c 128,-1,23
EndSplineSet
Fore
SplineSet
533.653381113 2042.57296648 m 0
 533.305083866 2029.28113113 527.490404965 2016.82168917 534.512576762 2005.47608627 c 0
 520.253252471 2026.4590217 490.799840236 2028.21939317 494.322912009 2038.55782809 c 0
 480.235500921 2037.56385935 487.556540913 2038.05983529 498.732946551 2037.25022205 c 0
 522.936614773 2048.54197601 527.940400161 2052.49261792 533.653381113 2042.57296648 c 0
548.612136303 2167.25847933 m 0
 501.823422405 2163.34973604 459.601438146 2113.82263923 430.265665642 2057.38473437 c 0
 394.408219036 1997.03380965 420.480565093 1936.73869031 492.826475706 1913.60442676 c 0
 450.731217428 1866.96562648 404.046645389 1823.73686761 353.693662759 1784.06863655 c 0
 321.013555534 1771.62187378 298.852044057 1742.25045679 312.727955828 1725.96614958 c 0
 320.327809356 1713.6257828 345.265308739 1703.38504019 369.969879612 1719.31467178 c 0
 421.838969825 1748.90409788 482.278476584 1804.93596773 542.932716203 1887.00091011 c 0
 574.319902951 1859.71075795 608.834461709 1858.90107469 618.687093691 1871.03876032 c 0
 633.10724554 1906.36825691 l 0
 648.172856298 1924.88604231 644.139577841 1943.11379738 620.349361602 1960.43613843 c 0
 617.089960725 1959.83322104 609.621989312 1969.47055246 589.369702473 1978.74932396 c 0
 617.938721889 2021.86805193 628.791145945 2054.63292007 622.318816575 2089.65996229 c 0
 629.080987287 2119.69982823 619.816008547 2130.11474663 605.765747935 2145.9872489 c 0
 586.059383895 2169.16393636 575.244958934 2180.1656091 548.612136303 2167.25847933 c 0
546.224549871 2060.958961 m 0
 547.781501651 2069.2554367 522.595298529 2082.05747236 487.781736349 2067.93597653 c 0
 471.770093824 2067.24576364 459.631465929 2043.51638014 457.754216846 2027.04215263 c 0
 477.967355076 2011.74121328 503.68659727 2000.86657258 540.133003644 1972.73591292 c 0
 565.694324769 2017.67149989 558.617404936 2032.03838626 546.224549871 2060.958961 c 0
553.850574261 2145.44604376 m 0
 565.803103293 2152.46866652 574.420252234 2147.63357869 579.208775222 2141.71229659 c 0
 594.817430506 2118.51727542 590.885724666 2102.80498746 593.573011685 2086.81388385 c 0
 601.390375718 2061.33655529 587.863397838 2021.68937429 569.488022429 1961.20488222 c 0
 593.632140603 1951.12884507 596.040321132 1938.96355627 609.45785832 1932.70428379 c 0
 617.226915924 1935.77352054 612.288325029 1935.26356768 612.574301402 1924.7448625 c 0
 582.948414123 1879.03681596 l 0
 588.287901423 1878.34823651 578.615862799 1891.44891487 531.874754238 1903.29079904 c 0
 469.833037232 1825.45120302 407.165195886 1779.63531281 358.012358774 1745.74277259 c 0
 345.960702735 1739.23499833 343.73171041 1738.1279651 335.864542554 1745.62824752 c 0
 336.707860725 1736.93191719 334.661798771 1741.59465313 359.344934441 1759.91488771 c 0
 419.290014077 1804.55980034 474.619410095 1844.58486445 514.807765578 1921.32049528 c 0
 442.729917268 1960.99800681 422.50104057 1986.72164286 451.829857711 2043.96363207 c 0
 480.213045688 2093.55490476 511.163272454 2138.47393216 553.850574261 2145.44604376 c 0
EndSplineSet
Colour: ff0000
EndChar
StartChar: uni061F
Encoding: 424 1567 168
Width: 965
Flags: HW
LayerCount: 2
Back
SplineSet
718.044921875 1062 m 1,0,1
 728.044921875 1202 728.044921875 1202 625.044921875 1270 c 0,2,3
 561.044921875 1312 561.044921875 1312 482.044921875 1311 c 0,4,5
 397.044921875 1309 397.044921875 1309 353.044921875 1257 c 0,6,7
 259.044921875 1148 259.044921875 1148 362.044921875 975 c 0,8,9
 499.044921875 747 499.044921875 747 507.044921875 517 c 0,10,11
 511.044921875 413 511.044921875 413 497.044921875 345 c 0,12,13
 492.044921875 320 492.044921875 320 471.044921875 320 c 0,14,15
 447.044921875 321 447.044921875 321 449.044921875 351 c 0,16,17
 451.044921875 392 451.044921875 392 451.044921875 430 c 0,18,19
 450.044921875 536 450.044921875 536 391.044921875 587 c 0,20,21
 178.044921875 767 178.044921875 767 144.044921875 877 c 1,22,23
 80.044921875 1077 80.044921875 1077 192.044921875 1230 c 0,24,25
 293.044921875 1368 293.044921875 1368 490.044921875 1370 c 0,26,27
 573.044921875 1371 573.044921875 1371 652.044921875 1325 c 0,28,29
 738.044921875 1275 738.044921875 1275 773.044921875 1167 c 0,30,31
 789.044921875 1118 789.044921875 1118 784.044921875 1045 c 128,-1,32
 779.044921875 972 779.044921875 972 764.044921875 939 c 0,33,34
 724.044921875 849 724.044921875 849 641.044921875 850 c 0,35,36
 582.044921875 851 582.044921875 851 549.044921875 890 c 0,37,38
 517.044921875 929 517.044921875 929 517.044921875 974 c 0,39,40
 517.044921875 1020 517.044921875 1020 544.044921875 1056 c 0,41,42
 572.044921875 1093 572.044921875 1093 628.044921875 1095 c 0,43,44
 685.044921875 1097 685.044921875 1097 718.044921875 1062 c 1,0,1
EndSplineSet
Fore
SplineSet
467.296875 1290.56445312 m 4
 719.5078125 1290.56445312 855.181640625 1077.79589844 855.181640625 1077.79589844 c 6
 645.991210938 914.932617188 l 5
 575.3359375 1020.19921875 426.15625 1026.28125 398.341796875 943.731445312 c 4
 383.047851562 898.297851562 403.88671875 862.970703125 434.474609375 809.755859375 c 4
 478.655273438 733.198242188 523.462890625 640.005859375 523.462890625 441.45703125 c 5
 387.877929688 441.45703125 l 5
 387.877929688 511.575195312 359.079101562 575.075195312 253.186523438 688.033203125 c 4
 179.938476562 766.200195312 110 847.85546875 110 964.123046875 c 4
 110 1163.56542969 285.741210938 1290.56445312 467.296875 1290.56445312 c 4
455.044921875 330.735351562 m 4
 546.448242188 330.735351562 620.501953125 256.682617188 620.412109375 165.368164062 c 4
 620.412109375 74.0537109375 546.358398438 0 455.044921875 0 c 4
 363.73046875 0 289.676757812 74.0537109375 289.676757812 165.368164062 c 4
 289.676757812 256.682617188 363.73046875 330.735351562 455.044921875 330.735351562 c 4
EndSplineSet
Colour: ff0000
EndChar
StartChar: uni0621
Encoding: 1569 1569 64
Width: 782
Flags: HW
LayerCount: 2
Back
SplineSet
631 255 m 2,0,1
 622 226 622 226 605 215 c 1,2,3
 451 161 451 161 224 8 c 0,4,5
 204 -5 204 -5 191 8 c 0,6,7
 156 43 156 43 283 149 c 1,8,9
 116 210 116 210 130 312 c 1,10,11
 140 396 140 396 256 530 c 0,12,13
 327 611 327 611 376 611 c 0,14,15
 481 610 481 610 471 496 c 0,16,17
 467 455 467 455 444.5 417.5 c 128,-1,18
 422 380 422 380 393 407 c 0,19,20
 301 495 301 495 261 439 c 0,21,22
 217 376 217 376 333 320 c 0,23,24
 404 286 404 286 498 303 c 0,25,26
 525 308 525 308 562 329.5 c 128,-1,27
 599 351 599 351 624 356 c 1,28,29
 663 362 663 362 647 309 c 2
 631 255 l 2,0,1
EndSplineSet
Fore
SplineSet
643.562689853 255.507138064 m 0
 668.12186017 302.13170542 l 0
 668.568909222 345.953819929 657.744411524 371.975957215 616.040618323 372.998230837 c 0
 609.13674496 360.108267935 579.714926466 350.68556224 548.898600219 345.559489648 c 0
 535.279804393 331.487921668 511.373168242 322.20485166 492.299114869 320.314286533 c 0
 440.442952117 308.941244067 390.827094262 311.129399387 345.93382208 332.945540146 c 0
 268.900797633 364.443152198 250.950681951 396.054625464 279.908526428 425.605217233 c 0
 292.176340808 456.986694893 329.73219278 451.119742994 375.981909666 390.718839024 c 0
 414.412874329 379.558262518 434.599293946 385.745879431 460.915460276 407.540539928 c 0
 475.36446311 436.804256504 486.128927301 463.401324065 485.309471933 488.026107425 c 0
 494.856147621 582.081449474 454.88904954 623.70189565 382.443226973 620.370089666 c 0
 332.765843472 631.532592579 294.189691159 595.459179866 244.603438831 542.758811291 c 0
 171.891836583 446.817187111 118.303353248 378.056760311 115.232868082 309.375893218 c 0
 110.962940282 235.489618408 158.999422169 173.378813605 272.820055791 150.940701059 c 0
 186.554697944 86.3411803047 155.157312327 35.7414779506 181.706878678 -2.78652514448 c 0
 200.210246364 -9.12157721939 210.502850477 -15.5407504088 235.049427921 -2.29693317411 c 0
 385.163201402 95.5927339375 503.957959444 164.300518802 608.666802305 195.505958462 c 0
 631.747819331 206.294148688 633.956316999 231.199839853 643.562689853 255.507138064 c 0
619.938778489 265.51179789 m 0
 612.73563458 239.16818263 599.053213901 230.997120613 597.550061662 224.232057807 c 0
 503.080033192 193.858938997 372.381086213 119.414914123 214.325983119 23.1012122093 c 0
 212.210857145 18.3576543583 207.966439496 11.4773575881 207.826746211 23.3119536812 c 0
 182.087365686 29.0259276752 210.925951588 63.4948544706 298.813779035 145.16976274 c 0
 175.450523524 209.126796912 129.926643436 245.18226703 137.91168372 307.107974315 c 0
 149.985629769 365.268139771 197.187277272 429.128805524 264.274041284 517.536872608 c 0
 318.956470222 578.460120444 343.5813019 589.783446368 377.063181492 593.712355946 c 0
 440.083431614 599.597093541 459.02967428 564.674922893 450.079807115 501.08703249 c 0
 451.197381473 475.276831975 442.208043693 452.540924123 438.518944986 422.108162128 c 0
 424.951765422 400.522861055 420.992179135 399.19078874 409.683079803 420.585810173 c 0
 337.594876065 483.670681544 276.877914284 488.223719813 247.688887918 447.306799509 c 0
 213.338121178 397.445447434 246.883607699 347.447696 328.782241693 301.314594665 c 0
 373.061280794 283.005091343 430.946524666 283.004061231 504.553353289 290.956263724 c 0
 516.545057015 294.91664362 546.409055224 300.949280068 570.606241812 318.487933402 c 0
 599.512813287 326.846739663 607.624739661 343.766229267 626.026643745 343.905121942 c 0
 639.859072949 348.703990016 636.956540957 346.425557023 637.649408864 319.003952761 c 0
 619.938778489 265.51179789 l 0
EndSplineSet
Colour: ff0000
EndChar
StartChar: uni0640
Encoding: 1600 1600 208
Width: 0
Flags: HW
LayerCount: 2
Back
SplineSet
0 185 m 1,0,-1
 0 0 l 1,1,-1
 0 0 l 1,2,-1
 0 185 l 1,3,-1
 0 185 l 1,0,-1
EndSplineSet
Fore
SplineSet
-4.83111246081 170.095631782 m 0
 1.82607349237 -9.79746606914 l 0
 3.70727497204 -15.0369026527 l 0
 -4.83111246081 170.095631782 l 0
3.98370956641 176.07864522 m 0
 4.11279468474 -20.3170186646 l 0
 -5.28827693166 -17.0776057839 l 0
 3.98370956641 176.07864522 l 0
EndSplineSet
Colour: ff0000
EndChar
StartChar: uni064B
Encoding: 486 1611 195
Width: 405
GlyphClass: 4
Flags: W
HStem: 1730.23 437.927
VStem: 50 305.781
AnchorPoint: "TashkilTashkilAbove" 240.899 2170 basemark 0
AnchorPoint: "TashkilAbove" 246 1816 mark 0
AnchorPoint: "TashkilAboveDot" 482.899 1640 mark 0
AnchorPoint: "MarkAbove" 482.899 1640 mark 0
LayerCount: 2
Back
SplineSet
1005.89941406 2073 m 2,0,1
 1071.89941406 2118 1071.89941406 2118 1051.89941406 2056 c 2,2,-1
 1030.89941406 1992 l 2,3,4
 1020.89941406 1960 1020.89941406 1960 996.899414062 1946 c 2,5,-1
 638.899414062 1726 l 2,6,7
 595.899414062 1700 595.899414062 1700 602.899414062 1745 c 2,8,-1
 608.899414062 1784 l 2,9,10
 613.899414062 1812 613.899414062 1812 642.899414062 1832 c 2,11,-1
 1005.89941406 2073 l 2,0,1
997.899414062 2277 m 2,12,13
 1055.89941406 2314 1055.89941406 2314 1041.89941406 2260 c 2,14,-1
 1027.89941406 2208 l 2,15,16
 1018.89941406 2174 1018.89941406 2174 984.899414062 2155 c 2,17,-1
 621.899414062 1944 l 2,18,19
 552.899414062 1904 552.899414062 1904 578.899414062 1964 c 1,20,-1
 596.899414062 2003 l 1,21,22
 608.899414062 2032 608.899414062 2032 628.899414062 2044 c 2,23,-1
 997.899414062 2277 l 2,12,13
EndSplineSet
Fore
SplineSet
50 1730.23144531 m 1
 50 1810.42675781 l 1
 355.78125 2029.58398438 l 1
 355.78125 1949.38964844 l 1
 50 1730.23144531 l 1
50 1949 m 5
 355.78125 2168.15820312 l 5
 355.78125 2087.96289062 l 5
 50 1868.80566406 l 5
 50 1949 l 5
EndSplineSet
Colour: ffff00
EndChar
StartChar: uni064C
Encoding: 488 1612 231
Width: 497
GlyphClass: 4
Flags: HW
LayerCount: 2
Back
SplineSet
356 2266 m 0,0,1
 385 2263 385 2263 398 2220 c 128,-1,2
 411 2177 411 2177 409 2132.5 c 128,-1,3
 407 2088 407 2088 393 2044 c 1,4,5
 427 2024 427 2024 443 2014 c 128,-1,6
 459 2004 459 2004 457 1994 c 2,7,-1
 443 1927 l 2,8,9
 436 1895 436 1895 393 1922 c 0,10,11
 358 1944 358 1944 345 1955 c 1,12,13
 257 1790 257 1790 70 1736 c 0,14,15
 23 1722 23 1722 18 1751 c 1,16,17
 12 1779 12 1779 61 1794 c 0,18,19
 231 1844 231 1844 306 1982 c 1,20,21
 235 2034 235 2034 225 2064 c 128,-1,22
 215 2094 215 2094 233 2147.5 c 128,-1,23
 251 2201 251 2201 284.5 2235.5 c 128,-1,24
 318 2270 318 2270 356 2266 c 0,0,1
337 2140 m 0,25,26
 315 2166 315 2166 276 2144 c 0,27,28
 258 2134 258 2134 281 2116 c 0,29,30
 315 2089 315 2089 343 2076 c 0,31,32
 351 2073 351 2073 349 2105 c 0,33,34
 347 2129 347 2129 337 2140 c 0,25,26
182 2073 m 0,35,36
 198 2076 198 2076 189 2048 c 2,37,-1
 172 1995 l 2,38,39
 161 1961 161 1961 125 1971 c 1,40,41
 90 1982 90 1982 71 2032 c 0,42,43
 53 2082 53 2082 65 2134 c 0,44,45
 87 2229 87 2229 169 2318 c 0,46,47
 356 2524 356 2524 437 2484 c 0,48,49
 466 2470 466 2470 469 2431 c 1,50,51
 471 2390 471 2390 446 2349 c 0,52,53
 424 2314 424 2314 393 2344 c 0,54,55
 338 2398 338 2398 259 2340 c 1,56,57
 189 2290 189 2290 157 2240 c 0,58,59
 119 2182 119 2182 116.5 2146 c 128,-1,60
 114 2110 114 2110 136 2089 c 0,61,62
 156 2069 156 2069 182 2073 c 0,35,36
EndSplineSet
Fore
SplineSet
359.877929688 1980.15625 m 5
 387.982421875 1973.20019531 l 5
 387.704101562 1861.6171875 l 6
 387.147460938 1861.6171875 346.243164062 1863.56542969 316.747070312 1870.79980469 c 5
 277.791015625 1806.52148438 221.860351562 1748.64355469 110 1730 c 5
 110 1821.26953125 l 5
 168.15625 1831.00878906 214.34765625 1852.15625 244.12109375 1893.6171875 c 5
 157.58203125 1927.28710938 152.017578125 1974.86914062 153.129882812 1996.29589844 c 4
 156.469726562 2062.52148438 236.608398438 2167.98242188 309.512695312 2152.12109375 c 4
 364.330078125 2140.15625 402.452148438 2079.7734375 359.877929688 1980.15625 c 5
301.165039062 1996.57324219 m 5
 320.365234375 2051.390625 295.599609375 2080.33007812 270.556640625 2077.82617188 c 4
 249.686523438 2075.59960938 233.826171875 2061.12988281 232.434570312 2045.54785156 c 4
 229.374023438 2007.98242188 301.165039062 1996.57324219 301.165039062 1996.57324219 c 5
157.860351562 1855.21679688 m 4
 130.3125 1856.88671875 114.173828125 1877.20019531 111.112304688 1902.79980469 c 4
 106.3828125 1942.3125 125.303710938 1970.13867188 141.165039062 1986.27832031 c 5
 141.165039062 1986.27832031 123.078125 1920.60839844 196.817382812 1890.55664062 c 5
 192.086914062 1867.18261719 175.390625 1854.10449219 157.860351562 1855.21679688 c 4
482.139648438 2432.26953125 m 1024
EndSplineSet
Colour: ff0000
EndChar
StartChar: uni064E
Encoding: 1614 1614 235
Width: 0
GlyphClass: 4
Flags: HW
LayerCount: 2
Back
SplineSet
724 2092 m 1,0,1
 776 2123 776 2123 761 2071 c 2
 741 2004 l 2,3,4
 734 1979 734 1979 697 1956 c 1
 298 1726 l 2,6,7
 262 1706 262 1706 262 1745 c 1
 263 1779 l 2,9,10
 264 1799 264 1799 298 1826 c 1
 724 2092 l 1,0,1
EndSplineSet
Fore
SplineSet
713.192462778 2105.88461735 m 0
 284.713508235 1839.10044473 l 0
 258.321555412 1822.27342623 249.769787617 1794.70655848 243.463817868 1784.62598871 c 0
 240.962678968 1747.51225286 l 0
 247.966929281 1715.96946736 279.80460486 1698.77524641 302.340633903 1718.20548693 c 0
 711.646999863 1949.09142432 l 0
 732.102290392 1954.07781543 748.943136059 1979.28770757 751.001773089 2000.03734996 c 0
 779.714950824 2059.9860718 l 0
 777.982246227 2105.78790837 762.242393455 2133.84660828 713.192462778 2105.88461735 c 0
729.461996315 2077.97168256 m 0
 752.236432685 2094.04158223 761.385304715 2106.58034187 743.106987153 2070.19680271 c 0
 720.216105965 2003.35082403 l 0
 717.358884579 1995.76646498 717.002330037 1987.59754153 685.887475896 1973.06921407 c 0
 285.332678507 1742.4552648 l 0
 278.966495206 1733.93868198 278.774589317 1726.18673937 271.585776115 1746.78876287 c 0
 274.779309982 1779.2854122 l 0
 278.961054493 1790.3685811 285.627407782 1800.9706341 302.221721753 1813.61437088 c 0
 729.461996315 2077.97168256 l 0
EndSplineSet
Colour: ff0000
EndChar
StartChar: uni064F
Encoding: 1615 1615 236
Width: 0
GlyphClass: 4
Flags: HW
LayerCount: 2
Back
SplineSet
636 2348 m 0,0,1
 671 2353 671 2353 695 2315 c 0,2,3
 746 2236 746 2236 694 2101 c 1,4,5
 727 2082 727 2082 742 2075 c 1,6,7
 770 2064 770 2064 754 2034 c 2
 731 1990 l 2,9,10
 720 1968 720 1968 700.5 1975.5 c 128,-1,11
 681 1983 681 1983 645 2003 c 1,12,13
 504 1816 504 1816 324 1726 c 0,14,15
 284 1705 284 1705 270 1731 c 0,16,17
 254 1761 254 1761 299 1786 c 1,18,19
 484 1894 484 1894 592 2033 c 1,20,21
 534 2063 534 2063 506 2091 c 1,22,23
 456 2138 456 2138 479 2191 c 0,24,25
 538 2333 538 2333 636 2348 c 0,0,1
615 2215 m 1,26,27
 569 2257 569 2257 541 2210 c 1,28,29
 533 2199 533 2199 551.5 2179.5 c 128,-1,30
 570 2160 570 2160 636 2128 c 1,31,32
 645 2189 645 2189 615 2215 c 1,26,27
EndSplineSet
Fore
SplineSet
607.855762891 2205.16037019 m 0
 624.25983645 2193.38311614 631.000120455 2170.78853352 633.039140161 2141.58572622 c 0
 596.239048313 2157.56831763 580.251760999 2181.54963433 566.781775967 2194.7288485 c 0
 555.386917563 2206.13484674 556.752028024 2202.52970886 560.31234415 2200.68414094 c 0
 568.496676109 2223.20043524 574.268542463 2229.53132078 607.855762891 2205.16037019 c 0
635.690988595 2369.61104039 m 0
 568.964507357 2352.16090359 507.328498766 2292.15530094 465.541091498 2202.91738295 c 0
 455.312476261 2162.76575421 452.858276562 2116.16301394 489.700589473 2077.71008396 c 0
 518.552851912 2064.60165347 550.458766062 2035.2172331 574.446067475 2034.99461966 c 0
 509.123973735 1946.53990474 410.011566202 1864.47279505 289.557191291 1802.78516484 c 0
 264.184632201 1782.828188 248.660066375 1747.12278847 254.350755515 1718.83605549 c 0
 274.143221176 1694.43883413 304.943116853 1696.44371536 337.468284827 1710.56352823 c 0
 453.372723431 1773.91578027 568.077210781 1870.23036826 653.93369191 1992.38561999 c 0
 659.884664978 1970.02447768 679.014067375 1962.09836725 692.706960228 1965.40968943 c 0
 717.092258825 1951.88328616 727.628129178 1959.46314056 744.352005483 1988.77703212 c 0
 763.801961913 2020.33111142 l 0
 777.649584597 2059.18525083 765.832076793 2074.57123549 749.555319511 2094.25226674 c 0
 732.309963271 2097.34821151 724.043181753 2099.07155227 710.662528615 2109.25721019 c 0
 741.420389209 2189.10771058 740.334635286 2262.5021198 713.364664197 2318.87698688 c 0
 691.267838835 2347.18483407 667.763563999 2361.47868645 635.690988595 2369.61104039 c 0
627.170951578 2220.53651705 m 0
 596.249408434 2256.65424916 554.349143361 2252.54566042 523.458449651 2214.60893361 c 0
 514.454465916 2200.92962027 520.25001316 2190.16140826 543.082326324 2164.90823714 c 0
 560.8011511 2150.73274485 584.498718342 2134.47907461 649.111781517 2116.97990956 c 0
 652.825329623 2171.83054793 644.600787857 2205.20992995 627.170951578 2220.53651705 c 0
633.711451367 2331.50354729 m 0
 651.415617597 2343.09014058 666.821356269 2329.25979856 682.912693853 2305.38751855 c 0
 709.473183358 2253.42650587 710.493875889 2197.68789012 678.793608865 2098.54583842 c 0
 703.835402067 2074.06690886 723.241362679 2067.30133132 736.946250095 2057.78747108 c 0
 747.263325852 2060.6714835 756.020842244 2054.50213402 747.281453566 2039.98924163 c 0
 713.378726997 1997.65995499 l 0
 712.314172308 1986.23893149 711.27211623 1983.46393684 709.014388648 1990.09449895 c 0
 698.981486639 1997.41065253 680.835735916 2005.69102002 640.690651328 2012.09568733 c 0
 543.308022355 1886.27238335 432.760663783 1801.99044146 318.466814578 1744.02215383 c 0
 299.200256181 1720.82620596 281.986930374 1725.03025532 282.940996058 1740.04871584 c 0
 271.534415193 1746.99692081 283.972602884 1763.82307691 309.777323002 1774.90226789 c 0
 436.801207492 1848.87700147 529.933812108 1927.67063351 601.992175753 2041.1833913 c 0
 562.169047105 2069.51041996 537.381629246 2089.72216566 515.69305459 2099.74899519 c 0
 488.432516355 2132.19322984 477.940353954 2152.98677731 487.095928343 2184.58191817 c 0
 537.764417983 2283.55441852 574.863296709 2319.56497213 633.711451367 2331.50354729 c 0
EndSplineSet
Colour: ff0000
EndChar
StartChar: uni0651
Encoding: 492 1617 235
Width: 498
GlyphClass: 4
Flags: HW
AnchorPoint: "TashkilTashkilBelow" 405 1640 basemark 0
AnchorPoint: "TashkilTashkilAbove" 410 2054 basemark 0
AnchorPoint: "TashkilAboveDot" 427 1640 mark 0
AnchorPoint: "TashkilAbove" 427 1640 mark 0
AnchorPoint: "MarkAbove" 427 1640 mark 0
LayerCount: 2
Back
SplineSet
612 2014 m 0,0,1
 617 2059 617 2059 643 2057 c 0,2,3
 674 2055 674 2055 671 2014 c 0,4,5
 664 1904 664 1904 630 1830 c 0,6,7
 591 1743 591 1743 516 1737 c 0,8,9
 468 1733 468 1733 425 1786 c 1,10,11
 396 1735 396 1735 349 1710 c 0,12,13
 298 1683 298 1683 248 1703 c 0,14,15
 128 1751 128 1751 221 1991 c 0,16,17
 236 2028 236 2028 265 2016 c 0,18,19
 288 2006 288 2006 278 1970 c 0,20,21
 245 1851 245 1851 308 1842 c 0,22,23
 385 1832 385 1832 430 2007 c 0,24,25
 439 2041 439 2041 462 2036 c 0,26,27
 488 2030 488 2030 483 2006 c 1,28,29
 466 1901 466 1901 533 1900 c 128,-1,30
 600 1899 600 1899 612 2014 c 0,0,1
EndSplineSet
Fore
SplineSet
196.5390625 1730 m 4
 138.661132812 1730 110 1776.46875 110 1833.51269531 c 6
 110 1874.13867188 l 5
 164.260742188 1912.5390625 l 5
 164.260742188 1876.64355469 l 6
 164.260742188 1860.22558594 176.782226562 1847.14746094 192.086914062 1847.14746094 c 4
 207.391601562 1847.14746094 219.913085938 1860.50390625 219.913085938 1876.64355469 c 6
 219.913085938 1952.60839844 l 5
 270 1989.06054688 l 5
 270 1957.06054688 l 6
 270 1940.64355469 282.521484375 1927.56445312 297.826171875 1927.56445312 c 4
 313.130859375 1927.56445312 325.65234375 1940.92089844 325.65234375 1957.06054688 c 6
 325.65234375 2027.18261719 l 5
 388.260742188 2073.37402344 l 5
 388.260742188 1912.81738281 l 6
 388.260742188 1856.05175781 355.704101562 1809.58203125 302.556640625 1809.58203125 c 4
 293.65234375 1809.58203125 287.251953125 1810.6953125 281.409179688 1812.64355469 c 5
 275.565429688 1768.39941406 244.400390625 1730 196.5390625 1730 c 4
EndSplineSet
Colour: ffff00
EndChar
StartChar: uni0652
Encoding: 1618 1618 239
Width: 0
GlyphClass: 4
Flags: HW
LayerCount: 2
Back
SplineSet
239 2016 m 0,0,1
 321 2166 321 2166 450 2067 c 0,2,3
 534 2003 534 2003 540 1912 c 0,4,5
 547 1801 547 1801 473 1749 c 0,6,7
 419 1712 419 1712 340 1718 c 0,8,9
 175 1729 175 1729 207 1923 c 0,10,11
 216 1974 216 1974 239 2016 c 0,0,1
457 1861 m 0,12,13
 516 1877 516 1877 455 1939 c 0,14,15
 411 1983 411 1983 347 1984 c 0,16,17
 269 1986 269 1986 266 1918 c 0,18,19
 265 1874 265 1874 300 1862 c 0,20,21
 371 1837 371 1837 457 1861 c 0,12,13
EndSplineSet
Fore
SplineSet
453.677303876 1881.81887924 m 0
 396.492531232 1858.24629946 348.976380873 1866.82285202 302.454191981 1878.99750794 c 0
 280.565408917 1879.94160637 279.877281343 1896.9925139 283.128114822 1911.75233237 c 0
 285.90169413 1959.48300462 304.641326895 1978.06107017 353.515631421 1966.20284421 c 0
 387.541910219 1965.95710603 411.047700715 1953.0483823 438.357981573 1923.83699105 c 0
 480.181165696 1893.00538267 481.487638936 1885.92611499 453.677303876 1881.81887924 c 0
219.585501985 2023.44604473 m 0
 203.399397142 1987.30686363 193.806675883 1966.41329021 193.724385282 1922.35574393 c 0
 174.467546664 1794.40540831 224.196527613 1715.84634717 338.112878743 1708.91673568 c 0
 389.53498034 1703.43914668 440.777932554 1713.76643215 486.015608614 1739.85973761 c 0
 532.316121744 1772.01623494 553.97591161 1837.90111587 553.872555744 1913.98759234 c 0
 546.826071823 1971.23464654 511.401254908 2038.66828279 455.900966839 2083.07010359 c 0
 360.529404323 2147.54585626 287.825965556 2124.14232813 219.585501985 2023.44604473 c 0
455.823419062 1851.64726484 m 0
 513.154861829 1863.59553997 503.298526862 1905.22776322 460.154134454 1948.15191938 c 0
 430.805281188 1984.03671281 397.840010744 2000.93180324 351.339630037 1996.49652752 c 0
 283.863204375 2005.40999601 257.574453341 1974.80930107 250.494995809 1922.22827079 c 0
 257.094533135 1890.11613227 261.060190269 1865.30224942 297.976759258 1845.73862166 c 0
 344.805471945 1827.80382515 397.755956259 1830.77828542 455.823419062 1851.64726484 c 0
257.142151604 2007.93700644 m 0
 308.292062617 2097.17994507 361.2959538 2120.60408544 447.218124629 2057.58257494 c 0
 499.051981902 2018.74276141 525.350462042 1962.34763242 525.493019109 1916.2762727 c 0
 529.107222831 1834.2946415 508.430929547 1789.44817179 464.379004067 1763.65081648 c 0
 436.128734479 1741.29176827 391.183342386 1725.30969733 344.323967916 1733.44556341 c 0
 243.795987504 1734.56040035 201.790329955 1796.81015166 223.835467075 1923.30441428 c 0
 225.545423464 1956.90702268 235.242094122 1981.06508314 257.142151604 2007.93700644 c 0
EndSplineSet
Colour: ff0000
EndChar
StartChar: uni0653
Encoding: 1619 1619 199
Width: 0
VWidth: 2738
GlyphClass: 4
Flags: HW
AnchorPoint: "MarkAbove" -1 1570 mark 0
AnchorPoint: "TashkilAbove" 0 1640 mark 0
LayerCount: 2
Back
SplineSet
401 1868 m 0,0,1
 439 1878 439 1878 450.5 1846 c 128,-1,2
 462 1814 462 1814 433 1795 c 0,3,4
 213 1650 213 1650 -282 1665 c 1,5,6
 -300 1624 -300 1624 -318.5 1603.5 c 128,-1,7
 -337 1583 -337 1583 -349 1596 c 2,8,-1
 -444 1693 l 1,9,10
 -472 1719 -472 1719 -380 1825 c 0,11,12
 -363 1844 -363 1844 -323 1837 c 0,13,14
 41 1778 41 1778 401 1868 c 0,0,1
EndSplineSet
Fore
SplineSet
-174.446289062 1901.55371094 m 4
 -155.486328125 1890.91113281 34.029296875 1749.33300781 332.74609375 1867.12109375 c 5
 356 1753 l 5
 73.0234375 1511.07519531 -295.095703125 1736.09667969 -295.095703125 1736.09667969 c 5
 -344.107421875 1662.31152344 l 5
 -416.103515625 1733.05566406 l 5
 -416.103515625 1733.05566406 -341.692382812 1840.55859375 -341.602539062 1840.73730469 c 4
 -262.719726562 1958.16699219 -193.854492188 1912.46484375 -174.446289062 1901.55371094 c 4
EndSplineSet
Colour: ffff00
EndChar
StartChar: uni0654
Encoding: 1620 1620 197
Width: 0
GlyphClass: 4
Flags: HW
LayerCount: 2
Back
SplineSet
151 984 m 0,0,1
 40 962 40 962 -6 947.5 c 128,-1,2
 -52 933 -52 933 -179 877 c 0,3,4
 -206 866 -206 866 -218 884 c 0,5,6
 -243 921 -243 921 -138 986 c 1,7,8
 -214 1024 -214 1024 -223 1072 c 0,9,10
 -239 1155 -239 1155 -154 1273 c 1,11,12
 -68 1390 -68 1390 29 1382 c 0,13,14
 91 1377 91 1377 84.5 1312.5 c 128,-1,15
 78 1248 78 1248 48 1206 c 128,-1,16
 18 1164 18 1164 -3 1197 c 128,-1,17
 -24 1230 -24 1230 -64.5 1234 c 128,-1,18
 -105 1238 -105 1238 -128 1211 c 128,-1,19
 -151 1184 -151 1184 -124 1158 c 0,20,21
 -56 1094 -56 1094 75 1090 c 0,22,23
 96 1090 96 1090 138 1100 c 128,-1,24
 180 1110 180 1110 196.5 1109.5 c 128,-1,25
 213 1109 213 1109 220.5 1096.5 c 128,-1,26
 228 1084 228 1084 223 1073 c 0,27,28
 184 991 184 991 151 984 c 0,0,1
EndSplineSet
Fore
SplineSet
151.893331377 976.010025706 m 0
 185.004320334 978.575730399 208.115985105 1004.71756034 232.076704876 1063.35948339 c 0
 248.033764037 1073.07692048 243.997731973 1088.95616452 240.0085574 1110.75696419 c 0
 223.327201126 1110.80747399 207.207931942 1124.7960045 194.275192681 1125.39763481 c 0
 179.788619416 1119.4687732 161.614664727 1116.95695025 128.200506149 1116.24989157 c 0
 109.832288144 1105.53268321 82.6395886957 1102.61299843 78.5463180501 1107.83365089 c 0
 -7.14879586991 1111.432548 -65.4352650279 1131.43102516 -117.28852096 1166.88400898 c 0
 -134.210499774 1185.26547047 -132.619123806 1183.58963824 -119.327337168 1200.04863507 c 0
 -107.248776815 1216.85654921 -89.9101829347 1219.10577498 -63.4711524237 1221.09780739 c 0
 -36.8501193913 1219.90214337 -33.0395518587 1213.50536038 -13.2799152828 1188.85328582 c 0
 9.72506671939 1161.89404665 33.2351114826 1168.22028333 59.4646461111 1194.1268364 c 0
 82.1879391704 1227.2235456 99.1569479201 1260.35144307 101.307597032 1317.04176391 c 0
 105.161887444 1357.41853193 75.9953778456 1393.12133651 31.2993508498 1391.44431671 c 0
 -34.2931285698 1407.51596626 -104.808993973 1360.24233078 -164.300952148 1284.74162502 c 0
 -222.625299084 1204.28778029 -253.558274416 1131.94342257 -234.141603096 1063.57552569 c 0
 -232.904799311 1028.87511607 -200.650552491 998.416791985 -153.696688152 981.253482403 c 0
 -212.328391326 950.045751893 -247.41510711 909.652524587 -231.391996117 879.515265475 c 0
 -218.884126236 854.151774894 -188.514224418 850.469672606 -169.6898955 856.83602773 c 0
 -88.4383370645 902.649645513 -35.6280068944 917.578796735 -3.00789808233 939.949794239 c 0
 31.4065405239 943.543395919 85.6881092846 959.737633856 151.893331377 976.010025706 c 0
141.016611709 995.381349191 m 0
 67.953111581 981.300787901 23.9546705405 967.804838256 -17.205162977 955.852643615 c 0
 -36.8386403784 946.180639478 -98.6360468277 924.995591874 -181.517278848 894.450929641 c 0
 -196.919296029 878.938695347 -199.341574981 880.822648943 -205.212802286 889.403345051 c 0
 -223.785963124 903.171430977 -201.643751487 932.416474459 -126.357837556 985.162317738 c 0
 -183.696188542 1017.55154228 -203.217553575 1047.72023719 -202.729235937 1072.44865491 c 0
 -214.246033644 1126.96803734 -198.369572588 1191.80423468 -136.592551999 1264.65280008 c 0
 -88.35270053 1339.1366045 -32.8789212735 1369.38831671 20.8561883607 1368.83554224 c 0
 64.6285863542 1359.46039168 67.49412145 1349.21056769 74.1762006834 1310.67690144 c 0
 70.5986447172 1275.57443093 56.1282777835 1234.63923661 38.1158012897 1217.6717031 c 0
 14.8372965581 1189.12139593 12.6990065895 1186.2600454 9.12060175502 1210.2420201 c 0
 -10.6966011227 1228.18004808 -38.6137059881 1245.43907491 -57.3725733151 1248.74749719 c 0
 -90.1936931607 1251.17603515 -127.301280232 1244.78127727 -139.926817709 1220.81493087 c 0
 -153.581963588 1198.5017607 -149.406852583 1164.49870556 -136.150654274 1152.95800538 c 0
 -81.246884279 1102.42475933 -19.4122656968 1070.95832894 68.3757018385 1077.81309084 c 0
 86.506705584 1078.54618298 107.782579717 1083.30305406 143.786990214 1087.35001907 c 0
 163.791305093 1098.29760305 186.041981838 1095.24009729 196.24561136 1101.49636523 c 0
 203.719074838 1099.97478931 209.858656974 1099.16137195 213.457374238 1093.68289779 c 0
 205.399761207 1081.47839528 211.457088697 1080.80746146 215.196973691 1086.31914391 c 0
 188.405212005 1026.94904541 161.926956142 1000.42162625 141.016611709 995.381349191 c 0
EndSplineSet
Colour: ff0000
EndChar
StartChar: uni0658
Encoding: 1624 1624 4625
Width: 0
GlyphClass: 4
Flags: HW
LayerCount: 2
Back
SplineSet
302 2067 m 0,0,1
 316 2089 316 2089 329.5 2088 c 128,-1,2
 343 2087 343 2087 339 2061 c 0,3,4
 318 1894 318 1894 442 1879 c 0,5,6
 482 1874 482 1874 512 1918 c 0,7,8
 534 1950 534 1950 545 1944.5 c 128,-1,9
 556 1939 556 1939 547 1906 c 1,10,11
 492 1728 492 1728 375 1727 c 0,12,13
 246 1726 246 1726 236 1852 c 1,14,15
 229 1957 229 1957 302 2067 c 0,0,1
EndSplineSet
Fore
SplineSet
284.629630552 2074.97634294 m 0
 238.295797353 2005.71572435 213.180635846 1916.98265943 219.861925364 1854.73299535 c 0
 226.756802311 1760.99485123 280.314375272 1706.86755368 380.854630517 1712.22472278 c 0
 457.340739982 1707.94692424 528.965421685 1785.74924975 559.882135843 1898.66503499 c 0
 566.611206396 1932.70129668 564.882117402 1943.6317574 550.94252955 1951.55237457 c 0
 536.464590546 1969.82549563 515.799833632 1945.6760943 502.074536977 1932.28697067 c 0
 479.868650902 1903.50978153 469.133293643 1889.65897073 438.001219838 1896.07378619 c 0
 374.248534251 1904.55318811 334.872391708 1950.32263619 354.224924581 2064.99489229 c 0
 358.683003718 2076.93576287 353.785937984 2102.57127533 333.085213353 2099.77769462 c 0
 315.333003601 2104.06330377 300.048708188 2096.03981284 284.629630552 2074.97634294 c 0
314.759927698 2062.24089196 m 0
 326.357616934 2074.84833182 330.340130269 2071.21672677 323.773278472 2073.36307035 c 0
 326.429587902 2079.24511414 332.768770052 2082.21953549 327.351202341 2066.96698071 c 0
 316.136390665 1953.68818801 344.753894084 1871.22447271 440.302682615 1861.91143252 c 0
 465.035480719 1865.21493513 508.977259277 1876.31340127 524.092680309 1915.3773872 c 0
 540.947550022 1930.38312238 537.513200356 1929.96907127 536.550777537 1933.10811519 c 0
 536.395552604 1928.05760448 532.202030116 1929.68601885 530.062857365 1913.34102506 c 0
 492.888808672 1797.54970733 444.751380939 1740.37492976 376.84913425 1743.54838821 c 0
 300.752996925 1737.48348893 255.20338415 1768.18783476 245.390473879 1849.75532519 c 0
 247.86535316 1918.6168953 268.031221607 1990.97792921 314.759927698 2062.24089196 c 0
EndSplineSet
Colour: ff0000
EndChar
StartChar: uni0659
Encoding: 1625 1625 4622
Width: 0
GlyphClass: 4
Flags: HW
LayerCount: 2
Back
SplineSet
270 1730 m 1,0,1
 208 1729 208 1729 248 1767 c 2
 300 1815 l 2,3,4
 320 1833 320 1833 362 1834 c 1
 842 1834 l 1,6,7
 904 1835 904 1835 864 1797 c 2
 812 1749 l 2,9,10
 792 1731 792 1731 750 1730 c 1
 270 1730 l 1,0,1
EndSplineSet
Fore
SplineSet
276.552301638 1716.35357397 m 0
 745.007727636 1713.94622792 l 0
 776.251593434 1719.60608192 808.520111996 1727.01571915 828.184245051 1732.89871127 c 0
 868.132891298 1790.52264129 l 0
 904.819219907 1823.22136372 890.768620607 1843.40321758 845.075148553 1854.67152391 c 0
 363.428695095 1852.30855257 l 0
 332.303059653 1846.52538351 301.656962156 1846.87873686 284.298802974 1820.73960509 c 0
 243.426032087 1772.34958925 l 0
 210.102033574 1743.77307901 215.353192529 1715.99911851 276.552301638 1716.35357397 c 0
271.550196809 1746.06866749 m 0
 239.475600759 1737.67023605 237.895226755 1744.98464983 262.536832557 1750.74846241 c 0
 311.832233611 1801.67393486 l 0
 315.013914652 1810.20988276 337.138657188 1813.13586877 366.15676055 1817.18139095 c 0
 848.704733391 1824.39405827 l 0
 871.688491886 1827.9830959 876.827349625 1825.95252145 853.25489289 1812.7568555 c 0
 807.949451708 1754.0361236 l 0
 788.910214465 1748.82832212 774.234499984 1748.99137777 753.025456606 1749.92603278 c 0
 271.550196809 1746.06866749 l 0
EndSplineSet
Colour: ff0000
EndChar
StartChar: uni065A
Encoding: 1626 1626 209
Width: 0
GlyphClass: 4
Flags: HW
LayerCount: 2
Back
SplineSet
142 1307 m 2
 180 1251 l 2,1,2
 187 1240 187 1240 187 1232 c 0,3,4
 187 1222 187 1222 180 1213 c 1,5,6
 80 1047 80 1047 45 926 c 1
 26 912 l 2,8,9
 22 909 22 909 17 909 c 0,10,11
 9 909 9 909 1 919 c 0,12,13
 -116 1063 -116 1063 -182 1227 c 0,14,15
 -188 1241 -188 1241 -188 1251 c 0,16,17
 -188 1269 -188 1269 -169 1275 c 0,18,19
 -144 1283 -144 1283 -131 1249 c 0,20,21
 -103 1174 -103 1174 -25 1043 c 1,22,23
 17 1195 17 1195 105 1302 c 0,24,25
 117 1316 117 1316 127 1316 c 0,26,27
 136 1316 136 1316 142 1307 c 2
EndSplineSet
Fore
SplineSet
149.393206079 1321.6896998 m 0
 142.207521937 1319.36721818 136.168563419 1328.4608683 131.06200332 1330.22651506 c 0
 115.624389988 1332.17582133 108.440953553 1319.45551359 89.7657774505 1309.16997009 c 0
 34.6650384842 1234.95611537 -16.080447447 1142.81482206 -24.0767581507 1061.72323543 c 0
 -62.842641445 1141.31881409 -97.7618873717 1210.10074222 -116.550312615 1260.75355951 c 0
 -130.821670457 1281.4193573 -149.895319237 1295.88497266 -180.22011008 1286.79349763 c 0
 -192.922883438 1282.22199206 -204.001098033 1272.60670925 -208.061531864 1255.88511532 c 0
 -203.56978498 1241.34030708 -199.753088834 1238.33642631 -197.839643835 1225.02968119 c 0
 -147.38895066 1115.59877347 -92.9703642472 1001.86880086 -12.2442784771 904.48457151 c 0
 2.86634746201 899.378032284 14.5062865065 899.199921267 23.4875148429 890.274566871 c 0
 27.7020204513 901.186815992 23.592551272 900.716935246 32.149115858 897.597866329 c 0
 53.296602284 915.944059081 l 0
 85.150482866 1002.78138879 130.120373403 1095.96732891 195.849868647 1204.63975939 c 0
 194.702667105 1214.59503556 202.20508855 1221.36876049 202.6336701 1237.79387501 c 0
 206.967409909 1235.36230062 204.81402126 1253.31385718 196.228455398 1255.64654235 c 0
 149.393206079 1321.6896998 l 0
123.900601953 1305.44567837 m 0
 167.822519103 1247.78009318 l 0
 176.958247157 1233.89078025 166.445160441 1236.55500343 167.959263648 1229.09958801 c 0
 165.591190505 1227.81203524 168.150720507 1226.99603487 173.341136938 1219.83449034 c 0
 95.2157620701 1113.235657 48.9538791776 1005.53042122 37.03959864 937.801144885 c 0
 13.8265965233 930.303878599 l 0
 17.6304809373 925.292653241 18.2812123622 923.755906674 13.9006106307 918.801641015 c 0
 17.6840993318 924.577467511 10.847717659 919.863520049 8.14295540607 930.227890657 c 0
 -64.8940609673 1018.72579523 -121.566241218 1124.3510978 -163.845853613 1227.42429523 c 0
 -170.79394557 1245.23855076 -179.045350977 1249.04848469 -177.724340615 1257.68928477 c 0
 -171.639389989 1257.4313318 -174.162873132 1255.47369144 -171.207930116 1259.0472936 c 0
 -153.206687474 1269.29697334 -151.580107572 1260.56976548 -141.763463795 1249.76971314 c 0
 -131.11141937 1187.69219555 -94.9038281761 1124.76929789 -17.8429017794 1021.64407692 c 0
 12.2843000397 1135.5626591 63.1932283682 1222.1595806 120.000225127 1299.09863619 c 0
 126.387135946 1296.91066905 130.472358117 1302.52574243 122.276918786 1302.96124665 c 0
 131.27742809 1294.95244657 129.708312478 1302.46713737 123.900601953 1305.44567837 c 0
EndSplineSet
Colour: ff0000
EndChar
StartChar: uni065B
Encoding: 1627 1627 244
Width: 0
GlyphClass: 4
Flags: HW
LayerCount: 2
Back
SplineSet
158 937 m 2,0,1
 153 927 153 927 144 927 c 1,2,3
 134 925 134 925 121 938 c 0,4,5
 22 1035 22 1035 -36 1182 c 1,6,7
 -99 1044 -99 1044 -119 966 c 0,8,9
 -128 931 -128 931 -154 936 c 0,10,11
 -174 940 -174 940 -176 958 c 0,12,13
 -176 967 -176 967 -172 982 c 0,14,15
 -124 1152 -124 1152 -23 1308 c 0,16,17
 -16 1319 -16 1319 -8 1320 c 0,18,19
 -3 1321 -3 1321 1 1318 c 2
 21 1306 l 1,21,22
 69 1189 69 1189 186 1035 c 1,23,24
 194 1027 194 1027 195 1017 c 0,25,26
 196 1009 196 1009 190 997 c 2
 158 937 l 2,0,1
EndSplineSet
Fore
SplineSet
164.677033664 936.350170074 m 0
 205.213792292 993.293865058 l 0
 202.908576708 1002.26983236 208.163860083 1013.97441529 204.142882316 1022.8936214 c 0
 209.755195666 1022.77090737 209.306060938 1033.34688106 197.443443444 1045.59212987 c 0
 125.82218355 1150.05750021 68.389979398 1230.43742487 31.1696218783 1318.49222824 c 0
 2.61079205018 1326.24007301 l 0
 4.8694512682 1338.86483529 -3.47887120954 1330.43710032 -13.7285458948 1340.02384601 c 0
 -21.1583673938 1326.86205678 -22.9074539627 1330.09751676 -30.0844168427 1310.46758792 c 0
 -105.276383689 1209.27308372 -150.903287267 1103.42530288 -185.522010843 984.752595794 c 0
 -184.292841635 980.004881254 -186.228884838 971.945644371 -187.496271721 951.099304494 c 0
 -187.18296941 934.386829278 -175.327819193 922.81629667 -153.400287378 923.609564015 c 0
 -126.426361262 912.709025045 -117.850796813 933.507312427 -100.382082064 965.645827301 c 0
 -98.3084967835 1014.67871842 -66.7319882186 1083.26901101 -32.819540748 1171.25884082 c 0
 -16.8331385461 1079.31471217 44.7778538138 993.201158357 107.377428333 924.365905305 c 0
 118.632144201 913.254983641 128.986633427 914.597165193 141.035981668 914.201573929 c 0
 149.799393772 913.981217576 171.947746044 919.986741958 164.677033664 936.350170074 c 0
141.404533152 939.02391203 m 0
 143.36926245 942.306698993 150.57015886 939.030495155 142.556280033 935.110582623 c 0
 135.526346726 936.233601096 141.985540002 936.580213825 137.647911964 955.136305244 c 0
 69.1132934526 1008.06529055 17.7270419969 1086.75810797 -39.009671546 1195.86056877 c 0
 -94.6261156792 1092.50241751 -120.170076187 1025.86025075 -137.889297491 970.598242687 c 0
 -140.144535205 955.866121598 -137.534811543 945.909627014 -151.62290551 946.782616721 c 0
 -160.008562007 957.207990186 -158.098611778 954.993791788 -164.569307824 962.090102846 c 0
 -155.337297809 959.750130355 -166.011773389 975.792904322 -163.634609661 972.163330253 c 0
 -120.433081053 1087.04594773 -71.8508175706 1203.65697075 -15.6571066574 1295.13124915 c 0
 -13.7738558088 1310.35272901 -5.7644050795 1304.98981497 -1.55885748129 1299.32627419 c 0
 -10.8846190121 1307.19433363 -5.57871246056 1303.14685731 -6.18098072159 1301.01400502 c 0
 16.3517186528 1292.14321067 l 0
 35.2630438284 1217.01798433 90.8308864492 1135.61836131 178.115931648 1025.75827308 c 0
 173.920970503 1025.06377718 179.16278712 1014.62070562 185.199397151 1021.99544398 c 0
 182.880458437 1018.39829598 183.721126972 1011.00435739 175.630636879 1000.71495219 c 0
 141.404533152 939.02391203 l 0
EndSplineSet
Colour: ff0000
EndChar
StartChar: uni065D
Encoding: 544 1629 287
Width: 498
GlyphClass: 4
Flags: HW
LayerCount: 2
Back
SplineSet
165.504882812 2348 m 0,0,1
 263.504882812 2333 263.504882812 2333 322.504882812 2191 c 0,2,3
 345.504882812 2138 345.504882812 2138 295.504882812 2091 c 1,4,5
 267.504882812 2063 267.504882812 2063 209.504882812 2033 c 1,6,7
 317.504882812 1894 317.504882812 1894 502.504882812 1786 c 1,8,9
 547.504882812 1761 547.504882812 1761 531.504882812 1731 c 0,10,11
 517.504882812 1705 517.504882812 1705 477.504882812 1726 c 0,12,13
 297.504882812 1816 297.504882812 1816 156.504882812 2003 c 1,14,15
 120.504882812 1983 120.504882812 1983 101.004882812 1975.5 c 128,-1,16
 81.5048828125 1968 81.5048828125 1968 70.5048828125 1990 c 2,17,-1
 47.5048828125 2034 l 2,18,19
 31.5048828125 2064 31.5048828125 2064 59.5048828125 2075 c 1,20,21
 74.5048828125 2082 74.5048828125 2082 107.504882812 2101 c 1,22,23
 55.5048828125 2236 55.5048828125 2236 106.504882812 2315 c 0,24,25
 130.504882812 2353 130.504882812 2353 165.504882812 2348 c 0,0,1
186.504882812 2215 m 1,26,27
 156.504882812 2189 156.504882812 2189 165.504882812 2128 c 1,28,29
 231.504882812 2160 231.504882812 2160 250.004882812 2179.5 c 128,-1,30
 268.504882812 2199 268.504882812 2199 260.504882812 2210 c 1,31,32
 232.504882812 2257 232.504882812 2257 186.504882812 2215 c 1,26,27
EndSplineSet
Fore
SplineSet
181.234375 1871.07910156 m 5
 220.19140625 1806.80078125 275.84375 1748.921875 388.260742188 1730 c 5
 388.260742188 1821.27050781 l 5
 330.104492188 1831.00878906 283.913085938 1852.15722656 254.138671875 1893.61816406 c 5
 340.677734375 1927.28710938 346.243164062 1974.87011719 345.130859375 1996.29589844 c 4
 341.791015625 2062.52246094 261.65234375 2167.98339844 188.748046875 2152.12207031 c 4
 133.930664062 2140.15722656 95.80859375 2079.77441406 138.3828125 1980.15722656 c 5
 110 1973.47851562 l 5
 110.278320312 1861.89648438 l 6
 110.834960938 1861.89648438 151.739257812 1863.84375 181.234375 1871.07910156 c 5
265.547851562 2045.54785156 m 4
 268.608398438 2007.98339844 196.817382812 1996.57421875 196.817382812 1996.57421875 c 5
 177.6171875 2051.39160156 202.3828125 2080.33105469 227.42578125 2077.82617188 c 4
 248.295898438 2075.60058594 264.15625 2061.13085938 265.547851562 2045.54785156 c 4
EndSplineSet
Colour: ff0000
EndChar
StartChar: uni065E
Encoding: 1630 1630 1077
Width: 442
GlyphClass: 4
Flags: HW
HStem: 1716.48 368.223
VStem: 50 342.818
AnchorPoint: "MarkAbove" 205 1650 mark 0
AnchorPoint: "TashkilAboveDot" 177 1707 mark 0
AnchorPoint: "TashkilAbove" 250 1600 mark 0
LayerCount: 2
Back
SplineSet
87.2353515625 2082 m 2,0,1
 88.2353515625 2085 88.2353515625 2085 91.2353515625 2085 c 0,2,3
 120.235351562 2085 120.235351562 2085 168.235351562 2041 c 0,4,5
 172.235351562 2037 172.235351562 2037 170.235351562 2032 c 2,6,-1
 121.235351562 1955 l 2,7,8
 118.235351562 1950 118.235351562 1950 111.235351562 1956 c 128,-1,9
 104.235351562 1962 104.235351562 1962 70.2353515625 1982 c 128,-1,10
 36.2353515625 2002 36.2353515625 2002 36.2353515625 2004 c 128,-1,11
 36.2353515625 2006 36.2353515625 2006 37.2353515625 2007 c 2,12,-1
 87.2353515625 2082 l 2,0,1
451.235351562 1867 m 2,13,14
 454.235351562 1870 454.235351562 1870 456.235351562 1870 c 128,-1,15
 458.235351562 1870 458.235351562 1870 482.235351562 1862 c 128,-1,16
 506.235351562 1854 506.235351562 1854 520.235351562 1838 c 0,17,18
 536.235351562 1820 536.235351562 1820 534.235351562 1817 c 2,19,-1
 485.235351562 1740 l 2,20,21
 484.235351562 1738 484.235351562 1738 482.235351562 1738 c 128,-1,22
 480.235351562 1738 480.235351562 1738 460.235351562 1754 c 128,-1,23
 440.235351562 1770 440.235351562 1770 420.235351562 1778 c 128,-1,24
 400.235351562 1786 400.235351562 1786 400.235351562 1789 c 0,25,26
 400.235351562 1791 400.235351562 1791 401.235351562 1792 c 2,27,-1
 451.235351562 1867 l 2,13,14
EndSplineSet
Fore
SplineSet
312.267578125 1852.25195312 m 261
 255.1953125 1795.18066406 l 261
 255.1953125 1783 l 261
 312.267578125 1725.58007812 l 261
 325.4921875 1725.58007812 l 261
 385 1783 l 261
 385 1795.18066406 l 261
 325.4921875 1852.25195312 l 261
 312.267578125 1852.25195312 l 261
116.98046875 2073.671875 m 257
 59.908203125 2016.60058594 l 257
 59.908203125 2004.41992188 l 257
 116.98046875 1947 l 257
 130.205078125 1947 l 257
 189.712890625 2004.41992188 l 257
 189.712890625 2016.60058594 l 257
 130.205078125 2073.671875 l 257
 116.98046875 2073.671875 l 257
EndSplineSet
Colour: ffff00
EndChar
StartChar: uni065F
Encoding: 1631 1631 247
Width: 0
GlyphClass: 4
Flags: HW
LayerCount: 2
Back
SplineSet
-173 -922 m 128,-1,1
 -151 -912 -151 -912 -138 -898 c 1,2,3
 -214 -860 -214 -860 -223 -812 c 0,4,5
 -239 -729 -239 -729 -154 -611 c 1,6,7
 -68 -494 -68 -494 29 -502 c 0,8,9
 91 -507 91 -507 84.5 -571.5 c 128,-1,10
 78 -636 78 -636 48 -678 c 128,-1,11
 18 -720 18 -720 -3 -687 c 128,-1,12
 -24 -654 -24 -654 -64.5 -650 c 128,-1,13
 -105 -646 -105 -646 -128 -673 c 128,-1,14
 -151 -700 -151 -700 -124 -726 c 0,15,16
 -56 -790 -56 -790 75 -794 c 0,17,18
 96 -794 96 -794 138 -784 c 128,-1,19
 180 -774 180 -774 196.5 -774.5 c 128,-1,20
 213 -775 213 -775 220.5 -787.5 c 128,-1,21
 228 -800 228 -800 223 -811 c 0,22,23
 186 -893 186 -893 151 -900 c 0,24,25
 -5 -933 -5 -933 -179 -1007 c 0,26,27
 -231 -1029 -231 -1029 -337 -986 c 0,28,29
 -388 -965 -388 -965 -424.5 -990.5 c 128,-1,30
 -461 -1016 -461 -1016 -503 -1078 c 0,31,32
 -509 -1086 -509 -1086 -517.5 -1076.5 c 128,-1,33
 -526 -1067 -526 -1067 -522 -1058 c 1,34,35
 -451 -936 -451 -936 -400 -901 c 0,36,37
 -353 -869 -353 -869 -304 -889 c 0,38,0
 -195 -932 -195 -932 -173 -922 c 128,-1,1
EndSplineSet
Fore
SplineSet
-185.349411756 -903.562360595 m 0
 -184.03329367 -911.85663366 -223.430562859 -906.39611509 -300.429320708 -879.561429341 c 0
 -340.679244377 -865.666349079 -380.648606494 -872.338874825 -413.026876599 -893.699539164 c 0
 -438.476756879 -916.293362188 -494.007092401 -963.817698171 -529.693664923 -1047.99513581 c 0
 -536.554133187 -1062.85657944 -538.834315027 -1072.260133 -524.342354929 -1087.85760755 c 0
 -523.468880944 -1094.6328085 -495.652967261 -1096.36129874 -491.091388309 -1091.89055575 c 0
 -462.5974173 -1043.03775254 -440.865788255 -1021.06129191 -411.533603411 -1002.59169306 c 0
 -388.802687101 -983.442962341 -370.378514238 -986.932293275 -336.148125754 -998.408995722 c 0
 -274.441670511 -1027.78575567 -207.309283589 -1031.46215081 -166.476384207 -1024.78491681 c 0
 -53.2186492955 -973.427140057 44.2688595379 -942.037126313 159.431928937 -918.273906894 c 0
 186.586414096 -909.088956521 206.378339027 -878.880406929 240.05436821 -811.04254964 c 0
 234.280534061 -802.072247865 241.605025937 -797.753502077 236.074543965 -775.697820535 c 0
 222.735522317 -774.043561546 207.5726422 -756.021670415 198.977818707 -765.159947911 c 0
 189.896017203 -765.383978963 159.394449713 -765.234072661 139.210835965 -769.466434242 c 0
 114.028132295 -779.828552755 85.4437890949 -783.016543905 80.0795227108 -781.261849604 c 0
 -4.50047195427 -775.203494105 -75.7191031127 -756.947350022 -119.949484441 -715.443579624 c 0
 -133.175515982 -699.964305415 -124.935726731 -698.806875947 -122.993671486 -681.213283838 c 0
 -101.87158219 -665.448071004 -94.7667527492 -659.460103808 -60.2977850343 -658.789205394 c 0
 -46.344279543 -659.998035546 -20.9246958106 -681.966594448 -19.7493567496 -697.688071537 c 0
 -1.50534661477 -728.983062949 37.6549651705 -722.240849263 58.5028384313 -683.430701655 c 0
 78.6697063734 -660.391922364 92.5594289181 -611.381788759 105.302389683 -568.658602519 c 0
 108.136319167 -518.508433078 72.0320483436 -495.297687658 28.4760534578 -489.103371596 c 0
 -38.8272997172 -482.008369068 -100.031759331 -523.905768485 -160.384944333 -605.984818654 c 0
 -221.388573025 -678.455707701 -251.735468344 -755.329549206 -242.141062454 -817.477926891 c 0
 -232.878206742 -845.547801479 -202.177611772 -883.191149473 -152.812286085 -905.247614913 c 0
 -153.370373899 -893.181454088 -172.174184519 -909.006958833 -185.349411756 -903.562360595 c 0
-160.406197174 -929.224982291 m 0
 -155.107558749 -921.708731441 -133.903416611 -917.828315554 -121.88465781 -897.479103515 c 0
 -181.034930828 -853.582359464 -205.129340013 -837.283717277 -206.230639962 -815.251071341 c 0
 -215.592205031 -757.106009392 -193.005351691 -699.115201399 -141.772065889 -616.392924356 c 0
 -87.6472641097 -543.300719291 -38.7096634812 -509.736334319 32.9653279046 -518.294524372 c 0
 65.04538826 -523.746266187 68.0011452405 -527.333445567 65.0334098758 -576.963230063 c 0
 63.3569037145 -607.768748257 48.9658501884 -645.374796178 33.1106644099 -666.966686206 c 0
 21.6331674726 -699.097789344 12.6139722659 -690.691328952 2.65808676574 -685.871480661 c 0
 -9.97066956887 -650.203387808 -32.9008748547 -636.596164147 -56.060540184 -630.405726568 c 0
 -96.1692572001 -629.633955818 -121.596776184 -641.663265485 -133.73567577 -660.550893138 c 0
 -152.39359291 -682.243953886 -155.773241575 -716.374791101 -130.168625985 -732.905843722 c 0
 -88.5070747332 -787.4551309 -8.5969699911 -800.127423859 67.8182753491 -814.685222325 c 0
 97.0948478196 -805.653697914 107.550920616 -802.605175816 143.090995283 -793.275275545 c 0
 167.912481401 -798.287466589 191.626935204 -793.290221664 191.541331961 -796.067095822 c 0
 209.848325964 -793.028489459 198.401015324 -796.213983029 214.133400701 -788.722369203 c 0
 214.606432837 -793.772858516 210.845108894 -805.186919792 214.651194477 -800.155708938 c 0
 187.376528114 -862.433146284 168.809239465 -881.623316233 142.939829998 -886.049858591 c 0
 43.4448483115 -912.846618112 -62.6481162115 -948.309544257 -191.810027705 -993.275463221 c 0
 -209.455954425 -1009.23142092 -267.115625387 -1007.06464778 -332.754409677 -972.449534395 c 0
 -362.061461218 -957.710851674 -400.173433321 -954.617799498 -436.586942962 -977.930537262 c 0
 -458.387706978 -994.484107087 -485.187179563 -1023.47228743 -510.465983141 -1063.5425941 c 0
 -509.840614884 -1062.91605128 -501.212688748 -1068.54878231 -508.507136396 -1062.02077524 c 0
 -507.358709102 -1063.34271137 -504.878307199 -1058.5949356 -507.151630255 -1067.04268187 c 0
 -468.52315063 -979.300039921 -425.297002775 -940.528181614 -396.907879804 -908.727975148 c 0
 -357.69915179 -898.565737324 -336.997637586 -890.079138791 -310.968327763 -902.187222469 c 0
 -231.52295123 -931.698605452 -185.53625571 -938.32769361 -160.406197174 -929.224982291 c 0
EndSplineSet
Colour: ff0000
EndChar
StartChar: uni0660
Encoding: 1632 1632 263
Width: 1200
Flags: HW
LayerCount: 2
Back
SplineSet
514 639 m 2,0,1
 529 682 529 682 576 652 c 2
 745 543 l 2,3,4
 782 519 782 519 766 473 c 1
 701 271 l 2,6,7
 684 219 684 219 631 251 c 2
 445 361 l 2,9,10
 420 376 420 376 436 421 c 2
 514 639 l 2,0,1
EndSplineSet
Fore
SplineSet
498.543728573 642.843374071 m 0
 423.423733102 422.173146904 l 0
 415.810547961 390.412298886 411.972481805 358.817514873 434.478120208 344.631814463 c 0
 621.001828632 244.229218898 l 0
 660.243957478 214.521561294 706.33773967 229.812358852 717.13479905 260.776765356 c 0
 776.039434192 467.236836714 l 0
 788.113935024 497.529668875 776.263479377 532.900027334 757.433450932 554.570394725 c 0
 579.898366908 667.450938428 l 0
 553.686818273 688.195525534 507.293295956 685.298189989 498.543728573 642.843374071 c 0
521.9304373 637.751635074 m 0
 536.521637296 662.039057666 544.277185791 662.420160642 574.823674745 632.536989667 c 0
 740.956290861 528.971250924 l 0
 752.034116678 524.927702569 762.069719977 509.511861554 758.386293734 478.376137895 c 0
 690.140617941 278.617293785 l 0
 678.089107799 253.564813789 669.002635614 237.748694354 637.21048236 258.673987202 c 0
 452.815348267 374.120617231 l 0
 444.964958477 374.049557341 439.138063802 391.995243891 452.03561525 417.4908839 c 0
 521.9304373 637.751635074 l 0
EndSplineSet
Colour: ff0000
EndChar
StartChar: uni0661
Encoding: 1633 1633 258
Width: 1200
Flags: HW
LayerCount: 2
Back
SplineSet
503 1074 m 2,0,1
 532 1159 532 1159 585 1037 c 1,2,3
 706 730 706 730 747 447 c 1,4,5
 802 51 802 51 730 -162 c 0,6,7
 719 -194 719 -194 692 -189 c 128,-1,8
 665 -184 665 -184 665 -147 c 0,9,10
 671 378 671 378 453 764 c 0,11,12
 418 825 418 825 434 869 c 1
 503 1074 l 2,0,1
EndSplineSet
Fore
SplineSet
491.78024153 1074.41751551 m 0
 421.144087696 871.811459965 l 0
 408.905137865 844.965782998 413.589370189 801.552694451 446.117562377 749.974767433 c 0
 585.756450942 499.220284337 654.167026775 194.70108996 653.794946621 -140.328916758 c 0
 654.081934234 -171.876898099 671.447815363 -202.840139937 690.435479919 -209.29668796 c 0
 714.626829334 -212.715435125 741.57664339 -185.628241983 748.851501588 -172.722901106 c 0
 786.920012265 -26.2764667871 793.153847569 186.336957955 756.683817279 444.265570499 c 0
 737.839591572 634.588800016 682.576349617 840.43588562 594.776871438 1039.46803074 c 0
 558.269509915 1126.5028667 514.940707596 1140.71130761 491.78024153 1074.41751551 c 0
520.799500281 1071.13403603 m 0
 522.896425071 1110.53916846 539.903708586 1113.75943512 576.41552625 1034.44576873 c 0
 648.551833473 824.188604901 698.150988769 625.62129615 727.852428373 441.581535103 c 0
 765.163857457 189.06991585 764.503426733 -15.9986382599 711.634193175 -155.588113459 c 0
 713.580606571 -174.463239036 702.82933707 -173.891280042 689.839277143 -170.662646626 c 0
 687.798017925 -172.67383575 682.198309229 -162.107091811 674.11458714 -148.123014787 c 0
 690.275543696 209.591621196 618.562626707 518.838030014 467.192649485 773.971661323 c 0
 438.566189317 803.894260284 432.596197262 839.200067798 450.022774755 867.747148482 c 0
 520.799500281 1071.13403603 l 0
EndSplineSet
Colour: ff0000
EndChar
StartChar: uni0662
Encoding: 514 1634 257
Width: 1034
Flags: HW
LayerCount: 2
Back
SplineSet
114.296875 1067 m 2,0,1
 136.296875 1160 136.296875 1160 194.296875 1048 c 0,2,3
 294.296875 856 294.296875 856 464.296875 857 c 0,4,5
 706.296875 858 706.296875 858 734.296875 1071 c 0,6,7
 739.296875 1108 739.296875 1108 767.796875 1108 c 128,-1,8
 796.296875 1108 796.296875 1108 804.296875 1085 c 128,-1,9
 812.296875 1062 812.296875 1062 793.296875 947 c 128,-1,10
 774.296875 832 774.296875 832 710.296875 741 c 1,11,12
 608.296875 592 608.296875 592 364.296875 631 c 1,13,14
 494.296875 146 494.296875 146 434.296875 -158 c 0,15,16
 430.296875 -178 430.296875 -178 413.296875 -185.5 c 128,-1,17
 396.296875 -193 396.296875 -193 383.296875 -182 c 128,-1,18
 370.296875 -171 370.296875 -171 368.296875 -149 c 0,19,20
 334.296875 380 334.296875 380 90.296875 761 c 0,21,22
 54.296875 818 54.296875 818 64.296875 859 c 2,23,-1
 114.296875 1067 l 2,0,1
EndSplineSet
Fore
SplineSet
787.9453125 1290.92285156 m 5
 787.9453125 1290.83300781 l 5
 934.172851562 1290.83300781 l 5
 934.083984375 856.978515625 l 6
 934.083984375 709.765625 813.077148438 589.653320312 667.563476562 589.653320312 c 4
 606.479492188 589.653320312 556.037109375 611.833007812 516.864257812 639.290039062 c 5
 523.392578125 409.081054688 509.619140625 176.546875 509.619140625 176.546875 c 5
 286.296875 0 l 5
 286.296875 0 279.142578125 564.252929688 100.001953125 1022.61425781 c 4
 99.107421875 1024.93945312 406.588867188 1290.92285156 406.588867188 1290.92285156 c 5
 406.588867188 1290.92285156 457.03125 1026.81738281 612.829101562 1026.81738281 c 4
 710.404296875 1026.81738281 787.9453125 1101.76464844 787.9453125 1216.421875 c 6
 787.9453125 1290.92285156 l 5
EndSplineSet
Colour: ff0000
EndChar
StartChar: uni0663
Encoding: 1635 1635 260
Width: 1200
Flags: HW
LayerCount: 2
Back
SplineSet
997 1088 m 0,0,1
 999 1125 999 1125 1031 1125 c 128,-1,2
 1063 1125 1063 1125 1061 1064 c 0,3,4
 1056 939 1056 939 1015 787 c 0,5,6
 961 587 961 587 768 648 c 0,7,8
 708 667 708 667 664 700 c 1,9,10
 567 594 567 594 446 603 c 1,11,12
 574 84 574 84 514 -158 c 0,13,14
 509 -178 509 -178 492 -185 c 128,-1,15
 475 -192 475 -192 462 -182 c 0,16,17
 450 -172 450 -172 448 -147 c 0,18,19
 414 399 414 399 172 759 c 0,20,21
 130 821 130 821 140 860 c 2
 191 1068 l 2,23,24
 209 1140 209 1140 262 1061 c 0,25,26
 381 886 381 886 407 871 c 0,27,28
 464 838 464 838 552 846 c 0,29,30
 674 857 674 857 716 1069 c 0,31,32
 724 1109 724 1109 748 1107 c 128,-1,33
 772 1105 772 1105 778.5 1079 c 128,-1,34
 785 1053 785 1053 770 975.5 c 128,-1,35
 755 898 755 898 866 867 c 1,36,37
 983 836 983 836 997 1088 c 0,0,1
EndSplineSet
Fore
SplineSet
975.550349754 1088.20156566 m 0
 971.510906277 918.07160736 939.977563112 861.860760046 874.830233666 881.63718065 c 0
 793.928825006 905.864476848 776.586808482 925.636145328 782.281892359 970.883428732 c 0
 794.694393561 1024.68690444 794.150337845 1067.61119523 787.045591858 1080.46383321 c 0
 790.729096455 1105.78493224 776.131865578 1114.61766729 749.596947611 1116.04527061 c 0
 723.777761913 1125.78685767 712.77776527 1096.60102193 695.428911044 1071.60966113 c 0
 669.301254072 930.53458254 619.179956327 859.522197699 557.132809863 863.563522343 c 0
 498.967768258 857.119481902 445.580974 869.290347469 416.447307638 884.700460679 c 0
 399.225629863 890.534511973 349.763568678 953.863276995 268.976364357 1070.90001897 c 0
 237.220132931 1125.46472193 200.385477499 1133.05681218 170.249559161 1072.34696385 c 0
 130.662938386 861.463373608 l 0
 118.158849553 839.463549734 125.899451792 799.433628624 165.428328126 747.621360762 c 0
 313.973094066 508.801036092 410.418570537 216.77184413 430.265990575 -152.187514423 c 0
 433.916545957 -170.430510657 435.748241958 -180.132774925 457.22765893 -192.350739778 c 0
 465.895535819 -200.885151114 485.99865922 -198.891525383 499.472610318 -198.780725426 c 0
 509.118999036 -199.081838428 528.517665288 -177.415916154 521.636115106 -159.768877222 c 0
 570.954741016 -0.64285926643 549.397815835 256.818875881 458.326369491 599.440169006 c 0
 529.77371336 578.629271848 603.434535452 610.956622337 665.047225513 680.367026096 c 0
 679.939474923 669.973994303 716.362160896 647.147463406 761.246828358 626.883773875 c 0
 902.731581813 589.744381559 997.685656991 648.168482161 1028.43556839 784.270083752 c 0
 1062.38467526 886.38646649 1077.69872782 983.308351615 1068.99548572 1070.12743376 c 0
 1081.92541986 1111.85006327 1066.40034247 1136.36742243 1033.85718196 1143.01275818 c 0
 999.152454176 1137.97608442 980.508330509 1119.83609385 975.550349754 1088.20156566 c 0
1010.46592115 1081.52788502 m 0
 1019.02445161 1103.21065506 1016.14937892 1113.1280213 1028.69270325 1112.42918569 c 0
 1041.85120589 1117.03734471 1049.29254268 1108.38873844 1045.96141298 1069.55657145 c 0
 1036.49523222 987.872442506 1033.48467936 891.743687319 1000.82794013 788.857785436 c 0
 963.766806083 665.0234686 890.489530345 627.21512557 768.808296669 656.303288648 c 0
 726.952152622 668.434700006 697.731436523 695.85656469 656.777544775 710.858245156 c 0
 591.090358992 635.062276865 529.548615848 615.590927927 430.927332181 617.572463639 c 0
 518.69782535 247.99410118 542.288860575 6.9445459119 496.005753444 -157.229269907 c 0
 495.257461718 -167.201453517 501.131570712 -172.382655151 489.951008535 -164.633222415 c 0
 474.169645633 -171.221779936 471.336758173 -179.342096483 465.146771053 -172.112614931 c 0
 462.917991575 -173.034613671 464.00171511 -154.290553602 465.560594721 -149.78658999 c 0
 447.003921459 216.370822564 347.484849398 524.630730052 189.068395486 772.403046626 c 0
 159.935668983 807.677602981 152.700398005 836.492102858 159.796064319 853.116184363 c 0
 204.818310094 1060.34965504 l 0
 208.367955768 1110.14754371 222.051005324 1097.9643465 250.680441786 1048.8964629 c 0
 324.138514792 934.911555094 381.544471073 866.172817702 400.654111898 855.629319086 c 0
 432.999850921 835.972241833 491.012751813 826.831474844 554.580416659 837.608215541 c 0
 637.421730585 834.849642859 703.212831731 927.214062767 728.490018779 1060.09499827 c 0
 739.382111395 1083.29928271 736.209227938 1101.1434211 744.997173152 1091.40897022 c 0
 764.181211193 1089.50021672 757.265663119 1094.04170094 767.503006859 1077.98997147 c 0
 765.488583514 1058.61300253 768.846037313 1023.73632459 758.377810873 975.262617843 c 0
 745.195587086 918.267096173 788.83781012 872.984152199 857.01928133 855.989514228 c 0
 947.811201693 835.191892016 1006.27824657 918.6756067 1010.46592115 1081.52788502 c 0
EndSplineSet
Colour: ff0000
EndChar
StartChar: uni0664
Encoding: 515 1636 128
Width: 1036
Flags: HW
LayerCount: 2
Back
SplineSet
597 1110 m 0,0,1
 610 1123 610 1123 630 1123 c 0,2,3
 651 1123 651 1123 663 1109 c 128,-1,4
 675 1095 675 1095 671 1078 c 2,5,-1
 634 921 l 2,6,7
 630 905 630 905 604 895 c 0,8,9
 488 854 488 854 462 804 c 0,10,11
 445 771 445 771 484 746 c 0,12,13
 624 656 624 656 741 628 c 0,14,15
 791 616 791 616 764 555 c 2,16,-1
 728 475 l 2,17,18
 707 428 707 428 672 405 c 0,19,20
 553 325 553 325 486 246 c 0,21,22
 443 195 443 195 494 162 c 0,23,24
 665 53 665 53 849 30 c 0,25,26
 907 23 907 23 884 -31 c 2,27,-1
 825 -172 l 2,28,29
 812 -203 812 -203 778 -199 c 0,30,31
 535 -173 535 -173 357 -48 c 0,32,33
 316 -19 316 -19 337 58 c 2,34,-1
 383 227 l 2,35,36
 404 302 404 302 564 443 c 1,37,38
 454 483 454 483 341 560 c 0,39,40
 283 599 283 599 330 699 c 2,41,-1
 395 838 l 2,42,43
 456 969 456 969 597 1110 c 0,0,1
EndSplineSet
Fore
SplineSet
846.307617188 301.634765625 m 2
 926.447265625 301.913085938 l 1
 748.360351562 1 l 1
 748.360351562 1 576.672851562 -12.3486328125 385.229492188 52.478515625 c 0
 309.801757812 78.01953125 213.54296875 122.15625 186.2734375 204.799804688 c 0
 166.516601562 264.625976562 199.857615205 325.50203856 242.759765625 410.712890625 c 2
 375.577148438 646.704101562 l 1
 254.534179688 673.973632812 163.142578125 728.791015625 137.264648438 807.817382812 c 0
 118.342773438 864.860351562 136.4296875 931.086914062 190.96875 1004.26953125 c 2
 355.69921875 1227.71289062 l 2
 388.954101562 1272.81933594 458.603515625 1363.8125 638.360351562 1363.8125 c 0
 771.369140625 1363.8125 886.899414062 1265 886.899414062 1265 c 1
 733.021484375 1058.53027344 l 1
 733.021484375 1058.53027344 671.525390625 1138.390625 566.62109375 1139.22558594 c 0
 502.064453125 1139.78222656 418.864257812 1094.42578125 422.482421875 1037.3828125 c 0
 426.099609375 977.834960938 596.1171875 929.973632812 596.1171875 929.973632812 c 1
 665.125 912.165039062 702.482421875 903.200195312 713.890625 869.80859375 c 0
 722.23828125 845.599609375 718.006864976 822.67137425 682.934570312 769.6953125 c 2
 528.934570312 497.80859375 l 2
 514.159444819 471.723136675 510 446 524 416 c 0
 557.974693227 343.197085943 684.640621793 301.073305603 846.307617188 301.634765625 c 2
EndSplineSet
Colour: ffff00
EndChar
StartChar: uni0665
Encoding: 1637 1637 262
Width: 1200
Flags: HW
LayerCount: 2
Back
SplineSet
484 818 m 1,0,1
 544 888 544 888 618 869 c 0,2,3
 754 835 754 835 852 732 c 0,4,5
 988 588 988 588 929 299 c 0,6,7
 900 155 900 155 800 79 c 128,-1,8
 700 3 700 3 545 3 c 128,-1,9
 390 3 390 3 322 66 c 128,-1,10
 254 129 254 129 254 273 c 1,11,12
 252 556 252 556 484 818 c 1,0,1
801 449 m 0,13,14
 652 618 652 618 496 605 c 1,15,16
 400 599 400 599 384 456 c 1,17,18
 372 364 372 364 416 315 c 1,19,20
 482 237 482 237 636 273 c 1,21,22
 748 298 748 298 812 358 c 1,23,24
 851 391 851 391 801 449 c 0,13,14
EndSplineSet
Fore
SplineSet
794.055689174 438.096082387 m 0
 823.120756938 397.306846248 826.375994547 392.051550884 804.967344888 363.260418687 c 0
 755.16269007 332.885131235 699.956451653 302.464583543 637.262723769 288.476543089 c 0
 534.553442239 261.566657587 469.62406552 280.416710854 431.301659866 322.524155006 c 0
 404.944742159 349.081801884 384.848932056 398.321935028 393.160633669 448.62127453 c 0
 408.583692645 544.821790016 445.726190133 581.995055111 495.051632595 589.34254683 c 0
 601.091418877 595.27670003 696.483121045 555.40854076 794.055689174 438.096082387 c 0
465.870910356 821.325131571 m 0
 320.682975987 657.835966978 234.147399706 462.930056194 235.705485578 274.498542777 c 0
 242.913571721 172.60676591 266.582963119 106.29103288 313.626665946 56.9116022388 c 0
 357.872627445 7.80181993281 446.601175814 -9.61098391075 548.343170606 -18.6588515729 c 0
 657.320187838 -13.9726293144 742.390736633 20.6182520502 813.468497093 62.457557916 c 0
 875.244725889 125.711920245 927.757758958 202.549939901 940.81438302 298.377861419 c 0
 978.589381668 495.257869358 952.623276433 649.714688333 856.261864985 740.88723503 c 0
 790.938462208 813.505093925 715.78010267 866.417444596 620.102598547 883.383197578 c 0
 574.689894006 902.496185255 516.293627574 872.841594445 465.870910356 821.325131571 c 0
809.043647366 452.253534872 m 0
 711.301133196 578.066235616 596.426258511 634.016288489 491.785500427 616.208239826 c 0
 428.897831776 615.988198662 375.653249224 551.582558356 375.391316762 463.870359721 c 0
 357.034826416 388.734692665 371.038921309 343.769703907 409.529841607 302.260830097 c 0
 455.571272378 243.341637427 529.188187717 229.865673533 641.581626423 260.61494625 c 0
 709.682487024 270.143347981 781.197263846 309.213844564 816.33592394 347.635296038 c 0
 856.723526341 371.773821263 842.27038312 417.920679386 809.043647366 452.253534872 c 0
491.115149851 810.070130118 m 0
 526.123005217 858.649932438 567.146990083 868.919779616 619.962345346 858.639206003 c 0
 703.729759871 826.576285366 782.913988872 788.15839466 847.660154467 718.379148844 c 0
 931.608982856 633.278794178 960.133914882 493.394480405 913.900136268 302.286435189 c 0
 894.223144288 213.687701677 859.015013876 136.268458958 793.221024722 94.5850222378 c 0
 731.593850453 44.4739712231 651.485801977 19.6542363592 543.147179691 22.5491637286 c 0
 443.388207075 19.8823547239 381.309970551 33.5055284702 326.910861944 75.7076175725 c 0
 294.944487971 111.442553827 267.103843665 179.744256529 273.305446523 277.458773592 c 0
 270.106509593 452.251157563 336.86309711 628.976858107 491.115149851 810.070130118 c 0
EndSplineSet
Colour: ff0000
EndChar
StartChar: uni0666
Encoding: 1638 1638 265
Width: 1200
Flags: HW
LayerCount: 2
Back
SplineSet
227 1069 m 2,0,1
 243 1151 243 1151 302 1066 c 1,2,3
 420 892 420 892 755 993 c 0,4,5
 809 1009 809 1009 804 959 c 0,6,7
 765 561 765 561 983 168 c 0,8,9
 1012 115 1012 115 1003 62 c 2
 968 -134 l 2,11,12
 950 -233 950 -233 904 -145 c 0,13,14
 690 262 690 262 706 723 c 0,15,16
 707 751 707 751 695 748 c 0,17,18
 372 665 372 665 217 836 c 0,19,20
 188 868 188 868 196 908 c 2
 227 1069 l 2,0,1
EndSplineSet
Fore
SplineSet
209.763360548 1075.49934638 m 0
 184.157639413 911.231754741 l 0
 176.473887722 879.600393203 189.826274197 845.482821328 208.120495533 827.25171518 c 0
 315.901937175 712.256825285 476.470853664 678.109997632 702.976921966 728.797435581 c 0
 701.030816935 732.28905007 692.141055195 733.238210804 690.653312764 728.681475315 c 0
 678.15605779 421.074769086 741.075683048 122.000771543 885.829073602 -146.374371531 c 0
 931.205128642 -217.410994237 973.286127719 -209.689173859 981.776992842 -137.639211937 c 0
 1021.6232784 63.8338318101 l 0
 1022.06401248 93.176275001 1011.58506719 135.511491926 997.232085866 175.087921758 c 0
 849.747378988 434.60695544 798.187336644 698.888910072 821.370553418 957.818363483 c 0
 818.659518805 1004.09439877 790.71312673 1012.7346582 755.909838676 1011.15571638 c 0
 527.875578913 937.683865907 384.097535699 959.581529515 317.406697578 1067.67814238 c 0
 269.899286641 1142.63037436 228.072396322 1141.58969968 209.763360548 1075.49934638 c 0
241.461779204 1064.59921082 m 0
 242.412489076 1112.39726269 252.292433234 1111.84314679 296.313773137 1052.55968465 c 0
 370.650176276 943.457655186 532.318344727 914.927895439 759.603730585 972.536781204 c 0
 783.384001238 983.515895069 792.174831377 987.564499591 785.912813029 959.332943078 c 0
 769.204278403 686.866918521 828.803134151 419.247092327 971.02287113 159.01199124 c 0
 994.759502582 131.411850284 995.572202261 96.164827376 993.557279289 67.5273906302 c 0
 955.014997929 -126.883623269 l 0
 946.491025771 -185.28687555 936.074042439 -186.947004683 912.220931291 -141.056258218 c 0
 772.87647891 137.458318377 710.710103901 419.053084333 721.654822944 724.085014663 c 0
 717.43749037 740.019640797 709.344563414 762.339803624 694.435636802 758.991825214 c 0
 485.098013732 704.894968406 330.207068603 730.833695569 230.722081628 847.125673885 c 0
 205.897701646 857.918000065 200.25623922 878.709896835 206.264039974 910.664907935 c 0
 241.461779204 1064.59921082 l 0
EndSplineSet
Colour: ff0000
EndChar
StartChar: uni0667
Encoding: 1639 1639 133
Width: 1237
Flags: HW
LayerCount: 2
Back
SplineSet
637 -158 m 0,0,1
 632 -180 632 -180 617.5 -187 c 128,-1,2
 603 -194 603 -194 591 -185 c 128,-1,3
 579 -176 579 -176 578 -156 c 0,4,5
 571 -18 571 -18 455.5 259.5 c 128,-1,6
 340 537 340 537 166 829 c 0,7,8
 156 846 156 846 162 878 c 1,9,-1
 188 1045 l 2,10,11
 204 1152 204 1152 237 1092 c 0,12,13
 451 712 451 712 619 225 c 0,14,15
 642 160 642 160 655 217 c 0,16,17
 738 589 738 589 981 1047 c 1,18,19
 995 1077 995 1077 1011 1078.5 c 128,-1,20
 1027 1080 1027 1080 1029 1053 c 2,21,-1
 1041 855 l 2,22,23
 1042 831 1042 831 1023 796 c 1,24,25
 884 563 884 563 793.5 339.5 c 128,-1,26
 703 116 703 116 637 -158 c 0,0,1
EndSplineSet
Fore
SplineSet
1083.35644531 1362 m 2
 1127.04296875 1362 l 1
 1127.04296875 865.831054688 l 1
 707.704101562 865.831054688 691.0078125 0 691.0078125 0 c 1
 546.034179688 0 l 1
 546.034179688 0 529.338867188 865.831054688 110 865.831054688 c 1
 110 1362 l 1
 153.96484375 1362 l 2
 271.947265625 1362 598.009765625 1301.82714844 599.459960938 768.126953125 c 6
 599.73828125 665.7265625 l 6
 599.73828125 655.15234375 608.086914062 646.8046875 618.66015625 646.8046875 c 4
 628.956054688 646.8046875 637.58203125 655.15234375 637.58203125 665.7265625 c 6
 637.860351562 768.126953125 l 6
 639.310546875 1301.82714844 964.0078125 1362 1083.35644531 1362 c 2
EndSplineSet
Colour: ffff00
EndChar
StartChar: uni0668
Encoding: 522 1640 265
Width: 1237
Flags: HW
LayerCount: 2
Back
SplineSet
548.04296875 1080 m 0,0,1
 553.04296875 1102 553.04296875 1102 567.54296875 1109 c 128,-1,2
 582.04296875 1116 582.04296875 1116 594.04296875 1107 c 128,-1,3
 606.04296875 1098 606.04296875 1098 607.04296875 1078 c 0,4,5
 614.04296875 940 614.04296875 940 729.54296875 662.5 c 128,-1,6
 845.04296875 385 845.04296875 385 1019.04296875 93 c 0,7,8
 1029.04296875 76 1029.04296875 76 1023.04296875 44 c 1,9,-1
 997.04296875 -123 l 2,10,11
 981.04296875 -230 981.04296875 -230 948.04296875 -170 c 0,12,13
 734.04296875 210 734.04296875 210 566.04296875 697 c 0,14,15
 543.04296875 762 543.04296875 762 530.04296875 705 c 0,16,17
 447.04296875 333 447.04296875 333 204.04296875 -125 c 1,18,19
 190.04296875 -155 190.04296875 -155 174.04296875 -156.5 c 128,-1,20
 158.04296875 -158 158.04296875 -158 156.04296875 -131 c 2,21,-1
 144.04296875 67 l 2,22,23
 143.04296875 91 143.04296875 91 162.04296875 126 c 1,24,25
 301.04296875 359 301.04296875 359 391.54296875 582.5 c 128,-1,26
 482.04296875 806 482.04296875 806 548.04296875 1080 c 0,0,1
EndSplineSet
Fore
SplineSet
1083.35644531 0 m 6
 1127.04296875 0 l 5
 1127.04296875 496.168945312 l 5
 707.704101562 496.168945312 691.0078125 1289.49121094 691.0078125 1289.49121094 c 5
 546.034179688 1289.49121094 l 5
 546.034179688 1289.49121094 529.338867188 496.168945312 110 496.168945312 c 5
 110 0 l 5
 153.96484375 0 l 6
 271.947265625 0 598.009765625 80.1728515625 599.459960938 613.873046875 c 6
 599.73828125 716.2734375 l 6
 599.73828125 726.84765625 608.086914062 735.1953125 618.66015625 735.1953125 c 4
 628.956054688 735.1953125 637.58203125 726.84765625 637.58203125 716.2734375 c 6
 637.860351562 613.873046875 l 6
 639.310546875 80.1728515625 964.0078125 0 1083.35644531 0 c 6
EndSplineSet
Colour: ff0000
EndChar
StartChar: uni0669
Encoding: 523 1641 266
Width: 1013
Flags: HW
LayerCount: 2
Back
SplineSet
367.521484375 1023 m 1,0,1
 509.521484375 1196 509.521484375 1196 630.521484375 1024 c 0,2,3
 727.521484375 886 727.521484375 886 735.521484375 618 c 0,4,5
 743.521484375 354 743.521484375 354 842.521484375 173 c 0,6,7
 872.521484375 118 872.521484375 118 864.521484375 72 c 2,8,-1
 827.521484375 -144 l 2,9,10
 810.521484375 -244 810.521484375 -244 765.521484375 -136 c 0,11,12
 646.521484375 144 646.521484375 144 630.521484375 397 c 1,13,14
 181.521484375 354 181.521484375 354 168.521484375 617 c 0,15,16
 161.521484375 760 161.521484375 760 367.521484375 1023 c 1,0,1
576.521484375 712 m 0,17,18
 541.521484375 821 541.521484375 821 450.521484375 848 c 1,19,20
 340.521484375 878 340.521484375 878 302.521484375 758 c 0,21,22
 281.521484375 692 281.521484375 692 330.521484375 661 c 0,23,24
 398.521484375 618 398.521484375 618 552.521484375 627 c 0,25,26
 602.521484375 630 602.521484375 630 576.521484375 712 c 0,17,18
EndSplineSet
Fore
SplineSet
706.313476562 672 m 2
 706.313476562 538.712890625 758.069335938 388.73046875 903.321289062 263.791992188 c 1
 634.521484375 0 l 1
 509.583007812 129.11328125 438.34765625 338.921875 437.791015625 535.095703125 c 1
 325.930664062 535.095703125 l 2
 206.834960938 535.095703125 110 631.65234375 110 751.026367188 c 2
 110 1000.62597656 l 2
 110 1158.95703125 184.765625 1289.49121094 396.521484375 1289.49121094 c 0
 518.95703125 1289.49121094 625.3203125 1211.54101562 669.3046875 1084.3828125 c 0
 684.608398438 1040.13964844 706.313476562 965.84375 706.313476562 800 c 2
 706.313476562 672 l 2
331.49609375 899.6171875 m 1
 539.913085938 899.6171875 l 1
 539.913085938 899.6171875 406.34765625 1095.51367188 318.138671875 1095.51367188 c 0
 262.765625 1095.51367188 237.721679688 1055.44335938 237.721679688 992.556640625 c 0
 237.721679688 922.434570312 296.15625 899.6171875 331.49609375 899.6171875 c 1
EndSplineSet
Colour: ff0000
EndChar
StartChar: uni066B
Encoding: 573 1643 316
Width: 804
Flags: HW
LayerCount: 2
Back
SplineSet
329.904296875 300 m 2,0,1
 344.904296875 375 344.904296875 375 437.904296875 322 c 0,2,3
 571.904296875 246 571.904296875 246 543.904296875 60 c 0,4,5
 511.904296875 -156 511.904296875 -156 401.904296875 -297 c 128,-1,6
 291.904296875 -438 291.904296875 -438 161.904296875 -444 c 0,7,8
 35.904296875 -450 35.904296875 -450 122.904296875 -387 c 0,9,10
 249.904296875 -295 249.904296875 -295 344.904296875 -176 c 1,11,12
 431.904296875 -70 431.904296875 -70 473.904296875 72 c 0,13,14
 481.904296875 100 481.904296875 100 438.904296875 109 c 2,15,-1
 342.904296875 129 l 2,16,17
 297.904296875 138 297.904296875 138 306.904296875 185 c 2,18,-1
 329.904296875 300 l 2,0,1
EndSplineSet
Fore
SplineSet
430 436.1875 m 5
 694.904296875 436.1875 l 5
 374.904296875 -648.5 l 5
 110 -648.5 l 5
 430 436.1875 l 5
EndSplineSet
Colour: ff0000
EndChar
StartChar: uni066C
Encoding: 1644 1644 334
Width: 614
Flags: HW
LayerCount: 2
Back
SplineSet
317 438 m 2,0,1
 302 363 302 363 209 416 c 0,2,3
 75 492 75 492 103 678 c 0,4,5
 135 894 135 894 245 1035 c 128,-1,6
 355 1176 355 1176 485 1182 c 0,7,8
 611 1188 611 1188 524 1125 c 0,9,10
 404 1038 404 1038 302 914 c 0,11,12
 213 805 213 805 173 666 c 0,13,14
 165 638 165 638 208 629 c 2
 304 609 l 2,16,17
 349 600 349 600 340 553 c 2
 317 438 l 2,0,1
EndSplineSet
Fore
SplineSet
335.044021972 440.062589727 m 0
 357.815399606 555.838895024 l 0
 361.03201277 592.939375393 341.366097319 616.070073914 311.292977021 630.368112882 c 0
 213.574834987 639.791395763 l 0
 182.581279829 648.416532954 181.69679843 648.023084258 192.050498191 660.251358655 c 0
 206.732600275 747.277976409 257.58673732 836.37379204 313.183371028 906.558138298 c 0
 384.377480241 992.080694906 458.55673017 1053.40741855 529.312830206 1119.63115209 c 0
 601.994491471 1159.4241127 582.34957803 1200.4299133 486.825660483 1201.8606135 c 0
 396.929312227 1195.86839812 311.395876938 1142.35921049 231.903411723 1050.4116494 c 0
 154.344054674 954.204949979 107.892115571 828.581888326 87.4593465082 684.158979874 c 0
 75.8526898987 554.521361 111.771505147 454.851320753 202.702932437 403.715811887 c 0
 264.992718316 363.738153701 317.572597979 380.603646081 335.044021972 440.062589727 c 0
308.380255299 443.138188506 m 0
 301.819809887 404.620910249 271.399642065 400.874819872 214.215528595 432.034670171 c 0
 127.30233689 474.660081679 103.508575735 553.596855346 113.074384219 675.235244942 c 0
 132.476799682 818.173246102 186.122078194 932.80528828 262.295970021 1026.4693407 c 0
 327.31840942 1121.2271038 397.719177023 1157.6429319 491.14458199 1169.18805139 c 0
 557.242720487 1171.76523261 568.757089255 1174.77828969 519.100532815 1138.36747675 c 0
 437.474438997 1081.20848411 360.48859791 1008.38008677 290.652168317 922.594458282 c 0
 223.741997596 842.631626654 183.29626575 761.410428196 164.914037224 670.880743653 c 0
 149.994616724 648.65335032 177.370155515 619.135519517 211.409610935 610.66435774 c 0
 297.60477681 592.383303399 l 0
 324.219308756 587.276892925 324.776456647 575.225732537 325.728896638 552.471588702 c 0
 308.380255299 443.138188506 l 0
EndSplineSet
Colour: ff0000
EndChar
StartChar: uni066D
Encoding: 1645 1645 337
Width: 1116
Flags: HW
LayerCount: 2
Back
SplineSet
87 759 m 1
 446 759 l 1
 558 1100 l 1
 670 759 l 1
 1029 759 l 1
 739 547 l 1
 850 206 l 1
 558 417 l 1
 266 206 l 1
 377 547 l 1
 87 759 l 1
EndSplineSet
Fore
SplineSet
67.7966981953 768.316258182 m 0
 369.337641778 537.957586864 l 0
 255.044616861 191.702656727 l 0
 551.28271694 403.319963655 l 0
 852.499928288 192.391859091 l 0
 751.532044715 548.954307148 l 0
 1042.63054093 761.438465012 l 0
 676.497486571 764.328803563 l 0
 561.746345826 1114.68985453 l 0
 443.69729932 773.086716563 l 0
 67.7966981953 768.316258182 l 0
97.2531825076 758.899769891 m 0
 460.607154934 742.087665278 l 0
 553.650608242 1087.95908643 l 0
 657.280530535 750.946785751 l 0
 1014.90487965 758.577771414 l 0
 721.267055764 554.014171053 l 0
 845.217190437 213.28738622 l 0
 556.883792813 425.777890443 l 0
 275.764791078 219.724128053 l 0
 388.813332729 558.273495365 l 0
 97.2531825076 758.899769891 l 0
EndSplineSet
Colour: ff0000
EndChar
StartChar: uni0670
Encoding: 1648 1648 255
Width: 0
GlyphClass: 4
Flags: HW
LayerCount: 2
Back
SplineSet
241 2379 m 2,0,1
 251 2411 251 2411 279 2377 c 1,2,3
 474 2162 474 2162 412 1829 c 0,4,5
 408 1809 408 1809 392 1807 c 0,6,7
 373 1804 373 1804 371 1828 c 1,8,9
 344 2041 344 2041 212 2203 c 0,10,11
 195 2223 195 2223 202 2248 c 2
 241 2379 l 2,0,1
EndSplineSet
Fore
SplineSet
231.420451132 2390.30060177 m 0
 182.989835322 2249.00377272 l 0
 184.325876714 2228.39293834 193.800644938 2207.88619518 196.986209685 2199.41937278 c 0
 292.746920314 2092.94218903 333.262536064 1969.7771273 360.781689575 1826.5533363 c 0
 360.105973889 1810.59809328 376.506582631 1795.4842772 393.128536805 1793.04713479 c 0
 412.381310446 1791.55712381 426.236957017 1815.17678327 432.645959129 1821.63618292 c 0
 471.361032501 2050.71114736 429.221394025 2242.80438174 285.166183503 2384.80405327 c 0
 272.803954225 2406.27882453 237.50565194 2411.06675104 231.420451132 2390.30060177 c 0
249.680155447 2374.28594329 m 0
 262.749057517 2382.65034004 249.593618168 2382.31006328 272.98327128 2363.18260749 c 0
 392.152524635 2225.58726316 438.562907363 2053.06319104 396.871914851 1828.51673729 c 0
 389.993423658 1820.33458222 389.101158636 1819.18845353 390.241019824 1827.91980995 c 0
 390.123196022 1816.22829358 390.296200159 1822.80387782 382.581084722 1832.26376873 c 0
 366.005140789 1980.36304285 307.205103635 2101.92309589 229.349437981 2214.53590576 c 0
 209.158987423 2221.80827265 218.809268429 2236.59293379 221.959455552 2246.23953625 c 0
 249.680155447 2374.28594329 l 0
EndSplineSet
Colour: ff0000
EndChar
StartChar: uni06D4
Encoding: 1748 1748 4621
Width: 1007
Flags: HW
LayerCount: 2
Back
SplineSet
836 185 m 1,0,1
 872 184 872 184 848 158 c 2
 729 29 l 2,3,4
 702 0 702 0 648 0 c 2
 172 0 l 1,6,7
 136 1 136 1 160 27 c 2
 279 156 l 2,9,10
 306 185 306 185 360 185 c 2
 836 185 l 1,0,1
EndSplineSet
Fore
SplineSet
829.801893016 199.746115531 m 0
 365.070950828 206.557039079 l 0
 325.65898674 199.168705843 293.754110004 186.162626722 273.068125938 164.632837596 c 0
 149.452148739 36.0936106406 l 0
 134.524859826 6.24428590919 140.407050752 -12.6057116571 167.818619666 -16.5538997587 c 0
 642.766938841 -14.7099564191 l 0
 679.832083691 -8.23023823419 714.411704965 1.07192926628 737.156147867 17.8976763937 c 0
 853.316085228 143.277141027 l 0
 873.26655245 176.876284532 864.223361174 190.846033001 829.801893016 199.746115531 c 0
835.341597434 170.145949896 m 0
 852.701084272 175.649710526 846.604007376 171.258520466 841.173843402 164.750523596 c 0
 719.945296723 42.8668795223 l 0
 703.116383322 23.8075879783 684.712955358 13.6249132018 654.102021591 13.8636996012 c 0
 171.086779267 9.68114324779 l 0
 150.989782121 11.0369944783 158.110486123 2.10790561305 174.171203004 21.6492092598 c 0
 296.592158845 148.453094128 l 0
 299.408558674 161.370429545 322.282543145 174.664736267 359.063519803 172.630931157 c 0
 835.341597434 170.145949896 l 0
EndSplineSet
Colour: ff0000
EndChar
StartChar: uni06D6
Encoding: 4834 1750 2306
Width: 1041
VWidth: 0
GlyphClass: 4
Flags: W
HStem: 1729.9 125.802<106.404 731.655> 1916 125.495<100.67 453.723 520.213 682.396 725.93 798.332 799.605 928.033> 1956.4 84.7861<103.54 453.723> 2041.5 111.416<828.96 929.693>
VStem: 50 50.1982<1863.36 1948.34> 683.294 42.2393<2041.83 2087.1>
AnchorPoint: "MarkAbove" 605.155 1729.9 mark 0
LayerCount: 2
Back
SplineSet
260.176757812 3127 m 0,0,1
 258.176757812 3185 258.176757812 3185 251.176757812 3294 c 0,2,3
 249.176757812 3322 249.176757812 3322 243.176757812 3443 c 0,4,5
 241.176757812 3482 241.176757812 3482 249.176757812 3494 c 2,6,-1
 273.176757812 3530 l 2,7,8
 311.176757812 3587 311.176757812 3587 314.176757812 3521 c 0,9,10
 330.176757812 3164 330.176757812 3164 349.176757812 3120 c 0,11,12
 376.176757812 3057 376.176757812 3057 426.176757812 3062 c 0,13,14
 473.176757812 3067 473.176757812 3067 534.176757812 3136 c 0,15,16
 554.176757812 3159 554.176757812 3159 568.176757812 3150 c 0,17,18
 637.176757812 3107 637.176757812 3107 659.176757812 3100 c 1,19,20
 665.176757812 3103 665.176757812 3103 737.176757812 3170 c 1,21,22
 861.176757812 3281 861.176757812 3281 953.176757812 3289 c 0,23,24
 1008.17675781 3294 1008.17675781 3294 1036.17675781 3250 c 0,25,26
 1064.17675781 3205 1064.17675781 3205 1027.17675781 3120 c 1,27,28
 969.176757812 2994 969.176757812 2994 848.176757812 2975 c 1,29,30
 695.176757812 2955 695.176757812 2955 537.176757812 3038 c 1,31,32
 495.176757812 2988 495.176757812 2988 483.176757812 2978 c 0,33,34
 415.176757812 2917 415.176757812 2917 350.176757812 2973 c 1,35,36
 306.176757812 3013 306.176757812 3013 290.176757812 3092 c 1,37,38
 275.176757812 3002 275.176757812 3002 235.176757812 2939 c 0,39,40
 196.176757812 2877 196.176757812 2877 108.176757812 2823 c 1,41,42
 203.176757812 2808 203.176757812 2808 352.176757812 2804 c 0,43,44
 555.176757812 2798 555.176757812 2798 750.176757812 2814 c 1,45,46
 799.176757812 2821 799.176757812 2821 1030.17675781 2841 c 0,47,48
 1064.17675781 2844 1064.17675781 2844 1045.17675781 2815 c 2,49,-1
 999.176757812 2746 l 2,50,51
 988.176757812 2729 988.176757812 2729 973.176757812 2726 c 0,52,53
 854.176757812 2708 854.176757812 2708 539.176757812 2697 c 0,54,55
 251.176757812 2687 251.176757812 2687 104.176757812 2709 c 0,56,57
 58.1767578125 2716 58.1767578125 2716 50.1767578125 2752 c 1,58,59
 41.1767578125 2808 41.1767578125 2808 73.1767578125 2861 c 0,60,61
 108.176757812 2919 108.176757812 2919 147.176757812 2947 c 0,62,63
 263.176757812 3029 263.176757812 3029 260.176757812 3127 c 0,0,1
951.176757812 3162 m 0,64,65
 876.176757812 3242 876.176757812 3242 696.176757812 3092 c 1,66,67
 814.176757812 3066 814.176757812 3066 961.176757812 3090 c 1,68,69
 972.176757812 3139 972.176757812 3139 951.176757812 3162 c 0,64,65
EndSplineSet
Fore
SplineSet
924.795898438 2152.91113281 m 4x9c
 999.787109375 2152.91113281 998.256835938 2083.12402344 984.7890625 2028.640625 c 4
 967.036132812 1957.62792969 954.486328125 1916 869.39453125 1916 c 6
 778.180664062 1916 l 6
 742.98046875 1916 713.90234375 1939.87402344 704.71875 1972.01367188 c 5
 695.536132812 1939.87402344 666.458984375 1916 631.258789062 1916 c 6
 589.32421875 1916 l 6
 554.124023438 1916 525.045898438 1939.56835938 515.864257812 1971.70800781 c 5
 509.7421875 1944.46582031 491.071289062 1916 451.279296875 1916 c 6
 351.801757812 1916 l 6xcc
 273.442382812 1916 316.295898438 1956.40332031 238.548828125 1956.40332031 c 6
 156.2109375 1956.40332031 l 6
 125.296875 1956.40332031 100.198242188 1938.95605469 100.198242188 1906.20507812 c 4
 100.198242188 1875.29003906 118.5625 1855.70117188 156.823242188 1855.70117188 c 6
 799.30078125 1855.70117188 l 5
 731.655273438 1729.89941406 l 5
 235.794921875 1729.89941406 l 6
 121.9296875 1729.89941406 50 1803.05371094 50 1893.34863281 c 4
 50 1983.33984375 123.154296875 2041.18945312 213.450195312 2041.18945312 c 6xac
 443.626953125 2041.49511719 l 6
 463.829101562 2043.02636719 467.807617188 2052.82128906 461.380859375 2068.125 c 4
 455.564453125 2081.59277344 429.546875 2141.27929688 414.85546875 2174.94921875 c 4
 409.0390625 2188.72363281 413.018554688 2204.640625 424.649414062 2214.12890625 c 6
 515.251953125 2286.9765625 l 5
 547.390625 2162.39941406 l 5
 518.618164062 2142.50390625 l 5
 518.923828125 2051.90234375 l 6
 518.923828125 2046.08691406 522.904296875 2042.10742188 527.801757812 2041.49511719 c 6
 665.234375 2041.49511719 l 6xcc
 678.702148438 2041.49511719 683.293945312 2047.31152344 683.293945312 2053.73925781 c 6
 683.293945312 2087.10253906 l 5
 725.533203125 2087.10253906 l 5
 725.533203125 2053.73925781 l 6
 725.533203125 2047.92382812 730.736328125 2041.80175781 739.001953125 2041.80175781 c 4
 768.998046875 2041.80175781 844.90625 2152.91113281 924.795898438 2152.91113281 c 4x9c
799.60546875 2041.49511719 m 5
 929.693359375 2041.49511719 l 5x9c
 929.693359375 2041.49511719 833.029296875 2060.85546875 800.194335938 2060.85546875 c 4
 770.419921875 2060.85546875 799.60546875 2041.49511719 799.60546875 2041.49511719 c 5
EndSplineSet
Colour: ffff00
EndChar
StartChar: uni06D7
Encoding: 1751 1751 4599
Width: 0
VWidth: 0
GlyphClass: 4
Flags: HW
LayerCount: 2
Back
SplineSet
419 3058 m 0,0,1
 530 3059 530 3059 612 3142 c 1,2,3
 610 3175 610 3175 601 3189 c 0,4,5
 587 3210 587 3210 580 3194 c 0,6,7
 552 3127 552 3127 495 3125 c 0,8,9
 404 3122 404 3122 400 3234 c 0,10,11
 398 3293 398 3293 443 3367 c 0,12,13
 515 3484 515 3484 603 3374 c 0,14,15
 667 3294 667 3294 664 3182 c 0,16,17
 662 3119 662 3119 627 3063 c 0,18,19
 554 2945 554 2945 419 2946 c 1,20,21
 272 2946 272 2946 242 3092 c 1,22,23
 227 3002 227 3002 187 2939 c 0,24,25
 148 2877 148 2877 60 2823 c 1,26,27
 155 2808 155 2808 304 2804 c 0,28,29
 541 2798 541 2798 702 2814 c 0,30,31
 868 2831 868 2831 982 2841 c 0,32,33
 1016 2844 1016 2844 997 2815 c 2
 951 2746 l 2,35,36
 940 2729 940 2729 925 2726 c 0,37,38
 806 2708 806 2708 491 2697 c 0,39,40
 203 2687 203 2687 56 2709 c 0,41,42
 10 2716 10 2716 2 2752 c 1,43,44
 -7 2808 -7 2808 25 2861 c 0,45,46
 60 2919 60 2919 99 2947 c 0,47,48
 215 3029 215 3029 212 3127 c 0,49,50
 210 3185 210 3185 203 3294 c 0,51,52
 201 3322 201 3322 195 3443 c 0,53,54
 193 3482 193 3482 201 3494 c 2
 225 3530 l 2,56,57
 263 3587 263 3587 266 3521 c 0,58,59
 282 3164 282 3164 301 3120 c 0,60,61
 329 3058 329 3058 419 3058 c 0,0,1
439 3685 m 2,62,63
 442 3690 442 3690 449 3687 c 0,64,65
 489 3674 489 3674 520 3649 c 1
 562 3712 l 2,67,68
 566 3717 566 3717 572 3714 c 0,69,70
 590 3708 590 3708 656 3665 c 0,71,72
 662 3661 662 3661 658 3654 c 2
 601 3565 l 2,74,75
 597 3559 597 3559 589 3567 c 0,76,77
 583 3573 583 3573 523 3609 c 1
 478 3538 l 2,79,80
 476 3535 476 3535 466 3540 c 0,81,82
 441 3552 441 3552 383 3592 c 0,83,84
 379 3595 379 3595 381 3599 c 2
 439 3685 l 2,62,63
EndSplineSet
Fore
SplineSet
427.984497825 3689.69723676 m 0
 366.666993093 3601.84847224 l 0
 370.513849332 3602.70528891 366.396300051 3581.69839704 377.530220267 3579.47850936 c 0
 410.816424393 3551.8498744 440.195803701 3540.96492766 460.256563361 3529.7470291 c 0
 462.803724426 3519.05909297 476.86341916 3518.26007247 494.163535437 3528.42573616 c 0
 526.412871709 3600.78915364 l 0
 559.126651494 3577.15598745 582.550682413 3561.06240628 572.525396328 3549.86470142 c 0
 588.264119094 3548.62319918 598.415234949 3545.44941204 607.290387817 3559.16042306 c 0
 670.659668327 3652.24086887 l 0
 677.513507201 3660.25708694 665.557706452 3672.06414787 668.842367538 3678.35050468 c 0
 619.530645186 3707.62694273 594.156193518 3716.93690363 573.59541376 3727.80797645 c 0
 568.948592177 3728.77745049 552.539323842 3734.37019871 555.00200334 3716.39289194 c 0
 519.706553837 3659.18934543 l 0
 513.079135356 3671.54411772 485.642768385 3695.3999695 456.345562261 3705.28644566 c 0
 451.223971567 3697.65233361 432.321649876 3706.5468367 427.984497825 3689.69723676 c 0
424.151408646 3076.31149721 m 0
 363.470467612 3077.47131318 332.307765889 3084.36960673 312.921016359 3120.87785055 c 0
 298.559176211 3156.85066855 292.655023099 3287.23660997 285.356619241 3522.42830902 c 0
 274.49354426 3577.91304909 250.596267246 3578.35920624 213.018798264 3534.29944752 c 0
 189.057873833 3507.61058242 l 0
 185.394071741 3495.14366171 175.669768575 3468.20930035 173.810268697 3446.51630007 c 0
 184.219972337 3356.94244591 184.497029311 3306.17087517 191.431495844 3291.16594458 c 0
 189.725747407 3214.41123683 195.97191213 3168.32957904 191.08201186 3119.91707726 c 0
 197.394282048 3065.39111942 159.503049424 3015.85631076 91.2183015928 2957.56503477 c 0
 67.0704686187 2934.08193143 29.7455413345 2915.00213671 16.6419883339 2871.35663293 c 0
 -7.67636586996 2825.29269706 -19.1152535564 2787.31797972 -19.4308362178 2751.67975026 c 0
 -10.4193375701 2716.48217874 26.0531047859 2702.10462956 52.3801890065 2695.79364291 c 0
 151.21735369 2683.43821011 303.764607303 2681.8057864 484.745208942 2685.9768261 c 0
 698.234304819 2695.11454305 850.173046831 2702.04805091 925.23705169 2705.03316048 c 0
 937.933346942 2715.52529566 951.522331324 2723.3838213 962.74145128 2743.19372164 c 0
 1012.54135877 2806.66245127 l 0
 1025.47661086 2840.5121876 1010.86065734 2860.11269734 987.580047735 2851.81578736 c 0
 902.360971194 2855.63227254 814.448941564 2841.40944258 697.127016434 2821.9437376 c 0
 599.675083398 2819.03237951 458.867477205 2817.40644638 304.884720203 2821.46238149 c 0
 209.70241856 2825.44731622 122.66954322 2830.80406348 74.1345775555 2821.61329958 c 0
 127.214222183 2847.01680684 173.521521981 2888.66494491 194.610853524 2930.30877042 c 0
 221.428754097 2976.80615387 240.293809093 3026.4171443 236.358598794 3081.82905793 c 0
 251.394358474 2984.48305922 320.850000718 2928.44348296 418.23519454 2937.03193017 c 0
 517.508605033 2924.70784932 589.268390699 2976.38933426 638.604635061 3061.94697055 c 0
 667.708611028 3092.20419805 675.824778366 3140.62728967 675.330070919 3179.89616727 c 0
 680.233492014 3254.03663567 660.314199748 3331.8976419 617.758043145 3381.38742294 c 0
 549.089858567 3460.8723215 483.72182497 3452.06921285 428.052631335 3378.77848255 c 0
 404.569505447 3328.01556886 381.486066466 3269.33048668 379.878849705 3227.29412379 c 0
 383.420769211 3149.2430817 429.233678518 3102.59290028 500.957247103 3106.88881464 c 0
 536.314151572 3116.220866 570.697248068 3144.34923003 598.776406944 3191.16324466 c 0
 587.138872563 3194.74420784 578.303115269 3191.80379999 588.496747236 3187.65829544 c 0
 595.017205133 3180.4500522 592.155853592 3155.43090585 594.788693705 3140.61963315 c 0
 553.395197346 3106.0265719 492.897389529 3072.04013272 424.151408646 3076.31149721 c 0
447.360497744 3676.93403851 m 0
 452.949940954 3679.42548393 443.326193948 3671.6139271 447.056373377 3673.73185191 c 0
 466.351737092 3668.47067379 492.736907543 3649.46777918 521.472571335 3640.82491286 c 0
 571.670911653 3707.02515751 l 0
 577.579721008 3700.30137418 561.835182815 3697.80593339 560.820267199 3705.33289692 c 0
 581.674720978 3694.34085319 606.763808492 3687.73712419 648.72186292 3645.63920138 c 0
 645.156362922 3659.86306973 642.314015782 3659.68080752 648.313336681 3658.69130438 c 0
 585.135657363 3568.30223064 l 0
 589.428621508 3579.84908513 606.22873 3572.97061861 601.436440066 3570.73836211 c 0
 599.683185813 3588.08160814 564.897114342 3600.60840741 517.511958769 3623.73791453 c 0
 466.685466053 3539.63979576 l 0
 468.254925285 3548.34082991 470.917595752 3551.93019791 477.726640475 3560.45353591 c 0
 455.708549738 3565.08099764 428.840867934 3580.02837297 388.164474565 3604.45692258 c 0
 394.44272495 3603.3857169 392.292600115 3592.39346042 390.248414536 3593.64626783 c 0
 447.360497744 3676.93403851 l 0
417.00980457 3045.730933 m 0
 496.096930429 3038.82290846 569.574082111 3070.50984532 622.404765897 3131.20158922 c 0
 620.645281523 3171.6707623 626.253574389 3187.44847824 607.35485592 3195.78367425 c 0
 595.922746225 3215.72891826 573.456736871 3213.15230092 563.976017919 3193.5165748 c 0
 551.730778225 3163.35506398 533.127509923 3136.57724505 493.679430604 3135.62676859 c 0
 443.413380399 3132.13495149 414.742501139 3163.07396982 410.657470346 3236.14186188 c 0
 419.7529339 3272.46974331 429.761062882 3305.61870997 459.660573392 3361.83078117 c 0
 491.620604912 3433.15224954 537.836637826 3429.84777581 592.5229749 3362.67195891 c 0
 628.507630931 3316.38967717 655.575487843 3254.99110751 642.517773428 3184.7691642 c 0
 651.687429323 3135.98792171 631.264784196 3112.15112114 620.561558246 3066.90090935 c 0
 570.154726535 2994.81782129 500.332682735 2965.22900671 417.434371873 2965.95230165 c 0
 329.2061475 2961.41703636 276.851479967 2999.14965137 247.89429606 3109.95581595 c 0
 222.508495476 3032.58058194 205.282544251 2982.93682889 178.019939279 2949.46213351 c 0
 144.940295029 2902.48099362 103.521830517 2868.04143526 44.5887717513 2815.2417466 c 0
 118.049073565 2792.14594491 204.296166251 2785.98384909 301.834369156 2784.02934931 c 0
 458.107838946 2788.89953147 598.446376555 2782.31661543 698.206777745 2798.03828605 c 0
 808.768272918 2817.36225395 905.398353838 2814.46301528 990.260535598 2822.79083605 c 0
 996.743110534 2832.11992859 999.424059184 2830.80193371 978.614548 2828.75338429 c 0
 932.807592804 2748.75015705 l 0
 932.983524625 2743.85780854 929.00182484 2738.11894139 916.839380509 2741.77343746 c 0
 847.786259453 2729.20513826 693.326331368 2719.80031897 483.932087948 2706.42970503 c 0
 299.204080213 2698.6718039 152.962469719 2709.91264462 58.9411946404 2721.67454541 c 0
 29.1100387377 2723.09623477 20.1241943412 2740.41070576 18.3832180201 2757.99538822 c 0
 12.716475217 2783.19189616 14.5795243583 2817.32641842 34.7746273642 2857.37863078 c 0
 63.8788008625 2888.02300528 85.3819970126 2912.49144167 109.590765218 2938.69675339 c 0
 180.297733691 2995.09185735 222.410723955 3052.01004402 228.750374096 3130.92055779 c 0
 221.615079035 3162.61453654 228.869517985 3217.08385581 220.835355407 3300.24250837 c 0
 212.872408695 3308.77694723 220.002857138 3358.96168424 215.514828429 3448.7521206 c 0
 213.058294642 3470.13971736 216.162983219 3480.38357844 212.383917145 3485.37141224 c 0
 235.433939246 3521.0570463 l 0
 258.727661959 3557.85416502 258.614775481 3549.25918256 252.374880106 3524.56981077 c 0
 263.051061073 3279.19816087 276.100413045 3152.53673093 286.285389717 3110.25078188 c 0
 301.749539889 3062.18098516 354.355548879 3046.93108643 417.00980457 3045.730933 c 0
EndSplineSet
Colour: ff0000
EndChar
StartChar: uni06D8
Encoding: 1752 1752 4608
Width: 0
GlyphClass: 4
Flags: HW
LayerCount: 2
Back
SplineSet
411 2921 m 1,0,1
 297 2717 297 2717 94 2671 c 0,2,3
 50 2661 50 2661 43 2675 c 0,4,5
 31 2702 31 2702 74 2723 c 0,6,7
 268 2819 268 2819 363 2960 c 1,8,9
 406 3209 406 3209 514 3206 c 0,10,11
 634 3202 634 3202 634 2982 c 1
 599 2905 l 2,13,14
 593 2892 593 2892 577 2893 c 0,15,16
 477 2897 477 2897 411 2921 c 1,0,1
EndSplineSet
Fore
SplineSet
413.50412425 2900.37322316 m 0
 455.467721242 2895.02388638 509.675401361 2886.76486729 575.875228097 2873.078784 c 0
 586.766478716 2876.02438007 602.108253667 2887.16491371 614.958531176 2902.50659226 c 0
 654.848529177 2975.48230122 l 0
 651.61120671 3131.2491523 595.671275311 3210.22226119 515.434513175 3227.58858993 c 0
 435.487245984 3220.8329835 376.881240723 3130.77315968 353.649445501 2968.64396569 c 0
 287.03250237 2870.09791984 201.125584321 2800.520182 71.7228337631 2734.617049 c 0
 39.5280964277 2725.99621814 19.0134593264 2698.94263784 30.0085737942 2669.44907847 c 0
 37.204899934 2651.58160612 69.0722587713 2649.25533497 101.091211957 2652.06284553 c 0
 235.689603929 2685.77688313 340.158459083 2776.81068322 413.50412425 2900.37322316 c 0
410.11014829 2937.74116592 m 0
 320.708133318 2790.48863886 224.974029199 2712.65157867 93.1507718389 2679.67111572 c 0
 60.8711220897 2677.50968987 55.0778907638 2671.70013711 57.5757875094 2679.84954481 c 0
 51.3588729635 2694.37972332 54.5815394045 2696.59528217 84.2781900428 2708.60397317 c 0
 218.113855496 2768.80497869 314.659656169 2858.5189389 373.440197782 2960.03052454 c 0
 406.390473871 3113.71223852 452.250248847 3189.07931448 512.055685047 3193.02062131 c 0
 591.141814153 3184.07019385 617.196013749 3124.91625259 616.101014206 2989.09225735 c 0
 587.444386736 2916.05887451 l 0
 578.017685031 2904.07775655 582.353327557 2901.90022647 572.762170077 2902.33350677 c 0
 509.982536444 2907.53483922 461.541748567 2921.71150976 410.11014829 2937.74116592 c 0
EndSplineSet
Colour: ff0000
EndChar
